<svg width="2169" height="697" viewBox="0 0 2169 697" fill="none" xmlns="http://www.w3.org/2000/svg">
<path fill-rule="evenodd" clip-rule="evenodd" d="M1056.14 0.478519C1011.89 3.64052 987.592 7.15247 953.487 15.3165C893.855 29.5915 820.913 58.1155 766.771 88.3335C747.857 98.8885 721.183 115.157 715.635 119.521C715.085 119.953 712.61 121.65 710.135 123.292C706.459 125.73 700.051 130.297 693.636 135.048C689.631 138.014 674.968 149.916 672.031 152.584L668.423 155.861L641.029 156.194C619.922 156.45 609.848 157.033 597.135 158.734C557.087 164.094 522.717 172.749 491.635 185.304C466.823 195.326 429.081 214.002 411.635 224.891C407.071 227.739 380.773 245.106 379.635 246.023C379.085 246.467 375.035 249.606 370.635 252.999C366.235 256.392 362.41 259.424 362.135 259.738C361.86 260.051 358.71 262.73 355.135 265.691C347.673 271.872 325.135 294.485 325.135 295.792C325.135 296.272 324.556 297.259 323.848 297.986C319.777 302.164 313.086 315.887 309.738 326.922C304.719 343.469 303.742 352.171 303.686 380.807C303.628 410.909 304.82 419.662 312.071 442.358C321.635 472.292 341.742 511.835 359.257 535.158C371.586 551.573 392.485 570.571 416.635 587.314C420.485 589.983 427.235 594.666 431.635 597.718C440.203 603.663 460.044 615.807 461.187 615.807C461.566 615.807 462.175 618.169 462.538 621.057C465.059 641.084 469.961 663.325 476.313 683.557L480.473 696.807H1089.07H1697.67L1703.4 680.557C1723.23 624.372 1730.34 577.807 1728.06 519.105C1727.34 500.626 1725.07 475.472 1723.19 465.156L1722.43 461.006L1727.53 461.111C1737.85 461.323 1761.01 455.194 1770.86 449.641C1785.43 441.43 1802.02 426.797 1809.14 415.877C1809.96 414.611 1811.38 412.595 1812.3 411.396C1815.81 406.794 1822.15 392.942 1824.51 384.713C1828.34 371.376 1829.5 361.094 1828.81 346.372C1827.77 323.905 1823.08 306.657 1811.68 283.307C1800.51 260.426 1788.22 243.807 1766.18 221.761C1752.66 208.241 1747.96 204.051 1736.64 195.431C1733.34 192.919 1730.19 190.493 1729.64 190.041C1728.62 189.206 1703.13 172.339 1697.64 168.866C1690.11 164.11 1668.24 152.561 1654.14 145.889C1617.11 128.38 1576.13 115.086 1544.24 110.234C1531.45 108.289 1503.58 108.043 1490.45 109.76L1481.26 110.96L1472.45 105.211C1436.77 81.9325 1369.79 51.5015 1317.64 34.8735C1260.55 16.6735 1194.17 4.78051 1127.64 0.835513C1112.17 -0.0824866 1067.12 -0.306481 1056.14 0.478519ZM1960.47 591.219C1939.6 595.205 1924.87 603.106 1908.41 619.14L1899.19 628.124L1889.91 630.464C1857.1 638.747 1837.65 659.845 1833.62 691.557L1832.95 696.807H2000.54C2159.49 696.807 2168.13 696.717 2168.12 695.057C2168.08 690.97 2165.01 679.216 2162.62 673.973C2158.89 665.811 2150.92 658.433 2143.46 656.256C2132.71 653.115 2132.94 653.302 2128.35 643.866C2118.82 624.249 2100.22 611.813 2075.7 608.646C2065.75 607.362 2053.85 608.524 2044.5 611.693L2038.64 613.681L2027.93 606.708C2015.57 598.66 2009.22 595.661 1998.39 592.76C1988.37 590.075 1970.3 589.341 1960.47 591.219ZM202.635 593.86C192.101 595.501 181.295 598.622 171.835 602.757L162.635 606.778L156.296 604.793C148.527 602.359 136.375 602.172 127.949 604.355C108.352 609.433 84.127 626.552 72.456 643.57L68.635 649.144L58.635 650.859C39.743 654.101 28.302 659.588 17.106 670.781C7.69899 680.184 3.063 686.902 0.695999 694.557L0 696.807H178.068C301.729 696.807 356.135 696.486 356.135 695.757C356.135 694.168 353.301 688.98 348.809 682.345C345.083 676.841 342.965 674.202 337.635 668.417C333.12 663.517 324.159 657.271 316.605 653.76C309.434 650.426 307.761 649.079 300.966 641.167C290.767 629.291 286.747 625.149 279.635 619.188C256.822 600.062 226.61 590.125 202.635 593.86Z" fill="#FFDCE9"/>
<path fill-rule="evenodd" clip-rule="evenodd" d="M1056.13 0.478519C1011.89 3.64052 987.592 7.15247 953.487 15.3165C893.855 29.5915 820.913 58.1155 766.771 88.3335C747.857 98.8885 721.183 115.157 715.635 119.521C715.085 119.953 712.61 121.65 710.135 123.292C706.459 125.73 700.051 130.297 693.636 135.048C689.631 138.014 674.968 149.916 672.031 152.584L668.423 155.861L641.029 156.194C619.922 156.45 609.848 157.033 597.135 158.734C557.087 164.094 522.717 172.749 491.635 185.304C466.823 195.326 429.081 214.002 411.635 224.891C407.071 227.739 380.773 245.106 379.635 246.023C379.085 246.467 375.035 249.606 370.635 252.999C366.235 256.392 362.41 259.424 362.135 259.738C361.86 260.051 358.71 262.73 355.135 265.691C347.673 271.872 325.135 294.485 325.135 295.792C325.135 296.272 324.556 297.259 323.848 297.986C319.777 302.164 313.086 315.887 309.738 326.922C304.719 343.469 303.742 352.171 303.686 380.807C303.628 410.909 304.82 419.662 312.071 442.358C321.635 472.292 341.742 511.835 359.257 535.158C371.586 551.573 392.485 570.571 416.635 587.314C420.485 589.983 427.235 594.666 431.635 597.718C440.203 603.663 460.044 615.807 461.187 615.807C461.566 615.807 462.175 618.169 462.538 621.057C465.059 641.084 469.961 663.325 476.314 683.559L480.474 696.811L1089.07 696.806L1697.67 696.802L1703.4 680.554C1723.23 624.372 1730.34 577.806 1728.06 519.105C1727.34 500.626 1725.07 475.472 1723.19 465.156L1722.43 461.006L1727.53 461.111C1737.85 461.323 1761.01 455.194 1770.86 449.641C1785.43 441.43 1802.02 426.797 1809.13 415.877C1809.96 414.611 1811.38 412.595 1812.3 411.396C1815.8 406.794 1822.15 392.942 1824.51 384.713C1828.34 371.376 1829.5 361.094 1828.81 346.372C1827.76 323.905 1823.08 306.657 1811.68 283.307C1800.51 260.426 1788.22 243.807 1766.18 221.761C1752.66 208.241 1747.96 204.051 1736.63 195.431C1733.33 192.919 1730.18 190.493 1729.63 190.041C1728.62 189.206 1703.13 172.339 1697.63 168.866C1690.11 164.11 1668.24 152.561 1654.13 145.889C1617.11 128.38 1576.13 115.086 1544.24 110.234C1531.45 108.289 1503.58 108.043 1490.45 109.76L1481.26 110.96L1472.45 105.211C1436.77 81.9325 1369.79 51.5015 1317.63 34.8735C1260.55 16.6735 1194.17 4.78051 1127.63 0.835513C1112.17 -0.0824866 1067.12 -0.306481 1056.13 0.478519ZM1063.9 8.49451C1062.94 8.74451 1061.14 8.75347 1059.9 8.51447C1058.65 8.27547 1059.43 8.07051 1061.63 8.05951C1063.83 8.04851 1064.85 8.24451 1063.9 8.49451ZM1118.38 8.51349C1117.15 8.75149 1115.12 8.75149 1113.88 8.51349C1112.65 8.27449 1113.66 8.07947 1116.13 8.07947C1118.61 8.07947 1119.62 8.27449 1118.38 8.51349ZM1046.4 9.4635C1045.73 9.7375 1044.38 9.75449 1043.4 9.50049C1042.43 9.24649 1042.98 9.02251 1044.63 9.00251C1046.28 8.98251 1047.08 9.1895 1046.4 9.4635ZM1135.88 9.49652C1134.92 9.74852 1133.35 9.74852 1132.38 9.49652C1131.42 9.24552 1132.21 9.03949 1134.13 9.03949C1136.06 9.03949 1136.85 9.24552 1135.88 9.49652ZM1034.38 10.4695C1033.7 10.7475 1032.57 10.7475 1031.88 10.4695C1031.2 10.1925 1031.76 9.96552 1033.13 9.96552C1034.51 9.96552 1035.07 10.1925 1034.38 10.4695ZM1149.4 10.4635C1148.73 10.7375 1147.38 10.7545 1146.4 10.5005C1145.43 10.2465 1145.98 10.0225 1147.63 10.0025C1149.28 9.98251 1150.08 10.1895 1149.4 10.4635ZM1024.38 11.4695C1023.7 11.7475 1022.57 11.7475 1021.88 11.4695C1021.2 11.1925 1021.76 10.9655 1023.13 10.9655C1024.51 10.9655 1025.07 11.1925 1024.38 11.4695ZM1159.38 11.4695C1158.7 11.7475 1157.57 11.7475 1156.88 11.4695C1156.2 11.1925 1156.76 10.9655 1158.13 10.9655C1159.51 10.9655 1160.07 11.1925 1159.38 11.4695ZM1016.38 12.4695C1015.7 12.7475 1014.57 12.7475 1013.88 12.4695C1013.2 12.1925 1013.76 11.9655 1015.13 11.9655C1016.51 11.9655 1017.07 12.1925 1016.38 12.4695ZM1169.38 12.4695C1168.7 12.7475 1167.57 12.7475 1166.88 12.4695C1166.2 12.1925 1166.76 11.9655 1168.13 11.9655C1169.51 11.9655 1170.07 12.1925 1169.38 12.4695ZM1008.86 13.4115C1008.53 13.7435 1007.67 13.7795 1006.95 13.4905C1006.15 13.1715 1006.39 12.9345 1007.55 12.8865C1008.61 12.8435 1009.2 13.0795 1008.86 13.4115ZM1178.38 13.4695C1177.7 13.7475 1176.57 13.7475 1175.88 13.4695C1175.2 13.1925 1175.76 12.9655 1177.13 12.9655C1178.51 12.9655 1179.07 13.1925 1178.38 13.4695ZM1001.86 14.4115C1001.53 14.7435 1000.67 14.7795 999.948 14.4905C999.15 14.1715 999.387 13.9345 1000.55 13.8865C1001.61 13.8435 1002.2 14.0795 1001.86 14.4115ZM1185.86 14.4115C1185.53 14.7435 1184.67 14.7795 1183.95 14.4905C1183.15 14.1715 1183.39 13.9345 1184.55 13.8865C1185.61 13.8435 1186.2 14.0795 1185.86 14.4115ZM995.864 15.4115C995.532 15.7435 994.669 15.7795 993.948 15.4905C993.15 15.1715 993.387 14.9345 994.552 14.8865C995.606 14.8435 996.196 15.0795 995.864 15.4115ZM1193.86 15.4115C1193.53 15.7435 1192.67 15.7795 1191.95 15.4905C1191.15 15.1715 1191.39 14.9345 1192.55 14.8865C1193.61 14.8435 1194.2 15.0795 1193.86 15.4115ZM989.864 16.4115C989.532 16.7435 988.669 16.7795 987.948 16.4905C987.15 16.1715 987.387 15.9345 988.552 15.8865C989.606 15.8435 990.196 16.0795 989.864 16.4115ZM1200.86 16.4115C1200.53 16.7435 1199.67 16.7795 1198.95 16.4905C1198.15 16.1715 1198.39 15.9345 1199.55 15.8865C1200.61 15.8435 1201.2 16.0795 1200.86 16.4115ZM983.864 17.4115C983.532 17.7435 982.669 17.7795 981.948 17.4905C981.15 17.1715 981.387 16.9345 982.552 16.8865C983.606 16.8435 984.196 17.0795 983.864 17.4115ZM1206.86 17.4115C1206.53 17.7435 1205.67 17.7795 1204.95 17.4905C1204.15 17.1715 1204.39 16.9345 1205.55 16.8865C1206.61 16.8435 1207.2 17.0795 1206.86 17.4115ZM978.864 18.4115C978.532 18.7435 977.669 18.7795 976.948 18.4905C976.15 18.1715 976.387 17.9345 977.552 17.8865C978.606 17.8435 979.196 18.0795 978.864 18.4115ZM1212.86 18.4115C1212.53 18.7435 1211.67 18.7795 1210.95 18.4905C1210.15 18.1715 1210.39 17.9345 1211.55 17.8865C1212.61 17.8435 1213.2 18.0795 1212.86 18.4115ZM973.864 19.4115C973.532 19.7435 972.669 19.7795 971.948 19.4905C971.15 19.1715 971.387 18.9345 972.552 18.8865C973.606 18.8435 974.196 19.0795 973.864 19.4115ZM1218.86 19.4115C1218.53 19.7435 1217.67 19.7795 1216.95 19.4905C1216.15 19.1715 1216.39 18.9345 1217.55 18.8865C1218.61 18.8435 1219.2 19.0795 1218.86 19.4115ZM1224.86 20.4115C1224.53 20.7435 1223.67 20.7795 1222.95 20.4905C1222.15 20.1715 1222.39 19.9345 1223.55 19.8865C1224.61 19.8435 1225.2 20.0795 1224.86 20.4115ZM964.864 21.4115C964.532 21.7435 963.669 21.7795 962.948 21.4905C962.15 21.1715 962.387 20.9345 963.552 20.8865C964.606 20.8435 965.196 21.0795 964.864 21.4115ZM1235.86 22.4115C1235.53 22.7435 1234.67 22.7795 1233.95 22.4905C1233.15 22.1715 1233.39 21.9345 1234.55 21.8865C1235.61 21.8435 1236.2 22.0795 1235.86 22.4115ZM1240.86 23.4115C1240.53 23.7435 1239.67 23.7795 1238.95 23.4905C1238.15 23.1715 1238.39 22.9345 1239.55 22.8865C1240.61 22.8435 1241.2 23.0795 1240.86 23.4115ZM951.864 24.4115C951.532 24.7435 950.669 24.7795 949.948 24.4905C949.15 24.1715 949.387 23.9345 950.552 23.8865C951.606 23.8435 952.196 24.0795 951.864 24.4115ZM1245.86 24.4115C1245.53 24.7435 1244.67 24.7795 1243.95 24.4905C1243.15 24.1715 1243.39 23.9345 1244.55 23.8865C1245.61 23.8435 1246.2 24.0795 1245.86 24.4115ZM1254.86 26.4115C1254.53 26.7435 1253.67 26.7795 1252.95 26.4905C1252.15 26.1715 1252.39 25.9345 1253.55 25.8865C1254.61 25.8435 1255.2 26.0795 1254.86 26.4115ZM1263.86 28.4115C1263.53 28.7435 1262.67 28.7795 1261.95 28.4905C1261.15 28.1715 1261.39 27.9345 1262.55 27.8865C1263.61 27.8435 1264.2 28.0795 1263.86 28.4115ZM1400.13 75.8075C1400.96 76.3405 1401.18 76.7765 1400.63 76.7765C1400.08 76.7765 1398.96 76.3405 1398.13 75.8075C1397.31 75.2745 1397.08 74.8385 1397.63 74.8385C1398.18 74.8385 1399.31 75.2745 1400.13 75.8075ZM804.135 78.8075C803.31 79.3405 802.185 79.7765 801.635 79.7765C801.085 79.7765 801.31 79.3405 802.135 78.8075C802.96 78.2745 804.085 77.8385 804.635 77.8385C805.185 77.8385 804.96 78.2745 804.135 78.8075ZM798.135 81.2815C798.135 81.5425 796.785 82.4545 795.135 83.3075C791.374 85.2525 791.147 84.4075 794.885 82.3795C798.028 80.6745 798.135 80.6385 798.135 81.2815ZM1417.13 83.8075C1417.96 84.3405 1418.18 84.7765 1417.63 84.7765C1417.08 84.7765 1415.96 84.3405 1415.13 83.8075C1414.31 83.2745 1414.08 82.8385 1414.63 82.8385C1415.18 82.8385 1416.31 83.2745 1417.13 83.8075ZM1437.13 94.3775C1437.13 94.6525 1436.23 94.3965 1435.13 93.8075C1434.03 93.2185 1433.13 92.5125 1433.13 92.2375C1433.13 91.9625 1434.03 92.2185 1435.13 92.8075C1436.23 93.3965 1437.13 94.1025 1437.13 94.3775ZM1502.4 116.464C1501.73 116.738 1500.38 116.754 1499.4 116.5C1498.43 116.246 1498.98 116.022 1500.63 116.002C1502.28 115.982 1503.08 116.19 1502.4 116.464ZM1529.4 116.464C1528.73 116.738 1527.38 116.754 1526.4 116.5C1525.43 116.246 1525.98 116.022 1527.63 116.002C1529.28 115.982 1530.08 116.19 1529.4 116.464ZM1491.13 117.249C1491.13 117.492 1490.68 117.967 1490.13 118.307C1489.58 118.647 1489.13 118.448 1489.13 117.866C1489.13 117.284 1489.58 116.807 1490.13 116.807C1490.68 116.807 1491.13 117.006 1491.13 117.249ZM1538.38 117.469C1537.7 117.747 1536.57 117.747 1535.88 117.469C1535.2 117.192 1535.76 116.965 1537.13 116.965C1538.51 116.965 1539.07 117.192 1538.38 117.469ZM1544.86 118.411C1544.53 118.743 1543.67 118.779 1542.95 118.49C1542.15 118.171 1542.39 117.934 1543.55 117.886C1544.61 117.843 1545.2 118.079 1544.86 118.411ZM1550.86 119.411C1550.53 119.743 1549.67 119.779 1548.95 119.49C1548.15 119.171 1548.39 118.934 1549.55 118.886C1550.61 118.843 1551.2 119.079 1550.86 119.411ZM1555.86 120.411C1555.53 120.743 1554.67 120.779 1553.95 120.49C1553.15 120.171 1553.39 119.934 1554.55 119.886C1555.61 119.843 1556.2 120.079 1555.86 120.411ZM1564.86 122.411C1564.53 122.743 1563.67 122.779 1562.95 122.49C1562.15 122.171 1562.39 121.934 1563.55 121.886C1564.61 121.843 1565.2 122.079 1564.86 122.411ZM1509.26 131.557C1510.51 133.143 1510.47 133.179 1508.88 131.936C1507.22 130.629 1506.69 129.807 1507.51 129.807C1507.72 129.807 1508.51 130.594 1509.26 131.557ZM701.135 140.186C701.135 140.393 700.347 141.181 699.385 141.936C697.799 143.179 697.764 143.143 699.007 141.557C700.314 139.891 701.135 139.363 701.135 140.186ZM697.135 143.186C697.135 143.393 696.347 144.181 695.385 144.936C693.799 146.179 693.764 146.143 695.007 144.557C696.314 142.891 697.135 142.363 697.135 143.186ZM1517.26 146.557C1518.51 148.143 1518.47 148.179 1516.88 146.936C1515.22 145.629 1514.69 144.807 1515.51 144.807C1515.72 144.807 1516.51 145.594 1517.26 146.557ZM1639.13 147.807C1639.96 148.34 1640.18 148.776 1639.63 148.776C1639.08 148.776 1637.96 148.34 1637.13 147.807C1636.31 147.274 1636.08 146.839 1636.63 146.839C1637.18 146.839 1638.31 147.274 1639.13 147.807ZM688.135 150.186C688.135 150.393 687.347 151.181 686.385 151.936C684.799 153.179 684.764 153.143 686.007 151.557C687.314 149.891 688.135 149.363 688.135 150.186ZM1650.13 152.807C1650.96 153.34 1651.18 153.776 1650.63 153.776C1650.08 153.776 1648.96 153.34 1648.13 152.807C1647.31 152.274 1647.08 151.839 1647.63 151.839C1648.18 151.839 1649.31 152.274 1650.13 152.807ZM683.135 154.186C683.135 154.393 682.347 155.181 681.385 155.936C679.799 157.179 679.764 157.143 681.007 155.557C682.314 153.891 683.135 153.363 683.135 154.186ZM1654.66 155.615C1654.35 155.923 1653.55 155.616 1652.87 154.932C1651.89 153.944 1652 153.829 1653.43 154.371C1654.41 154.747 1654.97 155.307 1654.66 155.615ZM1546.63 158.807C1547.63 159.907 1548.22 160.807 1547.94 160.807C1547.67 160.807 1546.63 159.907 1545.63 158.807C1544.64 157.707 1544.05 156.807 1544.32 156.807C1544.6 156.807 1545.64 157.707 1546.63 158.807ZM677.135 159.134C677.135 159.313 675.898 160.55 674.385 161.884L671.635 164.307L674.059 161.557C676.325 158.987 677.135 158.349 677.135 159.134ZM640.399 163.511C639.169 163.748 636.919 163.755 635.399 163.526C633.879 163.296 634.885 163.102 637.635 163.094C640.385 163.087 641.629 163.274 640.399 163.511ZM660.545 163.662C660.836 164.132 659.85 165.594 658.354 166.912L655.635 169.307L658 166.62L660.365 163.933L656 163.546L651.635 163.156L655.826 162.983C658.131 162.887 660.255 163.192 660.545 163.662ZM622.404 164.464C621.727 164.738 620.377 164.754 619.404 164.5C618.431 164.246 618.985 164.022 620.635 164.002C622.285 163.982 623.081 164.19 622.404 164.464ZM611.385 165.469C610.698 165.747 609.573 165.747 608.885 165.469C608.198 165.192 608.76 164.965 610.135 164.965C611.51 164.965 612.073 165.192 611.385 165.469ZM602.864 166.411C602.532 166.743 601.669 166.779 600.948 166.49C600.15 166.171 600.387 165.934 601.552 165.886C602.606 165.843 603.196 166.079 602.864 166.411ZM595.864 167.411C595.532 167.743 594.669 167.779 593.948 167.49C593.15 167.171 593.387 166.934 594.552 166.886C595.606 166.843 596.196 167.079 595.864 167.411ZM668.135 167.092C668.135 167.248 665.548 169.836 662.385 172.842L656.635 178.307L662.101 172.557C667.179 167.215 668.135 166.35 668.135 167.092ZM588.864 168.411C588.532 168.743 587.669 168.779 586.948 168.49C586.15 168.171 586.387 167.934 587.552 167.886C588.606 167.843 589.196 168.079 588.864 168.411ZM582.864 169.411C582.532 169.743 581.669 169.779 580.948 169.49C580.15 169.171 580.387 168.934 581.552 168.886C582.606 168.843 583.196 169.079 582.864 169.411ZM576.864 170.411C576.532 170.743 575.669 170.779 574.948 170.49C574.15 170.171 574.387 169.934 575.552 169.886C576.606 169.843 577.196 170.079 576.864 170.411ZM556.864 174.411C556.532 174.743 555.669 174.779 554.948 174.49C554.15 174.171 554.387 173.934 555.552 173.886C556.606 173.843 557.196 174.079 556.864 174.411ZM652.135 174.186C652.135 174.393 651.347 175.181 650.385 175.936C648.799 177.179 648.764 177.143 650.007 175.557C651.314 173.891 652.135 173.363 652.135 174.186ZM543.864 177.411C543.532 177.743 542.669 177.779 541.948 177.49C541.15 177.171 541.387 176.934 542.552 176.886C543.606 176.843 544.196 177.079 543.864 177.411ZM649.853 184.886C650.956 184.935 651.146 185.161 650.351 185.48C648.659 186.16 646.118 183.992 646.198 181.936C646.241 180.834 646.554 181.034 647.166 182.557C647.664 183.794 648.873 184.843 649.853 184.886ZM1251.13 188.152C1251.13 188.342 1250.12 189.354 1248.88 190.402L1246.63 192.307L1248.54 190.057C1250.33 187.943 1251.13 187.352 1251.13 188.152ZM953.864 191.411C953.532 191.743 952.669 191.779 951.948 191.49C951.15 191.171 951.387 190.934 952.552 190.886C953.606 190.843 954.196 191.079 953.864 191.411ZM967.698 194.057L970.635 197.307L967.385 194.37C964.356 191.632 963.675 190.807 964.448 190.807C964.62 190.807 966.083 192.27 967.698 194.057ZM1246.48 194.35C1246.15 195.199 1245.67 195.679 1245.41 195.417C1245.15 195.155 1245.23 194.461 1245.59 193.875C1246.58 192.279 1247.16 192.588 1246.48 194.35ZM1271.63 196.797C1271.98 197.363 1271.58 197.53 1270.69 197.189C1268.95 196.524 1268.64 195.807 1270.08 195.807C1270.59 195.807 1271.29 196.253 1271.63 196.797ZM1286.26 197.557C1287.51 199.143 1287.47 199.179 1285.88 197.936C1284.22 196.629 1283.69 195.807 1284.51 195.807C1284.72 195.807 1285.51 196.594 1286.26 197.557ZM1725.26 197.557C1726.51 199.143 1726.47 199.179 1724.88 197.936C1723.22 196.629 1722.69 195.807 1723.51 195.807C1723.72 195.807 1724.51 196.594 1725.26 197.557ZM1252.8 200.057C1252.52 200.745 1252.29 200.182 1252.29 198.807C1252.29 197.432 1252.52 196.87 1252.8 197.557C1253.07 198.245 1253.07 199.37 1252.8 200.057ZM953.864 198.411C953.532 198.743 952.669 198.779 951.948 198.49C951.15 198.171 951.387 197.934 952.552 197.886C953.606 197.843 954.196 198.079 953.864 198.411ZM1729.26 200.557C1730.51 202.143 1730.47 202.179 1728.88 200.936C1727.22 199.629 1726.69 198.807 1727.51 198.807C1727.72 198.807 1728.51 199.594 1729.26 200.557ZM1293.63 203.807C1294.63 204.907 1295.22 205.807 1294.94 205.807C1294.67 205.807 1293.63 204.907 1292.63 203.807C1291.64 202.707 1291.05 201.807 1291.32 201.807C1291.6 201.807 1292.64 202.707 1293.63 203.807ZM1733.26 203.557C1734.51 205.143 1734.47 205.179 1732.88 203.936C1731.22 202.629 1730.69 201.807 1731.51 201.807C1731.72 201.807 1732.51 202.594 1733.26 203.557ZM1287.63 208.807C1290.34 211.557 1292.33 213.807 1292.06 213.807C1291.78 213.807 1289.34 211.557 1286.63 208.807C1283.93 206.057 1281.93 203.807 1282.21 203.807C1282.48 203.807 1284.93 206.057 1287.63 208.807ZM467.135 205.807C466.31 206.34 465.185 206.776 464.635 206.776C464.085 206.776 464.31 206.34 465.135 205.807C465.96 205.274 467.085 204.839 467.635 204.839C468.185 204.839 467.96 205.274 467.135 205.807ZM924.135 205.12C924.135 205.292 922.672 206.755 920.885 208.37L917.635 211.307L920.572 208.057C923.31 205.028 924.135 204.347 924.135 205.12ZM1738.26 207.557C1739.51 209.143 1739.47 209.179 1737.88 207.936C1736.22 206.629 1735.69 205.807 1736.51 205.807C1736.72 205.807 1737.51 206.594 1738.26 207.557ZM1298.26 209.557C1299.51 211.143 1299.47 211.179 1297.88 209.936C1296.22 208.629 1295.69 207.807 1296.51 207.807C1296.72 207.807 1297.51 208.594 1298.26 209.557ZM1744.63 212.807C1745.63 213.907 1746.22 214.807 1745.94 214.807C1745.67 214.807 1744.63 213.907 1743.63 212.807C1742.64 211.707 1742.05 210.807 1742.32 210.807C1742.6 210.807 1743.64 211.707 1744.63 212.807ZM917.135 213.186C917.135 213.393 916.348 214.181 915.385 214.936C913.799 216.179 913.764 216.143 915.007 214.557C916.314 212.891 917.135 212.363 917.135 213.186ZM1262.63 216.807C1263.63 217.907 1264.22 218.807 1263.94 218.807C1263.67 218.807 1262.63 217.907 1261.63 216.807C1260.64 215.707 1260.05 214.807 1260.32 214.807C1260.6 214.807 1261.64 215.707 1262.63 216.807ZM444.635 216.807C444.295 217.357 443.481 217.8 442.826 217.792C442.11 217.782 442.234 217.389 443.135 216.807C445.056 215.565 445.402 215.565 444.635 216.807ZM965.135 216.095C965.135 216.253 962.773 218.615 959.885 221.345L954.635 226.307L959.597 221.057C964.209 216.179 965.135 215.348 965.135 216.095ZM1754.63 221.807C1757.34 224.557 1759.33 226.807 1759.06 226.807C1758.78 226.807 1756.34 224.557 1753.63 221.807C1750.93 219.057 1748.93 216.807 1749.21 216.807C1749.48 216.807 1751.93 219.057 1754.63 221.807ZM952.135 218.152C952.135 218.342 951.122 219.354 949.885 220.402L947.635 222.307L949.54 220.057C951.33 217.943 952.135 217.352 952.135 218.152ZM912.48 220.35C912.154 221.199 911.673 221.679 911.411 221.417C911.149 221.155 911.231 220.461 911.594 219.875C912.58 218.279 913.156 218.588 912.48 220.35ZM1257.63 221.807C1258.63 222.907 1259.22 223.807 1258.94 223.807C1258.67 223.807 1257.63 222.907 1256.63 221.807C1255.64 220.707 1255.05 219.807 1255.32 219.807C1255.6 219.807 1256.64 220.707 1257.63 221.807ZM1269.63 223.807C1270.63 224.907 1271.22 225.807 1270.94 225.807C1270.67 225.807 1269.63 224.907 1268.63 223.807C1267.64 222.707 1267.05 221.807 1267.32 221.807C1267.6 221.807 1268.64 222.707 1269.63 223.807ZM1297.82 225.995C1297.5 226.792 1297.26 226.556 1297.21 225.391C1297.17 224.337 1297.41 223.746 1297.74 224.078C1298.07 224.41 1298.11 225.273 1297.82 225.995ZM909.824 230.557C909.573 231.52 909.367 230.732 909.367 228.807C909.367 226.882 909.573 226.094 909.824 227.057C910.076 228.02 910.076 229.594 909.824 230.557ZM1265.13 229.307C1266.43 230.682 1267.26 231.807 1266.98 231.807C1266.71 231.807 1265.43 230.682 1264.13 229.307C1262.84 227.932 1262.01 226.807 1262.29 226.807C1262.56 226.807 1263.84 227.932 1265.13 229.307ZM1767.63 234.807C1769.78 237.007 1771.32 238.807 1771.04 238.807C1770.77 238.807 1768.78 237.007 1766.63 234.807C1764.49 232.607 1762.95 230.807 1763.23 230.807C1763.5 230.807 1765.49 232.607 1767.63 234.807ZM1289.86 233.411C1289.53 233.743 1288.67 233.779 1287.95 233.49C1287.15 233.171 1287.39 232.934 1288.55 232.886C1289.61 232.843 1290.2 233.079 1289.86 233.411ZM1293.86 233.411C1293.53 233.743 1292.67 233.779 1291.95 233.49C1291.15 233.171 1291.39 232.934 1292.55 232.886C1293.61 232.843 1294.2 233.079 1293.86 233.411ZM1303.13 236.186C1303.13 236.393 1302.35 237.181 1301.38 237.936C1299.8 239.179 1299.76 239.143 1301.01 237.557C1302.31 235.891 1303.13 235.363 1303.13 236.186ZM924.404 240.464C923.727 240.738 922.377 240.754 921.404 240.5C920.431 240.246 920.985 240.022 922.635 240.002C924.285 239.982 925.081 240.19 924.404 240.464ZM1287.86 240.411C1287.53 240.743 1286.67 240.779 1285.95 240.49C1285.15 240.171 1285.39 239.934 1286.55 239.886C1287.61 239.843 1288.2 240.079 1287.86 240.411ZM1776.26 244.557C1777.51 246.143 1777.47 246.179 1775.88 244.936C1774.22 243.629 1773.69 242.807 1774.51 242.807C1774.72 242.807 1775.51 243.594 1776.26 244.557ZM1780.63 249.807C1781.63 250.907 1782.22 251.807 1781.94 251.807C1781.67 251.807 1780.63 250.907 1779.63 249.807C1778.64 248.707 1778.05 247.807 1778.32 247.807C1778.6 247.807 1779.64 248.707 1780.63 249.807ZM386.135 252.186C386.135 252.393 385.347 253.181 384.385 253.936C382.799 255.179 382.764 255.143 384.007 253.557C385.314 251.891 386.135 251.363 386.135 252.186ZM1784.26 254.557C1785.51 256.143 1785.47 256.179 1783.88 254.936C1782.22 253.629 1781.69 252.807 1782.51 252.807C1782.72 252.807 1783.51 253.594 1784.26 254.557ZM382.135 255.186C382.135 255.393 381.347 256.181 380.385 256.936C378.799 258.179 378.764 258.143 380.007 256.557C381.314 254.891 382.135 254.363 382.135 255.186ZM1787.26 258.557C1788.51 260.143 1788.47 260.179 1786.88 258.936C1785.22 257.629 1784.69 256.807 1785.51 256.807C1785.72 256.807 1786.51 257.594 1787.26 258.557ZM378.135 258.186C378.135 258.393 377.347 259.181 376.385 259.936C374.799 261.179 374.764 261.143 376.007 259.557C377.314 257.891 378.135 257.363 378.135 258.186ZM373.135 262.186C373.135 262.393 372.347 263.181 371.385 263.936C369.799 265.179 369.764 265.143 371.007 263.557C372.314 261.891 373.135 261.363 373.135 262.186ZM368.135 266.186C368.135 266.393 367.347 267.181 366.385 267.936C364.799 269.179 364.764 269.143 366.007 267.557C367.314 265.891 368.135 265.363 368.135 266.186ZM362.135 271.134C362.135 271.313 360.898 272.55 359.385 273.884L356.635 276.307L359.059 273.557C361.325 270.987 362.135 270.349 362.135 271.134ZM1676.13 279.186C1676.13 279.393 1675.35 280.181 1674.38 280.936C1672.8 282.179 1672.76 282.143 1674.01 280.557C1675.31 278.891 1676.13 278.363 1676.13 279.186ZM345.135 287.307C341.038 291.432 337.46 294.807 337.185 294.807C336.91 294.807 340.038 291.432 344.135 287.307C348.232 283.182 351.81 279.807 352.085 279.807C352.36 279.807 349.232 283.182 345.135 287.307ZM1672.82 285.995C1672.5 286.792 1672.26 286.556 1672.21 285.391C1672.17 284.337 1672.41 283.746 1672.74 284.078C1673.07 284.41 1673.11 285.273 1672.82 285.995ZM1691.38 291.217C1730.91 309.561 1761.94 336.109 1767.31 356.163C1769.24 363.38 1767.75 365.252 1755.13 371.533C1749.36 374.407 1741.58 377.971 1737.85 379.454L1731.07 382.15L1728.35 380.136C1723.72 376.708 1717.53 367.005 1708.67 349.307C1703.99 339.957 1697.68 327.807 1694.65 322.307C1687.31 308.978 1678.82 286.807 1681.06 286.807C1681.52 286.807 1686.16 288.792 1691.38 291.217ZM1806.1 290.307C1806.1 290.857 1805.67 290.632 1805.13 289.807C1804.6 288.982 1804.17 287.857 1804.17 287.307C1804.17 286.757 1804.6 286.982 1805.13 287.807C1805.67 288.632 1806.1 289.757 1806.1 290.307ZM335.135 298.186C335.135 298.393 334.347 299.181 333.385 299.936C331.799 301.179 331.764 301.143 333.007 299.557C334.314 297.891 335.135 297.363 335.135 298.186ZM1744.63 314.807C1745.63 315.907 1746.22 316.807 1745.94 316.807C1745.67 316.807 1744.63 315.907 1743.63 314.807C1742.64 313.707 1742.05 312.807 1742.32 312.807C1742.6 312.807 1743.64 313.707 1744.63 314.807ZM1755.63 324.807C1759.45 328.657 1762.36 331.807 1762.08 331.807C1761.81 331.807 1758.45 328.657 1754.63 324.807C1750.81 320.957 1747.91 317.807 1748.19 317.807C1748.46 317.807 1751.81 320.957 1755.63 324.807ZM1816.82 319.995C1816.5 320.792 1816.26 320.556 1816.21 319.391C1816.17 318.337 1816.41 317.746 1816.74 318.078C1817.07 318.41 1817.11 319.273 1816.82 319.995ZM1817.82 323.995C1817.5 324.792 1817.26 324.556 1817.21 323.391C1817.17 322.337 1817.41 321.746 1817.74 322.078C1818.07 322.41 1818.11 323.273 1817.82 323.995ZM1819.82 333.995C1819.5 334.792 1819.26 334.556 1819.21 333.391C1819.17 332.337 1819.41 331.746 1819.74 332.078C1820.07 332.41 1820.11 333.273 1819.82 333.995ZM1765.26 335.557C1766.51 337.143 1766.47 337.179 1764.88 335.936C1763.22 334.629 1762.69 333.807 1763.51 333.807C1763.72 333.807 1764.51 334.594 1765.26 335.557ZM1820.83 342.538C1820.57 343.511 1820.35 342.957 1820.33 341.307C1820.31 339.657 1820.52 338.861 1820.79 339.538C1821.06 340.215 1821.08 341.565 1820.83 342.538ZM1697.68 342.901C1698.56 344.602 1699.1 346.17 1698.89 346.387C1698.67 346.604 1697.74 345.214 1696.83 343.295C1694.77 338.983 1695.49 338.653 1697.68 342.901ZM313.818 346.995C313.499 347.792 313.262 347.556 313.214 346.391C313.171 345.337 313.407 344.746 313.739 345.078C314.071 345.41 314.107 346.273 313.818 346.995ZM312.818 353.995C312.499 354.792 312.262 354.556 312.214 353.391C312.171 352.337 312.407 351.746 312.739 352.078C313.071 352.41 313.107 353.273 312.818 353.995ZM1314.38 353.469C1313.7 353.747 1312.57 353.747 1311.88 353.469C1311.2 353.192 1311.76 352.965 1313.13 352.965C1314.51 352.965 1315.07 353.192 1314.38 353.469ZM1333.4 353.464C1332.73 353.738 1331.38 353.754 1330.4 353.5C1329.43 353.246 1329.98 353.022 1331.63 353.002C1333.28 352.982 1334.08 353.19 1333.4 353.464ZM1343.38 354.469C1342.7 354.747 1341.57 354.747 1340.88 354.469C1340.2 354.192 1340.76 353.965 1342.13 353.965C1343.51 353.965 1344.07 354.192 1343.38 354.469ZM1350.86 355.411C1350.53 355.743 1349.67 355.779 1348.95 355.49C1348.15 355.171 1348.39 354.934 1349.55 354.886C1350.61 354.843 1351.2 355.079 1350.86 355.411ZM911.385 356.531C909.598 356.753 906.672 356.753 904.885 356.531C903.098 356.31 904.56 356.127 908.135 356.127C911.71 356.127 913.172 356.31 911.385 356.531ZM924.897 356.495C923.941 356.745 922.141 356.754 920.897 356.515C919.653 356.276 920.435 356.07 922.635 356.059C924.835 356.048 925.853 356.245 924.897 356.495ZM1357.86 356.411C1357.53 356.743 1356.67 356.779 1355.95 356.49C1355.15 356.171 1355.39 355.934 1356.55 355.886C1357.61 355.843 1358.2 356.079 1357.86 356.411ZM900.404 357.464C899.727 357.738 898.377 357.754 897.404 357.5C896.431 357.246 896.985 357.022 898.635 357.002C900.285 356.982 901.081 357.19 900.404 357.464ZM934.135 357.807C936.145 358.451 936.243 358.613 934.635 358.637C933.535 358.653 931.735 358.28 930.635 357.807C928.087 356.712 930.716 356.712 934.135 357.807ZM1362.86 357.411C1362.53 357.743 1361.67 357.779 1360.95 357.49C1360.15 357.171 1360.39 356.934 1361.55 356.886C1362.61 356.843 1363.2 357.079 1362.86 357.411ZM893.864 358.411C893.532 358.743 892.669 358.779 891.948 358.49C891.15 358.171 891.387 357.934 892.552 357.886C893.606 357.843 894.196 358.079 893.864 358.411ZM1367.86 358.411C1367.53 358.743 1366.67 358.779 1365.95 358.49C1365.15 358.171 1365.39 357.934 1366.55 357.886C1367.61 357.843 1368.2 358.079 1367.86 358.411ZM1775.83 361.538C1775.57 362.511 1775.35 361.957 1775.33 360.307C1775.31 358.657 1775.52 357.861 1775.79 358.538C1776.06 359.215 1776.08 360.565 1775.83 361.538ZM888.135 359.807C884.716 360.902 882.087 360.902 884.635 359.807C885.735 359.334 887.535 358.962 888.635 358.978C890.243 359.002 890.145 359.163 888.135 359.807ZM939.864 359.411C939.532 359.743 938.669 359.779 937.948 359.49C937.15 359.171 937.387 358.934 938.552 358.886C939.606 358.843 940.196 359.079 939.864 359.411ZM947.135 361.976C948.177 362.62 947.872 362.699 946.135 362.234C944.76 361.866 942.96 361.149 942.135 360.639C941.093 359.995 941.398 359.915 943.135 360.38C944.51 360.748 946.31 361.466 947.135 361.976ZM1376.86 360.411C1376.53 360.743 1375.67 360.779 1374.95 360.49C1374.15 360.171 1374.39 359.934 1375.55 359.886C1376.61 359.843 1377.2 360.079 1376.86 360.411ZM1380.86 361.411C1380.53 361.743 1379.67 361.779 1378.95 361.49C1378.15 361.171 1378.39 360.934 1379.55 360.886C1380.61 360.843 1381.2 361.079 1380.86 361.411ZM1820.8 364.057C1820.52 364.745 1820.29 364.182 1820.29 362.807C1820.29 361.432 1820.52 360.87 1820.8 361.557C1821.07 362.245 1821.07 363.37 1820.8 364.057ZM311.828 365.538C311.574 366.511 311.35 365.957 311.33 364.307C311.31 362.657 311.517 361.861 311.791 362.538C312.065 363.215 312.082 364.565 311.828 365.538ZM878.135 362.807C877.31 363.34 875.96 363.752 875.135 363.721C874.146 363.685 874.316 363.374 875.635 362.807C878.384 361.626 879.963 361.626 878.135 362.807ZM955.694 365.363C957.524 366.83 957.492 366.85 955.135 365.728C952.074 364.27 951.507 363.807 952.777 363.807C953.314 363.807 954.626 364.508 955.694 365.363ZM862.24 369.356C857.073 371.804 852.573 373.77 852.24 373.724C851.309 373.595 869.498 364.849 870.635 364.879C871.185 364.894 867.407 366.908 862.24 369.356ZM1692.55 365.663C1692.84 366.133 1691.97 366.307 1690.61 366.048C1688.72 365.686 1687.94 366.125 1687.21 367.943C1686.66 369.318 1686.23 369.658 1686.2 368.757C1686.07 365.724 1691.08 363.285 1692.55 365.663ZM964.019 374.249C963.906 376.258 963.891 376.258 963.422 374.307C963.157 373.207 962.535 371.88 962.038 371.358C961.541 370.835 961.149 369.935 961.167 369.358C961.184 368.781 961.859 369.182 962.667 370.249C963.474 371.317 964.083 373.117 964.019 374.249ZM1819.82 370.995C1819.5 371.792 1819.26 371.556 1819.21 370.391C1819.17 369.337 1819.41 368.746 1819.74 369.078C1820.07 369.41 1820.11 370.273 1819.82 370.995ZM423.385 375.54C421.048 375.751 417.222 375.751 414.885 375.54C412.548 375.33 414.46 375.156 419.135 375.156C423.81 375.156 425.722 375.33 423.385 375.54ZM849.135 375.291C849.135 375.557 846.885 376.913 844.135 378.307C841.385 379.701 839.135 380.618 839.135 380.344C839.135 380.07 841.273 378.734 843.885 377.374C849.225 374.594 849.135 374.63 849.135 375.291ZM1256.13 375.12C1256.13 375.292 1254.67 376.755 1252.88 378.37L1249.63 381.307L1252.57 378.057C1255.31 375.028 1256.13 374.347 1256.13 375.12ZM399.385 376.469C398.698 376.747 397.573 376.747 396.885 376.469C396.198 376.192 396.76 375.965 398.135 375.965C399.51 375.965 400.073 376.192 399.385 376.469ZM436.864 376.411C436.532 376.743 435.669 376.779 434.948 376.49C434.15 376.171 434.387 375.934 435.552 375.886C436.606 375.843 437.196 376.079 436.864 376.411ZM391.864 377.411C391.532 377.743 390.669 377.779 389.948 377.49C389.15 377.171 389.387 376.934 390.552 376.886C391.606 376.843 392.196 377.079 391.864 377.411ZM962.135 378.307C961.45 379.132 960.409 379.807 959.821 379.807C959.234 379.807 959.626 379.146 960.694 378.339C963.202 376.441 963.692 376.431 962.135 378.307ZM954.754 380.543L950.874 380.943L954.254 383.986C957.785 387.164 955.682 386.002 950.808 382.082L947.982 379.807L953.308 379.975C957.841 380.118 958.056 380.203 954.754 380.543ZM1721.13 383.307C1723 385.232 1724.3 386.807 1724.03 386.807C1723.75 386.807 1722 385.232 1720.13 383.307C1718.27 381.382 1716.97 379.807 1717.24 379.807C1717.52 379.807 1719.27 381.382 1721.13 383.307ZM378.052 381.172C377.823 381.372 376.51 382.073 375.135 382.728C372.778 383.85 372.746 383.83 374.576 382.363C376.169 381.087 379.424 379.971 378.052 381.172ZM1436.18 383.333C1437.81 384.172 1439.13 385.084 1439.13 385.359C1439.13 385.807 1433.25 383.102 1432.22 382.181C1431.21 381.276 1433.49 381.938 1436.18 383.333ZM1750.13 382.807C1749.31 383.34 1748.18 383.776 1747.63 383.776C1747.08 383.776 1747.31 383.34 1748.13 382.807C1748.96 382.274 1750.08 381.839 1750.63 381.839C1751.18 381.839 1750.96 382.274 1750.13 382.807ZM435.553 383.869C442.974 385.164 449.795 388.471 452.492 392.083C453.79 393.821 454.656 396.856 454.928 400.62C455.35 406.45 454.509 410.959 439.978 480.807C435.729 501.236 432.154 514.033 429.794 517.259C428.443 519.107 428.199 519.045 422.827 515.479C415.533 510.637 405.124 498.497 394.06 481.927C372.729 449.98 360.087 414.413 365.482 401.526C368.067 395.352 377.676 388.355 387.029 385.837C397.742 382.952 424.156 381.881 435.553 383.869ZM457.135 385.307C458.427 386.682 459.259 387.807 458.984 387.807C458.709 387.807 457.427 386.682 456.135 385.307C454.843 383.932 454.011 382.807 454.286 382.807C454.561 382.807 455.843 383.932 457.135 385.307ZM832.694 384.339C831.626 385.146 830.276 385.791 829.694 385.772C829.111 385.752 829.76 385.093 831.135 384.307C834.374 382.455 835.163 382.471 832.694 384.339ZM828.135 386.291C828.135 386.557 825.885 387.913 823.135 389.307C820.385 390.701 818.135 391.618 818.135 391.344C818.135 391.07 820.273 389.734 822.885 388.374C828.225 385.594 828.135 385.63 828.135 386.291ZM1246.8 390.057C1246.52 390.745 1246.29 390.182 1246.29 388.807C1246.29 387.432 1246.52 386.87 1246.8 387.557C1247.07 388.245 1247.07 389.37 1246.8 390.057ZM460.942 391.333C460.634 391.641 460.075 391.086 459.699 390.1C459.157 388.675 459.271 388.561 460.259 389.541C460.943 390.22 461.25 391.026 460.942 391.333ZM363.135 392.186C363.135 392.393 362.347 393.181 361.385 393.936C359.799 395.179 359.764 395.143 361.007 393.557C362.314 391.891 363.135 391.363 363.135 392.186ZM962.821 397.505C963.265 400.812 962.915 401.917 960.645 404.376L957.94 407.307L960.037 404.422C962.37 401.214 962.66 398.328 961.072 394.122C960.276 392.013 960.296 391.591 961.151 392.437C961.779 393.058 962.531 395.338 962.821 397.505ZM1247.83 395.538C1247.57 396.511 1247.35 395.957 1247.33 394.307C1247.31 392.657 1247.52 391.861 1247.79 392.538C1248.06 393.215 1248.08 394.565 1247.83 395.538ZM815.135 393.291C815.135 393.557 812.885 394.913 810.135 396.307C807.385 397.701 805.135 398.618 805.135 398.344C805.135 398.07 807.273 396.734 809.885 395.374C815.225 392.594 815.135 392.63 815.135 393.291ZM462.851 404.557C462.622 406.07 462.435 404.832 462.435 401.807C462.435 398.782 462.622 397.544 462.851 399.057C463.08 400.57 463.08 403.044 462.851 404.557ZM311.797 401.057C311.52 401.745 311.293 401.182 311.293 399.807C311.293 398.432 311.52 397.87 311.797 398.557C312.075 399.245 312.075 400.37 311.797 401.057ZM1336.86 399.411C1336.53 399.743 1335.67 399.779 1334.95 399.49C1334.15 399.171 1334.39 398.934 1335.55 398.886C1336.61 398.843 1337.2 399.079 1336.86 399.411ZM1361.38 399.469C1360.7 399.747 1359.57 399.747 1358.88 399.469C1358.2 399.192 1358.76 398.965 1360.13 398.965C1361.51 398.965 1362.07 399.192 1361.38 399.469ZM802.135 400.287C802.135 400.55 800.335 401.685 798.135 402.807C795.935 403.929 794.135 404.624 794.135 404.351C794.135 404.078 795.823 402.964 797.885 401.875C802.128 399.635 802.135 399.633 802.135 400.287ZM1329.86 400.411C1329.53 400.743 1328.67 400.779 1327.95 400.49C1327.15 400.171 1327.39 399.934 1328.55 399.886C1329.61 399.843 1330.2 400.079 1329.86 400.411ZM1368.86 400.411C1368.53 400.743 1367.67 400.779 1366.95 400.49C1366.15 400.171 1366.39 399.934 1367.55 399.886C1368.61 399.843 1369.2 400.079 1368.86 400.411ZM1374.86 401.411C1374.53 401.743 1373.67 401.779 1372.95 401.49C1372.15 401.171 1372.39 400.934 1373.55 400.886C1374.61 400.843 1375.2 401.079 1374.86 401.411ZM1274.13 402.749C1274.13 403.267 1273.76 403.921 1273.3 404.204C1272.84 404.487 1272.47 404.065 1272.47 403.264C1272.47 402.463 1272.84 401.807 1273.3 401.807C1273.76 401.807 1274.13 402.231 1274.13 402.749ZM1257.86 403.411C1257.53 403.743 1256.67 403.779 1255.95 403.49C1255.15 403.171 1255.39 402.934 1256.55 402.886C1257.61 402.843 1258.2 403.079 1257.86 403.411ZM1267.38 403.469C1266.7 403.747 1265.57 403.747 1264.88 403.469C1264.2 403.192 1264.76 402.965 1266.13 402.965C1267.51 402.965 1268.07 403.192 1267.38 403.469ZM1383.86 403.411C1383.53 403.743 1382.67 403.779 1381.95 403.49C1381.15 403.171 1381.39 402.934 1382.55 402.886C1383.61 402.843 1384.2 403.079 1383.86 403.411ZM1387.86 404.411C1387.53 404.743 1386.67 404.779 1385.95 404.49C1385.15 404.171 1385.39 403.934 1386.55 403.886C1387.61 403.843 1388.2 404.079 1387.86 404.411ZM356.853 411.543C356.623 413.063 356.429 412.057 356.421 409.307C356.414 406.557 356.602 405.313 356.839 406.543C357.076 407.773 357.082 410.023 356.853 411.543ZM791.135 406.291C791.135 406.557 788.885 407.913 786.135 409.307C783.385 410.701 781.135 411.618 781.135 411.344C781.135 411.07 783.273 409.734 785.885 408.374C791.225 405.594 791.135 405.63 791.135 406.291ZM312.797 410.057C312.52 410.745 312.293 410.182 312.293 408.807C312.293 407.432 312.52 406.87 312.797 407.557C313.075 408.245 313.075 409.37 312.797 410.057ZM957.135 407.225C957.135 407.847 950.541 411.808 949.517 411.802C949.032 411.799 950.435 410.688 952.635 409.333C956.937 406.683 957.135 406.591 957.135 407.225ZM1270.83 411.538C1270.57 412.511 1270.35 411.957 1270.33 410.307C1270.31 408.657 1270.52 407.861 1270.79 408.538C1271.06 409.215 1271.08 410.565 1270.83 411.538ZM1803.13 410.186C1803.13 410.393 1802.35 411.181 1801.38 411.936C1799.8 413.179 1799.76 413.143 1801.01 411.557C1802.31 409.891 1803.13 409.363 1803.13 410.186ZM901.385 412.514C900.148 412.752 898.122 412.752 896.885 412.514C895.648 412.275 896.66 412.079 899.135 412.079C901.61 412.079 902.622 412.275 901.385 412.514ZM921.897 412.495C920.941 412.745 919.141 412.754 917.897 412.515C916.653 412.276 917.435 412.07 919.635 412.059C921.835 412.048 922.853 412.245 921.897 412.495ZM776.576 414.276C775.509 415.084 774.211 415.759 773.694 415.776C773.176 415.794 773.626 415.146 774.694 414.339C775.761 413.531 777.059 412.856 777.576 412.839C778.094 412.821 777.644 413.469 776.576 414.276ZM890.897 413.495C889.941 413.745 888.141 413.754 886.897 413.515C885.653 413.276 886.435 413.07 888.635 413.059C890.835 413.048 891.853 413.245 890.897 413.495ZM940.052 414.444C940.818 415.112 931.674 414.581 928.635 413.781C926.815 413.302 928.389 413.205 932.635 413.536C936.485 413.835 939.823 414.244 940.052 414.444ZM944.385 413.469C943.698 413.747 942.573 413.747 941.885 413.469C941.198 413.192 941.76 412.965 943.135 412.965C944.51 412.965 945.073 413.192 944.385 413.469ZM1500.13 415.377C1500.13 415.652 1499.23 415.396 1498.13 414.807C1497.03 414.218 1496.13 413.513 1496.13 413.238C1496.13 412.963 1497.03 413.218 1498.13 413.807C1499.23 414.396 1500.13 415.102 1500.13 415.377ZM313.818 415.995C313.499 416.792 313.262 416.556 313.214 415.391C313.171 414.337 313.407 413.746 313.739 414.078C314.071 414.41 314.107 415.273 313.818 415.995ZM878.635 414.865C873.569 415.913 869.476 415.865 873.635 414.807C875.285 414.387 877.985 414.043 879.635 414.041C882.157 414.039 881.998 414.17 878.635 414.865ZM1799.13 415.152C1799.13 415.342 1798.12 416.354 1796.88 417.402L1794.63 419.307L1796.54 417.057C1798.33 414.943 1799.13 414.352 1799.13 415.152ZM870.052 416.174C869.823 416.376 867.835 416.816 865.635 417.151C862.847 417.575 862.241 417.485 863.635 416.854C865.555 415.984 870.911 415.417 870.052 416.174ZM1279.88 416.496C1278.92 416.748 1277.35 416.748 1276.38 416.496C1275.42 416.245 1276.21 416.04 1278.13 416.04C1280.06 416.04 1280.85 416.245 1279.88 416.496ZM357.818 419.995C357.499 420.792 357.262 420.556 357.214 419.391C357.171 418.337 357.407 417.746 357.739 418.078C358.071 418.41 358.107 419.273 357.818 419.995ZM860.864 418.411C860.532 418.743 859.669 418.779 858.948 418.49C858.15 418.171 858.387 417.934 859.552 417.886C860.606 417.843 861.196 418.079 860.864 418.411ZM1507.04 421.239C1506.77 421.502 1505.96 420.724 1505.23 419.512C1503.97 417.405 1503.99 417.384 1505.71 419.033C1506.7 419.983 1507.3 420.976 1507.04 421.239ZM314.818 420.995C314.499 421.792 314.262 421.556 314.214 420.391C314.171 419.337 314.407 418.746 314.739 419.078C315.071 419.41 315.107 420.273 314.818 420.995ZM766.052 419.181C765.031 420.094 759.135 422.808 759.135 422.365C759.135 421.743 764.32 418.902 765.552 418.848C766.056 418.826 766.281 418.976 766.052 419.181ZM855.635 419.807C854.535 420.28 852.96 420.667 852.135 420.667C851.19 420.667 851.374 420.349 852.635 419.807C853.735 419.334 855.31 418.948 856.135 418.948C857.08 418.948 856.896 419.265 855.635 419.807ZM843.135 423.717C842.31 424.184 840.51 424.841 839.135 425.177C837.051 425.686 837.134 425.548 839.635 424.343C842.84 422.8 845.643 422.298 843.135 423.717ZM754.135 425.287C754.135 425.55 752.335 426.685 750.135 427.807C747.935 428.929 746.135 429.624 746.135 429.351C746.135 429.078 747.823 427.964 749.885 426.875C754.128 424.635 754.135 424.633 754.135 425.287ZM1493.55 426.448C1494.08 427.821 1493.93 427.884 1492.66 426.827C1490.92 425.387 1490.74 424.807 1492.03 424.807C1492.52 424.807 1493.2 425.546 1493.55 426.448ZM458.818 427.995C458.499 428.792 458.262 428.556 458.214 427.391C458.171 426.337 458.407 425.746 458.739 426.078C459.071 426.41 459.107 427.273 458.818 427.995ZM831.135 428.807C829.21 429.861 827.185 430.724 826.635 430.724C826.085 430.724 827.21 429.861 829.135 428.807C831.06 427.753 833.085 426.891 833.635 426.891C834.185 426.891 833.06 427.753 831.135 428.807ZM1785.13 429.152C1785.13 429.342 1784.12 430.354 1782.88 431.402L1780.63 433.307L1782.54 431.057C1784.33 428.943 1785.13 428.352 1785.13 429.152ZM1500.26 431.557C1501.51 433.143 1501.47 433.179 1499.88 431.936C1498.22 430.629 1497.69 429.807 1498.51 429.807C1498.72 429.807 1499.51 430.594 1500.26 431.557ZM738.144 435.49C735.279 438.066 732.559 441.103 732.099 442.24C731.59 443.498 731.249 443.72 731.23 442.807C731.213 441.982 731.747 440.632 732.417 439.807C734.159 437.662 742.026 430.807 742.746 430.807C743.079 430.807 741.008 432.915 738.144 435.49ZM825.135 431.299C825.135 431.569 820.185 434.273 814.135 437.307C808.085 440.341 803.135 442.599 803.135 442.324C803.135 441.943 823.697 431.103 824.885 430.859C825.023 430.83 825.135 431.028 825.135 431.299ZM1503.93 437.452C1503.64 438.827 1503.39 438.574 1502.96 436.481C1502.59 434.656 1502.73 433.999 1503.35 434.625C1503.89 435.158 1504.15 436.431 1503.93 437.452ZM456.818 436.995C456.499 437.792 456.262 437.556 456.214 436.391C456.171 435.337 456.407 434.746 456.739 435.078C457.071 435.41 457.107 436.273 456.818 436.995ZM1709.82 438.995C1709.5 439.792 1709.26 439.556 1709.21 438.391C1709.17 437.337 1709.41 436.746 1709.74 437.078C1710.07 437.41 1710.11 438.273 1709.82 438.995ZM455.818 441.995C455.499 442.792 455.262 442.556 455.214 441.391C455.171 440.337 455.407 439.746 455.739 440.078C456.071 440.41 456.107 441.273 455.818 441.995ZM1188.13 440.134C1188.13 440.313 1186.9 441.55 1185.38 442.884L1182.63 445.307L1185.06 442.557C1187.32 439.987 1188.13 439.349 1188.13 440.134ZM1193.13 443.307C1193.13 444.617 1192.8 445.898 1192.38 446.152C1191.97 446.407 1191.63 445.127 1191.63 443.307C1191.63 441.487 1191.97 440.208 1192.38 440.463C1192.8 440.717 1193.13 441.997 1193.13 443.307ZM1500.4 441.464C1499.73 441.738 1498.38 441.754 1497.4 441.5C1496.43 441.246 1496.98 441.022 1498.63 441.002C1500.28 440.982 1501.08 441.19 1500.4 441.464ZM1061.13 442.191C1061.13 442.402 1060.02 442.787 1058.66 443.047C1057.31 443.307 1056.43 443.133 1056.72 442.663C1057.24 441.834 1061.13 441.418 1061.13 442.191ZM800.052 444.181C799.031 445.094 793.135 447.808 793.135 447.365C793.135 446.743 798.32 443.902 799.552 443.848C800.056 443.826 800.281 443.976 800.052 444.181ZM454.818 446.995C454.499 447.792 454.262 447.556 454.214 446.391C454.171 445.337 454.407 444.746 454.739 445.078C455.071 445.41 455.107 446.273 454.818 446.995ZM761.135 445.567C761.135 445.985 760.203 446.909 759.065 447.62C757.926 448.331 756.369 450.351 755.604 452.109C754.839 453.868 754.196 454.593 754.174 453.719C754.153 452.845 755.372 450.499 756.885 448.505C759.508 445.048 761.135 443.923 761.135 445.567ZM755.885 446.496C754.923 446.748 753.347 446.748 752.385 446.496C751.423 446.245 752.21 446.04 754.135 446.04C756.06 446.04 756.847 446.245 755.885 446.496ZM1711.82 447.995C1711.5 448.792 1711.26 448.556 1711.21 447.391C1711.17 446.337 1711.41 445.746 1711.74 446.078C1712.07 446.41 1712.11 447.273 1711.82 447.995ZM368.104 450.307C368.104 450.857 367.668 450.632 367.135 449.807C366.602 448.982 366.166 447.857 366.166 447.307C366.166 446.757 366.602 446.982 367.135 447.807C367.668 448.632 368.104 449.757 368.104 450.307ZM746.885 447.536C744.823 447.752 741.448 447.752 739.385 447.536C737.323 447.321 739.01 447.144 743.135 447.144C747.26 447.144 748.948 447.321 746.885 447.536ZM1058.26 448.557C1059.51 450.143 1059.47 450.179 1057.88 448.936C1056.22 447.629 1055.69 446.807 1056.51 446.807C1056.72 446.807 1057.51 447.594 1058.26 448.557ZM1191.13 448.186C1191.13 448.393 1190.35 449.181 1189.38 449.936C1187.8 451.179 1187.76 451.143 1189.01 449.557C1190.31 447.891 1191.13 447.363 1191.13 448.186ZM1719.82 449.995C1719.5 450.792 1719.26 450.556 1719.21 449.391C1719.17 448.337 1719.41 447.746 1719.74 448.078C1720.07 448.41 1720.11 449.273 1719.82 449.995ZM787.135 450.807C785.21 451.861 783.185 452.724 782.635 452.724C782.085 452.724 783.21 451.861 785.135 450.807C787.06 449.753 789.085 448.891 789.635 448.891C790.185 448.891 789.06 449.753 787.135 450.807ZM453.818 451.995C453.499 452.792 453.262 452.556 453.214 451.391C453.171 450.337 453.407 449.746 453.739 450.078C454.071 450.41 454.107 451.273 453.818 451.995ZM1064.26 452.557C1065.51 454.143 1065.47 454.179 1063.88 452.936C1062.22 451.629 1061.69 450.807 1062.51 450.807C1062.72 450.807 1063.51 451.594 1064.26 452.557ZM1712.82 452.995C1712.5 453.792 1712.26 453.556 1712.21 452.391C1712.17 451.337 1712.41 450.746 1712.74 451.078C1713.07 451.41 1713.11 452.273 1712.82 452.995ZM1734.38 452.469C1733.7 452.747 1732.57 452.747 1731.88 452.469C1731.2 452.192 1731.76 451.965 1733.13 451.965C1734.51 451.965 1735.07 452.192 1734.38 452.469ZM1726.38 453.469C1725.7 453.747 1724.57 453.747 1723.88 453.469C1723.2 453.192 1723.76 452.965 1725.13 452.965C1726.51 452.965 1727.07 453.192 1726.38 453.469ZM776.635 455.344C774.985 456.1 772.96 456.704 772.135 456.687C771.31 456.67 772.21 456.048 774.135 455.307C778.701 453.549 780.497 453.576 776.635 455.344ZM452.818 456.995C452.499 457.792 452.262 457.556 452.214 456.391C452.171 455.337 452.407 454.746 452.739 455.078C453.071 455.41 453.107 456.273 452.818 456.995ZM1069.26 456.557C1070.51 458.143 1070.47 458.179 1068.88 456.936C1067.22 455.629 1066.69 454.807 1067.51 454.807C1067.72 454.807 1068.51 455.594 1069.26 456.557ZM1183.13 457.075C1183.13 457.222 1178.3 462.06 1172.38 467.825L1161.63 478.307L1172.12 467.557C1181.85 457.572 1183.13 456.353 1183.13 457.075ZM764.385 458.514C763.148 458.752 761.122 458.752 759.885 458.514C758.648 458.275 759.66 458.079 762.135 458.079C764.61 458.079 765.622 458.275 764.385 458.514ZM1108.86 458.411C1108.53 458.743 1107.67 458.779 1106.95 458.49C1106.15 458.171 1106.39 457.934 1107.55 457.886C1108.61 457.843 1109.2 458.079 1108.86 458.411ZM1145.86 458.411C1145.53 458.743 1144.67 458.779 1143.95 458.49C1143.15 458.171 1143.39 457.934 1144.55 457.886C1145.61 457.843 1146.2 458.079 1145.86 458.411ZM1076.63 462.807C1078.78 465.007 1080.32 466.807 1080.04 466.807C1079.77 466.807 1077.78 465.007 1075.63 462.807C1073.49 460.607 1071.95 458.807 1072.23 458.807C1072.5 458.807 1074.49 460.607 1076.63 462.807ZM1116.38 459.469C1115.7 459.747 1114.57 459.747 1113.88 459.469C1113.2 459.192 1113.76 458.965 1115.13 458.965C1116.51 458.965 1117.07 459.192 1116.38 459.469ZM1138.4 459.464C1137.73 459.738 1136.38 459.754 1135.4 459.5C1134.43 459.246 1134.98 459.022 1136.63 459.002C1138.28 458.982 1139.08 459.19 1138.4 459.464ZM1161.5 468.088C1150.41 479.694 1142.95 489.589 1132.6 506.394L1124.5 519.554L1122.08 514.931C1118.53 508.156 1093.51 471.176 1088.34 465.057C1085.89 462.169 1084.06 459.813 1084.26 459.82C1084.47 459.827 1087.52 460.738 1091.04 461.842C1112.63 468.608 1142.63 468.427 1162.63 461.411C1166.48 460.061 1169.8 458.922 1170 458.881C1170.21 458.84 1166.38 462.984 1161.5 468.088ZM451.818 461.995C451.499 462.792 451.262 462.556 451.214 461.391C451.171 460.337 451.407 459.746 451.739 460.078C452.071 460.41 452.107 461.273 451.818 461.995ZM1714.82 463.995C1714.5 464.792 1714.26 464.556 1714.21 463.391C1714.17 462.337 1714.41 461.746 1714.74 462.078C1715.07 462.41 1715.11 463.273 1714.82 463.995ZM450.818 466.995C450.499 467.792 450.262 467.556 450.214 466.391C450.171 465.337 450.407 464.746 450.739 465.078C451.071 465.41 451.107 466.273 450.818 466.995ZM1715.82 470.995C1715.5 471.792 1715.26 471.556 1715.21 470.391C1715.17 469.337 1715.41 468.746 1715.74 469.078C1716.07 469.41 1716.11 470.273 1715.82 470.995ZM1084.63 471.807C1085.63 472.907 1086.22 473.807 1085.94 473.807C1085.67 473.807 1084.63 472.907 1083.63 471.807C1082.64 470.707 1082.05 469.807 1082.32 469.807C1082.6 469.807 1083.64 470.707 1084.63 471.807ZM334.104 474.307C334.104 474.857 333.668 474.632 333.135 473.807C332.602 472.982 332.166 471.857 332.166 471.307C332.166 470.757 332.602 470.982 333.135 471.807C333.668 472.632 334.104 473.757 334.104 474.307ZM1716.82 477.995C1716.5 478.792 1716.26 478.556 1716.21 477.391C1716.17 476.337 1716.41 475.746 1716.74 476.078C1717.07 476.41 1717.11 477.273 1716.82 477.995ZM447.818 481.995C447.499 482.792 447.262 482.556 447.214 481.391C447.171 480.337 447.407 479.746 447.739 480.078C448.071 480.41 448.107 481.273 447.818 481.995ZM1160.13 481.152C1160.13 481.342 1159.12 482.354 1157.88 483.402L1155.63 485.307L1157.54 483.057C1159.33 480.943 1160.13 480.352 1160.13 481.152ZM1717.8 487.057C1717.52 487.745 1717.29 487.182 1717.29 485.807C1717.29 484.432 1717.52 483.87 1717.8 484.557C1718.07 485.245 1718.07 486.37 1717.8 487.057ZM446.818 486.995C446.499 487.792 446.262 487.556 446.214 486.391C446.171 485.337 446.407 484.746 446.739 485.078C447.071 485.41 447.107 486.273 446.818 486.995ZM1156.13 486.186C1156.13 486.393 1155.35 487.181 1154.38 487.936C1152.8 489.179 1152.76 489.143 1154.01 487.557C1155.31 485.891 1156.13 485.363 1156.13 486.186ZM394.263 494.557C395.506 496.143 395.471 496.179 393.885 494.936C392.219 493.629 391.69 492.807 392.513 492.807C392.72 492.807 393.508 493.594 394.263 494.557ZM1718.83 496.538C1718.57 497.511 1718.35 496.957 1718.33 495.307C1718.31 493.657 1718.52 492.861 1718.79 493.538C1719.06 494.215 1719.08 495.565 1718.83 496.538ZM444.818 495.995C444.499 496.792 444.262 496.556 444.214 495.391C444.171 494.337 444.407 493.746 444.739 494.078C445.071 494.41 445.107 495.273 444.818 495.995ZM397.263 498.557C398.506 500.143 398.471 500.179 396.885 498.936C395.219 497.629 394.69 496.807 395.513 496.807C395.72 496.807 396.508 497.594 397.263 498.557ZM401.635 503.807C402.63 504.907 403.22 505.807 402.945 505.807C402.67 505.807 401.63 504.907 400.635 503.807C399.64 502.707 399.05 501.807 399.325 501.807C399.6 501.807 400.64 502.707 401.635 503.807ZM1719.82 510.557C1719.57 511.52 1719.37 510.732 1719.37 508.807C1719.37 506.882 1719.57 506.094 1719.82 507.057C1720.08 508.02 1720.08 509.594 1719.82 510.557ZM409.135 512.307C411.001 514.232 412.302 515.807 412.027 515.807C411.752 515.807 410.001 514.232 408.135 512.307C406.269 510.382 404.968 508.807 405.243 508.807C405.518 508.807 407.269 510.382 409.135 512.307ZM466.828 520.538C466.574 521.511 466.35 520.957 466.33 519.307C466.31 517.657 466.517 516.861 466.791 517.538C467.065 518.215 467.082 519.565 466.828 520.538ZM1118.13 523.166C1118.13 524.436 1117.67 523.868 1116.21 520.807C1115.09 518.45 1115.11 518.419 1116.58 520.249C1117.43 521.317 1118.13 522.629 1118.13 523.166ZM1118.82 526.995C1118.5 527.792 1118.26 527.556 1118.21 526.391C1118.17 525.337 1118.41 524.746 1118.74 525.078C1119.07 525.41 1119.11 526.273 1118.82 526.995ZM430.404 526.464C429.727 526.738 428.377 526.754 427.404 526.5C426.431 526.246 426.985 526.022 428.635 526.002C430.285 525.982 431.081 526.19 430.404 526.464ZM1720.88 545.516C1720.68 549.252 1720.52 546.457 1720.52 539.307C1720.52 532.157 1720.68 529.102 1720.87 532.516C1721.07 535.931 1721.07 541.781 1720.88 545.516ZM1128.71 529.807C1128.71 530.907 1128.35 531.807 1127.92 531.807C1126.96 531.807 1126.88 529.398 1127.8 528.474C1128.71 527.562 1128.71 527.552 1128.71 529.807ZM458.841 535.057C458.602 536.294 458.407 535.282 458.407 532.807C458.407 530.332 458.602 529.32 458.841 530.557C459.079 531.794 459.079 533.82 458.841 535.057ZM1119.13 529.186C1119.13 529.393 1118.35 530.181 1117.38 530.936C1115.8 532.179 1115.76 532.143 1117.01 530.557C1118.31 528.891 1119.13 528.363 1119.13 529.186ZM369.263 533.557C370.506 535.143 370.471 535.179 368.885 533.936C367.219 532.629 366.69 531.807 367.513 531.807C367.72 531.807 368.508 532.594 369.263 533.557ZM1137.63 538.807C1140.9 542.107 1143.35 544.807 1143.07 544.807C1142.8 544.807 1139.9 542.107 1136.63 538.807C1133.37 535.507 1130.92 532.807 1131.2 532.807C1131.47 532.807 1134.37 535.507 1137.63 538.807ZM1126.13 537.251L1128.63 540.194L1125.51 537.751C1123.8 536.407 1122.61 534.94 1122.86 534.49C1123.12 534.041 1123.4 533.816 1123.48 533.99C1123.57 534.165 1124.76 535.632 1126.13 537.251ZM465.86 544.04C465.637 545.837 465.45 544.607 465.445 541.307C465.439 538.007 465.621 536.537 465.85 538.04C466.078 539.543 466.082 542.243 465.86 544.04ZM1110.13 536.186C1110.13 536.393 1109.35 537.181 1108.38 537.936C1106.8 539.179 1106.76 539.143 1108.01 537.557C1109.31 535.891 1110.13 535.363 1110.13 536.186ZM375.698 541.057L378.635 544.307L375.385 541.37C373.597 539.755 372.135 538.292 372.135 538.12C372.135 537.347 372.96 538.028 375.698 541.057ZM1105.13 540.134C1105.13 540.313 1103.9 541.55 1102.38 542.884L1099.63 545.307L1102.06 542.557C1104.32 539.987 1105.13 539.349 1105.13 540.134ZM1116.13 540.186C1116.13 540.393 1115.35 541.181 1114.38 541.936C1112.8 543.179 1112.76 543.143 1114.01 541.557C1115.31 539.891 1116.13 539.363 1116.13 540.186ZM1111.13 544.134C1111.13 544.313 1109.9 545.55 1108.38 546.884L1105.63 549.307L1108.06 546.557C1110.32 543.987 1111.13 543.349 1111.13 544.134ZM1137.63 548.807C1138.63 549.907 1139.22 550.807 1138.94 550.807C1138.67 550.807 1137.63 549.907 1136.63 548.807C1135.64 547.707 1135.05 546.807 1135.32 546.807C1135.6 546.807 1136.64 547.707 1137.63 548.807ZM1147.63 549.807C1148.63 550.907 1149.22 551.807 1148.94 551.807C1148.67 551.807 1147.63 550.907 1146.63 549.807C1145.64 548.707 1145.05 547.807 1145.32 547.807C1145.6 547.807 1146.64 548.707 1147.63 549.807ZM389.135 554.307C391.001 556.232 392.302 557.807 392.027 557.807C391.752 557.807 390.001 556.232 388.135 554.307C386.269 552.382 384.968 550.807 385.243 550.807C385.518 550.807 387.269 552.382 389.135 554.307ZM1143.26 555.557C1144.51 557.143 1144.47 557.179 1142.88 555.936C1141.92 555.181 1141.13 554.393 1141.13 554.186C1141.13 553.363 1141.96 553.891 1143.26 555.557ZM397.263 561.557C398.506 563.143 398.471 563.179 396.885 561.936C395.219 560.629 394.69 559.807 395.513 559.807C395.72 559.807 396.508 560.594 397.263 561.557ZM465.851 570.557C465.622 572.07 465.435 570.832 465.435 567.807C465.435 564.782 465.622 563.544 465.851 565.057C466.08 566.57 466.08 569.044 465.851 570.557ZM1082.13 563.079C1082.13 563.229 1078.2 567.166 1073.38 571.829L1064.63 580.307L1073.11 571.557C1080.99 563.43 1082.13 562.351 1082.13 563.079ZM402.263 565.557C403.506 567.143 403.471 567.179 401.885 565.936C400.219 564.629 399.69 563.807 400.513 563.807C400.72 563.807 401.508 564.594 402.263 565.557ZM1090.13 565.12C1090.13 565.292 1088.67 566.755 1086.88 568.37L1083.63 571.307L1086.57 568.057C1089.31 565.028 1090.13 564.347 1090.13 565.12ZM1719.82 570.557C1719.57 571.52 1719.37 570.732 1719.37 568.807C1719.37 566.882 1719.57 566.094 1719.82 567.057C1720.08 568.02 1720.08 569.594 1719.82 570.557ZM458.842 577.046C458.603 578.29 458.398 577.507 458.387 575.307C458.376 573.107 458.572 572.09 458.822 573.046C459.072 574.002 459.081 575.802 458.842 577.046ZM1158.94 579.333C1158.63 579.641 1158.07 579.086 1157.7 578.1C1157.16 576.675 1157.27 576.561 1158.26 577.541C1158.94 578.22 1159.25 579.026 1158.94 579.333ZM1718.83 581.538C1718.57 582.511 1718.35 581.957 1718.33 580.307C1718.31 578.657 1718.52 577.861 1718.79 578.538C1719.06 579.215 1719.08 580.565 1718.83 581.538ZM1074.13 583.12C1074.13 583.292 1072.67 584.755 1070.88 586.37L1067.63 589.307L1070.57 586.057C1073.31 583.028 1074.13 582.347 1074.13 583.12ZM466.797 587.057C466.52 587.745 466.293 587.182 466.293 585.807C466.293 584.432 466.52 583.87 466.797 584.557C467.075 585.245 467.075 586.37 466.797 587.057ZM1174.26 587.557C1175.51 589.143 1175.47 589.179 1173.88 587.936C1172.92 587.181 1172.13 586.393 1172.13 586.186C1172.13 585.363 1172.96 585.891 1174.26 587.557ZM1717.8 590.057C1717.52 590.745 1717.29 590.182 1717.29 588.807C1717.29 587.432 1717.52 586.87 1717.8 587.557C1718.07 588.245 1718.07 589.37 1717.8 590.057ZM459.828 591.538C459.574 592.511 459.35 591.957 459.33 590.307C459.31 588.657 459.517 587.861 459.791 588.538C460.065 589.215 460.082 590.565 459.828 591.538ZM1048.13 590.134C1048.13 590.313 1046.9 591.55 1045.38 592.884L1042.63 595.307L1045.06 592.557C1047.32 589.987 1048.13 589.349 1048.13 590.134ZM1960.47 591.219C1939.6 595.205 1924.87 603.106 1908.41 619.14L1899.19 628.124L1889.91 630.464C1857.12 638.742 1837.65 659.851 1833.62 691.511L1832.96 696.717L1865.46 696.78C1890.8 696.829 1898.07 696.562 1898.47 695.574C1898.86 694.604 1899 694.596 1899.06 695.542C1899.12 696.515 1927.63 696.779 2033.63 696.786C2160.88 696.795 2168.13 696.701 2168.12 695.052C2168.08 690.97 2165.01 679.212 2162.62 673.973C2158.89 665.811 2150.92 658.433 2143.46 656.256C2132.71 653.115 2132.94 653.302 2128.35 643.866C2118.82 624.249 2100.22 611.813 2075.7 608.646C2065.75 607.362 2053.85 608.524 2044.5 611.693L2038.63 613.681L2027.93 606.708C2015.57 598.66 2009.22 595.661 1998.39 592.76C1988.37 590.075 1970.3 589.341 1960.47 591.219ZM1179.63 593.807C1180.63 594.907 1181.22 595.807 1180.94 595.807C1180.67 595.807 1179.63 594.907 1178.63 593.807C1177.64 592.707 1177.05 591.807 1177.32 591.807C1177.6 591.807 1178.64 592.707 1179.63 593.807ZM202.635 593.86C192.101 595.501 181.295 598.622 171.835 602.757L162.635 606.778L156.296 604.793C148.527 602.359 136.375 602.172 127.949 604.355C108.352 609.433 84.1269 626.552 72.4559 643.57L68.6349 649.144L58.6349 650.859C39.7429 654.101 28.3019 659.588 17.1059 670.781C7.71491 680.169 3.06092 686.907 0.707916 694.52L0.0239258 696.731L39.9909 696.785C71.3219 696.826 80.0679 696.565 80.4679 695.573C80.8689 694.577 80.9939 694.573 81.0559 695.557C81.1179 696.537 90.8269 696.807 126.052 696.807C161.049 696.807 171.08 696.531 171.473 695.557C171.876 694.559 171.993 694.559 172.056 695.557C172.16 697.203 356.135 697.394 356.135 695.749C356.135 694.168 353.292 688.966 348.809 682.345C345.083 676.841 342.965 674.202 337.635 668.417C333.12 663.517 324.159 657.271 316.605 653.76C309.434 650.426 307.761 649.079 300.966 641.167C290.767 629.291 286.747 625.149 279.635 619.188C256.822 600.062 226.61 590.125 202.635 593.86ZM467.797 598.057C467.52 598.745 467.293 598.182 467.293 596.807C467.293 595.432 467.52 594.87 467.797 595.557C468.075 596.245 468.075 597.37 467.797 598.057ZM1064.13 595.186C1064.13 595.393 1063.35 596.181 1062.38 596.936C1060.8 598.179 1060.76 598.143 1062.01 596.557C1063.31 594.891 1064.13 594.363 1064.13 595.186ZM1716.82 596.995C1716.5 597.792 1716.26 597.556 1716.21 596.391C1716.17 595.337 1716.41 594.746 1716.74 595.078C1717.07 595.41 1717.11 596.273 1716.82 596.995ZM1042.83 599.538C1042.57 600.511 1042.35 599.957 1042.33 598.307C1042.31 596.657 1042.52 595.861 1042.79 596.538C1043.06 597.215 1043.08 598.565 1042.83 599.538ZM1971.4 598.464C1970.73 598.738 1969.38 598.754 1968.4 598.5C1967.43 598.246 1967.98 598.022 1969.63 598.002C1971.28 597.982 1972.08 598.19 1971.4 598.464ZM1984.38 598.469C1983.7 598.747 1982.57 598.747 1981.88 598.469C1981.2 598.192 1981.76 597.965 1983.13 597.965C1984.51 597.965 1985.07 598.192 1984.38 598.469ZM460.797 602.057C460.52 602.745 460.293 602.182 460.293 600.807C460.293 599.432 460.52 598.87 460.797 599.557C461.075 600.245 461.075 601.37 460.797 602.057ZM1962.86 599.411C1962.53 599.743 1961.67 599.779 1960.95 599.49C1960.15 599.171 1960.39 598.934 1961.55 598.886C1962.61 598.843 1963.2 599.079 1962.86 599.411ZM1991.86 599.411C1991.53 599.743 1990.67 599.779 1989.95 599.49C1989.15 599.171 1989.39 598.934 1990.55 598.886C1991.61 598.843 1992.2 599.079 1991.86 599.411ZM211.885 601.496C210.923 601.748 209.347 601.748 208.385 601.496C207.423 601.245 208.21 601.04 210.135 601.04C212.06 601.04 212.847 601.245 211.885 601.496ZM220.404 601.464C219.727 601.738 218.377 601.754 217.404 601.5C216.431 601.246 216.985 601.022 218.635 601.002C220.285 600.982 221.081 601.19 220.404 601.464ZM1168.52 602.359C1168.86 603.249 1168.69 603.651 1168.12 603.301C1167.58 602.965 1167.13 602.267 1167.13 601.749C1167.13 600.311 1167.85 600.627 1168.52 602.359ZM1715.82 602.995C1715.5 603.792 1715.26 603.556 1715.21 602.391C1715.17 601.337 1715.41 600.746 1715.74 601.078C1716.07 601.41 1716.11 602.273 1715.82 602.995ZM202.864 602.411C202.532 602.743 201.669 602.779 200.948 602.49C200.15 602.171 200.387 601.934 201.552 601.886C202.606 601.843 203.196 602.079 202.864 602.411ZM227.864 602.411C227.532 602.743 226.669 602.779 225.948 602.49C225.15 602.171 225.387 601.934 226.552 601.886C227.606 601.843 228.196 602.079 227.864 602.411ZM197.864 603.411C197.532 603.743 196.669 603.779 195.948 603.49C195.15 603.171 195.387 602.934 196.552 602.886C197.606 602.843 198.196 603.079 197.864 603.411ZM193.864 604.411C193.532 604.743 192.669 604.779 191.948 604.49C191.15 604.171 191.387 603.934 192.552 603.886C193.606 603.843 194.196 604.079 193.864 604.411ZM468.797 607.057C468.52 607.745 468.293 607.182 468.293 605.807C468.293 604.432 468.52 603.87 468.797 604.557C469.075 605.245 469.075 606.37 468.797 607.057ZM1051.4 604.464C1050.73 604.738 1049.38 604.754 1048.4 604.5C1047.43 604.246 1047.98 604.022 1049.63 604.002C1051.28 603.982 1052.08 604.19 1051.4 604.464ZM1171.26 606.557C1172.51 608.143 1172.47 608.179 1170.88 606.936C1169.22 605.629 1168.69 604.807 1169.51 604.807C1169.72 604.807 1170.51 605.594 1171.26 606.557ZM1714.82 608.995C1714.5 609.792 1714.26 609.556 1714.21 608.391C1714.17 607.337 1714.41 606.746 1714.74 607.078C1715.07 607.41 1715.11 608.273 1714.82 608.995ZM135.864 611.411C135.532 611.743 134.669 611.779 133.948 611.49C133.15 611.171 133.387 610.934 134.552 610.886C135.606 610.843 136.196 611.079 135.864 611.411ZM149.864 611.411C149.532 611.743 148.669 611.779 147.948 611.49C147.15 611.171 147.387 610.934 148.552 610.886C149.606 610.843 150.196 611.079 149.864 611.411ZM469.818 613.995C469.499 614.792 469.262 614.556 469.214 613.391C469.171 612.337 469.407 611.746 469.739 612.078C470.071 612.41 470.107 613.273 469.818 613.995ZM1713.82 613.995C1713.5 614.792 1713.26 614.556 1713.21 613.391C1713.17 612.337 1713.41 611.746 1713.74 612.078C1714.07 612.41 1714.11 613.273 1713.82 613.995ZM1926.13 615.186C1926.13 615.393 1925.35 616.181 1924.38 616.936C1922.8 618.179 1922.76 618.143 1924.01 616.557C1925.31 614.891 1926.13 614.363 1926.13 615.186ZM2063.39 616.469C2062.7 616.747 2061.57 616.747 2060.89 616.469C2060.2 616.192 2060.76 615.965 2062.14 615.965C2063.51 615.965 2064.07 616.192 2063.39 616.469ZM2073.39 616.469C2072.7 616.747 2071.57 616.747 2070.89 616.469C2070.2 616.192 2070.76 615.965 2072.14 615.965C2073.51 615.965 2074.07 616.192 2073.39 616.469ZM1712.82 618.995C1712.5 619.792 1712.26 619.556 1712.21 618.391C1712.17 617.337 1712.41 616.746 1712.74 617.078C1713.07 617.41 1713.11 618.273 1712.82 618.995ZM2056.86 617.411C2056.53 617.743 2055.67 617.779 2054.95 617.49C2054.15 617.171 2054.39 616.934 2055.55 616.886C2056.61 616.843 2057.2 617.079 2056.86 617.411ZM2080.86 617.411C2080.53 617.743 2079.67 617.779 2078.95 617.49C2078.15 617.171 2078.39 616.934 2079.55 616.886C2080.61 616.843 2081.2 617.079 2080.86 617.411ZM470.818 620.995C470.499 621.792 470.262 621.556 470.214 620.391C470.171 619.337 470.407 618.746 470.739 619.078C471.071 619.41 471.107 620.273 470.818 620.995ZM1921.13 619.134C1921.13 619.313 1919.9 620.55 1918.38 621.884L1915.63 624.307L1918.06 621.557C1920.32 618.987 1921.13 618.349 1921.13 619.134ZM2040.86 622.411C2040.53 622.743 2039.67 622.779 2038.95 622.49C2038.15 622.171 2038.39 621.934 2039.55 621.886C2040.61 621.843 2041.2 622.079 2040.86 622.411ZM2031.82 624.995C2031.5 625.792 2031.26 625.556 2031.21 624.391C2031.17 623.337 2031.41 622.746 2031.74 623.078C2032.07 623.41 2032.11 624.273 2031.82 624.995ZM274.635 625.807C275.63 626.907 276.22 627.807 275.945 627.807C275.67 627.807 274.63 626.907 273.635 625.807C272.64 624.707 272.05 623.807 272.325 623.807C272.6 623.807 273.64 624.707 274.635 625.807ZM2038.82 625.995C2038.5 626.792 2038.26 626.556 2038.21 625.391C2038.17 624.337 2038.41 623.746 2038.74 624.078C2039.07 624.41 2039.11 625.273 2038.82 625.995ZM471.818 627.995C471.499 628.792 471.262 628.556 471.214 627.391C471.171 626.337 471.407 625.746 471.739 626.078C472.071 626.41 472.107 627.273 471.818 627.995ZM1710.82 627.995C1710.5 628.792 1710.26 628.556 1710.21 627.391C1710.17 626.337 1710.41 625.746 1710.74 626.078C1711.07 626.41 1711.11 627.273 1710.82 627.995ZM100.135 628.186C100.135 628.393 99.3469 629.181 98.3849 629.936C96.7989 631.179 96.7639 631.143 98.0069 629.557C99.3139 627.891 100.135 627.363 100.135 628.186ZM1908.51 632.12C1906.38 634.493 1904.44 636.285 1904.2 636.103C1903.75 635.762 1911.2 627.807 1911.97 627.807C1912.2 627.807 1910.65 629.748 1908.51 632.12ZM2106.26 629.557C2107.51 631.143 2107.47 631.179 2105.89 629.936C2104.22 628.629 2103.69 627.807 2104.51 627.807C2104.72 627.807 2105.51 628.594 2106.26 629.557ZM1709.82 631.995C1709.5 632.792 1709.26 632.556 1709.21 631.391C1709.17 630.337 1709.41 629.746 1709.74 630.078C1710.07 630.41 1710.11 631.273 1709.82 631.995ZM96.1349 631.152C96.1349 631.342 95.1229 632.354 93.8849 633.402L91.6349 635.307L93.5399 633.057C95.3299 630.943 96.1349 630.352 96.1349 631.152ZM472.818 633.995C472.499 634.792 472.262 634.556 472.214 633.391C472.171 632.337 472.407 631.746 472.739 632.078C473.071 632.41 473.107 633.273 472.818 633.995ZM2032.86 641.536C2032.65 643.61 2032.47 642.157 2032.46 638.307C2032.46 634.457 2032.64 632.76 2032.86 634.536C2033.08 636.311 2033.08 639.461 2032.86 641.536ZM171.818 634.995C171.499 635.792 171.262 635.556 171.214 634.391C171.171 633.337 171.407 632.746 171.739 633.078C172.071 633.41 172.107 634.273 171.818 634.995ZM1708.82 635.995C1708.5 636.792 1708.26 636.556 1708.21 635.391C1708.17 634.337 1708.41 633.746 1708.74 634.078C1709.07 634.41 1709.11 635.273 1708.82 635.995ZM89.1349 637.152C89.1349 637.342 88.1229 638.354 86.8849 639.402L84.6349 641.307L86.5399 639.057C88.3299 636.943 89.1349 636.352 89.1349 637.152ZM1897.13 638.307C1897.13 639.132 1896.96 639.807 1896.74 639.807C1896.53 639.807 1896.09 639.132 1895.77 638.307C1895.46 637.482 1895.63 636.807 1896.17 636.807C1896.7 636.807 1897.13 637.482 1897.13 638.307ZM2039.82 639.995C2039.5 640.792 2039.26 640.556 2039.21 639.391C2039.17 638.337 2039.41 637.746 2039.74 638.078C2040.07 638.41 2040.11 639.273 2039.82 639.995ZM2116.26 639.557C2117.51 641.143 2117.47 641.179 2115.89 639.936C2114.22 638.629 2113.69 637.807 2114.51 637.807C2114.72 637.807 2115.51 638.594 2116.26 639.557ZM165.818 640.995C165.499 641.792 165.262 641.556 165.214 640.391C165.171 639.337 165.407 638.746 165.739 639.078C166.071 639.41 166.107 640.273 165.818 640.995ZM172.818 640.995C172.499 641.792 172.262 641.556 172.214 640.391C172.171 639.337 172.407 638.746 172.739 639.078C173.071 639.41 173.107 640.273 172.818 640.995ZM289.635 640.807C290.63 641.907 291.22 642.807 290.945 642.807C290.67 642.807 289.63 641.907 288.635 640.807C287.64 639.707 287.05 638.807 287.325 638.807C287.6 638.807 288.64 639.707 289.635 640.807ZM1880.13 642.807C1879.31 643.34 1878.18 643.776 1877.63 643.776C1877.08 643.776 1877.31 643.34 1878.13 642.807C1878.96 642.274 1880.08 641.839 1880.63 641.839C1881.18 641.839 1880.96 642.274 1880.13 642.807ZM1895.82 643.995C1895.5 644.792 1895.26 644.556 1895.21 643.391C1895.17 642.337 1895.41 641.746 1895.74 642.078C1896.07 642.41 1896.11 643.273 1895.82 643.995ZM1705.82 646.995C1705.5 647.792 1705.26 647.556 1705.21 646.391C1705.17 645.337 1705.41 644.746 1705.74 645.078C1706.07 645.41 1706.11 646.273 1705.82 646.995ZM166.797 649.057C166.52 649.745 166.293 649.182 166.293 647.807C166.293 646.432 166.52 645.87 166.797 646.557C167.075 647.245 167.075 648.37 166.797 649.057ZM173.797 649.057C173.52 649.745 173.293 649.182 173.293 647.807C173.293 646.432 173.52 645.87 173.797 646.557C174.075 647.245 174.075 648.37 173.797 649.057ZM2123.14 651.166C2123.14 652.436 2122.67 651.868 2121.22 648.807C2120.09 646.45 2120.11 646.419 2121.58 648.249C2122.44 649.317 2123.14 650.629 2123.14 651.166ZM1894.8 651.057C1894.52 651.745 1894.29 651.182 1894.29 649.807C1894.29 648.432 1894.52 647.87 1894.8 648.557C1895.07 649.245 1895.07 650.37 1894.8 651.057ZM1901.82 649.995C1901.5 650.792 1901.26 650.556 1901.21 649.391C1901.17 648.337 1901.41 647.746 1901.74 648.078C1902.07 648.41 1902.11 649.273 1901.82 649.995ZM295.797 652.057C295.52 652.745 295.293 652.182 295.293 650.807C295.293 649.432 295.52 648.87 295.797 649.557C296.075 650.245 296.075 651.37 295.797 652.057ZM2031.8 654.057C2031.52 654.745 2031.29 654.182 2031.29 652.807C2031.29 651.432 2031.52 650.87 2031.8 651.557C2032.07 652.245 2032.07 653.37 2031.8 654.057ZM476.818 653.995C476.499 654.792 476.262 654.556 476.214 653.391C476.171 652.337 476.407 651.746 476.739 652.078C477.071 652.41 477.107 653.273 476.818 653.995ZM2038.82 653.995C2038.5 654.792 2038.26 654.556 2038.21 653.391C2038.17 652.337 2038.41 651.746 2038.74 652.078C2039.07 652.41 2039.11 653.273 2038.82 653.995ZM295.828 657.538C295.574 658.511 295.35 657.957 295.33 656.307C295.31 654.657 295.517 653.861 295.791 654.538C296.065 655.215 296.082 656.565 295.828 657.538ZM1861.13 654.12C1861.13 654.292 1859.67 655.755 1857.88 657.37L1854.63 660.307L1857.57 657.057C1860.31 654.028 1861.13 653.347 1861.13 654.12ZM76.8179 658.995C76.4989 659.792 76.2619 659.556 76.2139 658.391C76.1709 657.337 76.4069 656.746 76.7389 657.078C77.0709 657.41 77.1069 658.273 76.8179 658.995ZM64.8639 658.411C64.5319 658.743 63.6689 658.779 62.9479 658.49C62.1499 658.171 62.3869 657.934 63.5519 657.886C64.6059 657.843 65.1959 658.079 64.8639 658.411ZM69.8179 659.995C69.4989 660.792 69.2619 660.556 69.2139 659.391C69.1709 658.337 69.4069 657.746 69.7389 658.078C70.0709 658.41 70.1069 659.273 69.8179 659.995ZM2037.82 660.995C2037.5 661.792 2037.26 661.556 2037.21 660.391C2037.17 659.337 2037.41 658.746 2037.74 659.078C2038.07 659.41 2038.11 660.273 2037.82 660.995ZM1900.8 664.057C1900.52 664.745 1900.29 664.182 1900.29 662.807C1900.29 661.432 1900.52 660.87 1900.8 661.557C1901.07 662.245 1901.07 663.37 1900.8 664.057ZM294.818 663.995C294.499 664.792 294.262 664.556 294.214 663.391C294.171 662.337 294.407 661.746 294.739 662.078C295.071 662.41 295.107 663.273 294.818 663.995ZM301.818 663.995C301.499 664.792 301.262 664.556 301.214 663.391C301.171 662.337 301.407 661.746 301.739 662.078C302.071 662.41 302.107 663.273 301.818 663.995ZM316.628 662.797C316.978 663.363 316.577 663.53 315.687 663.189C313.955 662.524 313.638 661.807 315.076 661.807C315.594 661.807 316.292 662.253 316.628 662.797ZM2029.82 663.995C2029.5 664.792 2029.26 664.556 2029.21 663.391C2029.17 662.337 2029.41 661.746 2029.74 662.078C2030.07 662.41 2030.11 663.273 2029.82 663.995ZM2132.82 663.995C2132.5 664.792 2132.26 664.556 2132.21 663.391C2132.17 662.337 2132.41 661.746 2132.74 662.078C2133.07 662.41 2133.11 663.273 2132.82 663.995ZM174.828 666.538C174.574 667.511 174.35 666.957 174.33 665.307C174.31 663.657 174.517 662.861 174.791 663.538C175.065 664.215 175.082 665.565 174.828 666.538ZM2125.8 666.057C2125.52 666.745 2125.29 666.182 2125.29 664.807C2125.29 663.432 2125.52 662.87 2125.8 663.557C2126.08 664.245 2126.08 665.37 2125.8 666.057ZM2028.82 667.995C2028.5 668.792 2028.26 668.556 2028.21 667.391C2028.17 666.337 2028.41 665.746 2028.74 666.078C2029.07 666.41 2029.11 667.273 2028.82 667.995ZM2147.64 667.807C2148.63 668.907 2149.22 669.807 2148.95 669.807C2148.67 669.807 2147.63 668.907 2146.64 667.807C2145.64 666.707 2145.05 665.807 2145.32 665.807C2145.6 665.807 2146.64 666.707 2147.64 667.807ZM75.8409 673.057C75.6019 674.294 75.4069 673.282 75.4069 670.807C75.4069 668.332 75.6019 667.32 75.8409 668.557C76.0789 669.794 76.0789 671.82 75.8409 673.057ZM326.635 669.807C327.63 670.907 328.22 671.807 327.945 671.807C327.67 671.807 326.63 670.907 325.635 669.807C324.64 668.707 324.05 667.807 324.325 667.807C324.6 667.807 325.64 668.707 326.635 669.807ZM2131.82 670.995C2131.5 671.792 2131.26 671.556 2131.21 670.391C2131.17 669.337 2131.41 668.746 2131.74 669.078C2132.07 669.41 2132.11 670.273 2131.82 670.995ZM2152.26 672.557C2153.51 674.143 2153.47 674.179 2151.89 672.936C2150.22 671.629 2149.69 670.807 2150.51 670.807C2150.72 670.807 2151.51 671.594 2152.26 672.557ZM24.1349 675.134C24.1349 675.313 22.8969 676.55 21.3849 677.884L18.6349 680.307L21.0589 677.557C23.3249 674.987 24.1349 674.349 24.1349 675.134ZM1901.82 676.995C1901.5 677.792 1901.26 677.556 1901.21 676.391C1901.17 675.337 1901.41 674.746 1901.74 675.078C1902.07 675.41 1902.11 676.273 1901.82 676.995ZM1894.8 679.057C1894.52 679.745 1894.29 679.182 1894.29 677.807C1894.29 676.432 1894.52 675.87 1894.8 676.557C1895.07 677.245 1895.07 678.37 1894.8 679.057ZM2155.94 679.333C2155.63 679.641 2155.07 679.086 2154.7 678.1C2154.16 676.675 2154.27 676.561 2155.26 677.541C2155.94 678.22 2156.25 679.026 2155.94 679.333ZM166.797 681.057C166.52 681.745 166.293 681.182 166.293 679.807C166.293 678.432 166.52 677.87 166.797 678.557C167.075 679.245 167.075 680.37 166.797 681.057ZM336.635 679.807C337.63 680.907 338.22 681.807 337.945 681.807C337.67 681.807 336.63 680.907 335.635 679.807C334.64 678.707 334.05 677.807 334.325 677.807C334.6 677.807 335.64 678.707 336.635 679.807ZM69.7969 684.057C69.5199 684.745 69.2929 684.182 69.2929 682.807C69.2929 681.432 69.5199 680.87 69.7969 681.557C70.0749 682.245 70.0749 683.37 69.7969 684.057ZM76.8179 682.995C76.4989 683.792 76.2619 683.556 76.2139 682.391C76.1709 681.337 76.4069 680.746 76.7389 681.078C77.0709 681.41 77.1069 682.273 76.8179 682.995ZM173.797 684.057C173.52 684.745 173.293 684.182 173.293 682.807C173.293 681.432 173.52 680.87 173.797 681.557C174.075 682.245 174.075 683.37 173.797 684.057ZM1902.82 682.995C1902.5 683.792 1902.26 683.556 1902.21 682.391C1902.17 681.337 1902.41 680.746 1902.74 681.078C1903.07 681.41 1903.11 682.273 1902.82 682.995ZM340.263 684.557C341.506 686.143 341.471 686.179 339.885 684.936C338.219 683.629 337.69 682.807 338.513 682.807C338.72 682.807 339.508 683.594 340.263 684.557ZM1895.82 684.995C1895.5 685.792 1895.26 685.556 1895.21 684.391C1895.17 683.337 1895.41 682.746 1895.74 683.078C1896.07 683.41 1896.11 684.273 1895.82 684.995ZM165.818 687.995C165.499 688.792 165.262 688.556 165.214 687.391C165.171 686.337 165.407 685.746 165.739 686.078C166.071 686.41 166.107 687.273 165.818 687.995ZM294.257 688.483C293.078 690.51 292.794 689.86 293.759 687.346C294.101 686.452 294.593 685.931 294.85 686.189C295.108 686.446 294.841 687.479 294.257 688.483ZM70.8179 688.995C70.4989 689.792 70.2619 689.556 70.2139 688.391C70.1709 687.337 70.4069 686.746 70.7389 687.078C71.0709 687.41 71.1069 688.273 70.8179 688.995ZM172.818 690.995C172.499 691.792 172.262 691.556 172.214 690.391C172.171 689.337 172.407 688.746 172.739 689.078C173.071 689.41 173.107 690.273 172.818 690.995ZM1841.82 690.995C1841.5 691.792 1841.26 691.556 1841.21 690.391C1841.17 689.337 1841.41 688.746 1841.74 689.078C1842.07 689.41 1842.11 690.273 1841.82 690.995ZM164.818 693.995C164.499 694.792 164.262 694.556 164.214 693.391C164.171 692.337 164.407 691.746 164.739 692.078C165.071 692.41 165.107 693.273 164.818 693.995ZM2159.82 693.995C2159.5 694.792 2159.26 694.556 2159.21 693.391C2159.17 692.337 2159.41 691.746 2159.74 692.078C2160.07 692.41 2160.11 693.273 2159.82 693.995Z" fill="#FF7596"/>
<path fill-rule="evenodd" clip-rule="evenodd" d="M1060.64 8.3929C1012.82 11.9359 988.725 15.4769 952.635 24.2659C901.711 36.6679 835.585 61.9639 785.135 88.3409C753.916 104.664 715.898 128.953 689.351 149.536C676.095 159.815 656.375 178.122 654.217 182.156C652.46 185.437 649.401 186.502 647.421 184.522C645.249 182.351 646.368 180.03 653.601 171.703L660.024 164.308L654.829 163.593C643.585 162.045 606.58 165.27 577.135 170.365C533.729 177.875 501.647 188.649 456.635 210.832C410.553 233.542 376.135 257.029 347.492 285.308C328.917 303.648 322.629 313.44 316.99 332.808C312.098 349.607 309.784 382.022 312.063 401.808C315.442 431.147 326.479 462.207 346.324 498.22C366.796 535.371 382.802 552.479 424.635 581.922C444.947 596.218 459.705 605.622 460.468 604.755C460.684 604.509 460.386 600.708 459.804 596.308C459.222 591.908 458.721 572.29 458.691 552.711C458.632 515.098 458.782 513.808 463.222 513.808C466.549 513.808 466.92 516.705 466.035 535.808C463.855 582.905 471.616 642.314 485.598 685.558L489.235 696.808H1088.74H1688.24L1689.58 693.558C1692.94 685.461 1702.55 656.144 1706.2 642.902C1715.7 608.362 1719.15 584.353 1719.86 547.755C1720.6 509.989 1718.3 482.568 1711.6 449.308C1706.26 422.782 1698.52 397.056 1689.65 376.417C1686.64 369.405 1686.17 367.475 1687.16 366.282C1687.83 365.471 1689.26 364.808 1690.33 364.808C1694.55 364.808 1707.46 398.703 1715.65 431.292C1718.11 441.126 1720.14 450.055 1720.14 451.134C1720.14 452.987 1720.63 453.058 1729.11 452.418C1745.67 451.168 1761.05 445.984 1774.24 437.211C1789.06 427.352 1805.82 407.757 1812.73 392.225C1833.87 344.639 1812.78 279.815 1759.03 227.143C1745.77 214.151 1741.3 210.271 1728.24 200.406C1674.2 159.606 1601.77 127.989 1538.64 117.643C1529.45 116.138 1492.6 115.941 1491.15 117.389C1490.57 117.971 1493.14 120.304 1497.93 123.546C1502.17 126.418 1515.09 135.654 1526.64 144.071C1544.11 156.804 1547.69 159.832 1547.95 162.097C1548.33 165.311 1546.11 166.587 1542.82 165.044C1541.62 164.479 1531.19 157.164 1519.64 148.79C1476.78 117.718 1444.83 97.6929 1417.14 84.5489C1321.54 39.1819 1244.89 18.5659 1139.14 9.77291C1126.41 8.71491 1069.73 7.7179 1060.64 8.3929ZM1273.77 189.756C1291.98 198.898 1305.1 214.754 1305.12 227.654C1305.14 237.38 1299.52 241.574 1287.88 240.519C1270.35 238.929 1248.05 217.392 1245.59 199.67C1244.43 191.36 1250.3 185.818 1260.27 185.812C1264.84 185.809 1267.39 186.553 1273.77 189.756ZM968.031 194.343C971.619 198.429 972.172 203.821 969.565 209.313C965.659 217.545 949.175 231.806 937.699 236.883C922.272 243.707 909.635 240.147 909.635 228.977C909.635 211.965 936.342 191.039 958.281 190.862C964.666 190.81 965.05 190.948 968.031 194.343ZM1256.14 194.083C1248.79 197.816 1257.02 214.306 1271.73 225.359C1282.46 233.413 1295.89 235.696 1297.45 229.731C1299.52 221.782 1286.22 205.27 1271.6 197.655C1263.16 193.258 1259.45 192.399 1256.14 194.083ZM949.135 199.696C939.954 202.667 933.03 206.753 927.063 212.72C918.292 221.491 914.912 229.548 919.069 231.773C921.851 233.262 924.461 233.062 930.647 230.888C938.863 228 947.487 222.351 955.024 214.917C963.062 206.99 965.053 202.726 962.096 199.769C959.705 197.378 956.354 197.359 949.135 199.696ZM1689.98 282.739C1709.19 291.194 1725.65 300.515 1738.92 310.45C1769.39 333.275 1783.45 359.512 1771.39 371.063C1767.55 374.741 1739.59 388 1734.45 388.581C1732.14 388.842 1729.11 388.768 1727.71 388.417C1721.18 386.777 1713.07 375.686 1701.66 352.808C1697.96 345.383 1692 334.01 1688.41 327.535C1681.36 314.822 1673.09 292.909 1672.82 286.205C1672.47 277.731 1676.67 276.882 1689.98 282.739ZM1351.43 355.287C1376.09 359.156 1395.93 364.99 1417.14 374.602C1441.58 385.683 1497.47 413.255 1502.49 416.711C1505.77 418.967 1507.14 420.588 1507.14 422.234C1507.14 425.953 1504.81 427.112 1498.42 426.581C1492.89 426.123 1492.78 426.159 1495.17 427.708C1496.52 428.588 1499.16 430.695 1501.04 432.39C1503.84 434.928 1504.32 435.94 1503.77 438.125C1502.4 443.593 1499.43 443.073 1469.14 432.042C1443.56 422.732 1392.76 406.149 1381.46 403.425C1351.43 396.183 1330.65 397.59 1301.64 408.831C1281.59 416.596 1279.37 417.22 1275.34 416.219C1270.49 415.013 1269.03 411.348 1271.41 406.351L1273.07 402.876L1265.28 403.477C1252.1 404.493 1248.23 402.052 1246.74 391.794C1246.17 387.875 1246.48 386.661 1249.07 382.571C1256.2 371.337 1280.62 358.73 1303.79 354.333C1313.35 352.519 1336.79 352.988 1351.43 355.287ZM931.772 357.368C947.431 360.603 962.568 367.701 963.737 372.359C964.914 377.046 960.626 380.808 954.107 380.808H951.21L955.535 385.258C962.593 392.521 964.78 399.015 961.665 403.462C959.143 407.063 950.754 411.734 943.675 413.482C937.945 414.896 935.778 414.978 929.761 414.014C916.055 411.816 908.632 411.646 893.507 413.183C860.483 416.539 847.563 420.658 807.283 440.669C771.528 458.432 761.061 461.734 756.135 456.808C753.495 454.168 753.612 452.583 756.717 448.893L759.298 445.825L755.967 446.556C754.134 446.957 748.437 447.291 743.306 447.297C735.219 447.307 733.788 447.05 732.556 445.367C730.392 442.411 730.766 441.34 735.561 436.77C740.855 431.725 742.659 430.669 769.635 416.839C781.185 410.917 797.61 402.26 806.135 397.601C834.877 381.893 864.572 367.019 874.635 363.291C893.809 356.188 915.281 353.962 931.772 357.368ZM432.372 375.826C454.652 378.378 464.733 388.285 462.737 405.664C461.677 414.895 445.332 494.377 441.982 506.594C440.28 512.801 437.92 519.314 436.739 521.068C429.604 531.655 420.827 527.5 401.339 504.312C385.013 484.885 369.327 457.573 362.151 436.082C355.68 416.699 354.807 405.291 359.146 396.787C361.16 392.838 367.736 386.416 373.135 383.124C383.658 376.707 410.839 373.358 432.372 375.826ZM1193.14 443.263C1193.14 445.928 1188.85 450.996 1171.14 469.308C1154.27 486.738 1146.03 497.839 1133.38 520.175L1127.79 530.043L1132.09 533.617C1139.57 539.824 1150.89 553.646 1162.11 570.251C1168.08 579.082 1175.25 588.989 1178.05 592.265C1183.77 598.968 1184.68 603.259 1181.14 606.808C1176.58 611.368 1168.25 607.203 1166.58 599.531C1165.37 593.922 1157.12 576.613 1151.71 568.308C1142.83 554.674 1125.9 535.808 1122.55 535.808C1122.16 535.808 1119.77 537.468 1117.24 539.498C1105.33 549.041 1096.66 557.614 1081.56 574.747C1056.42 603.291 1056.16 603.548 1051.8 604.355C1044.56 605.691 1039.74 599.127 1043.98 593.729C1045.05 592.371 1049.96 588.873 1054.89 585.955C1062.39 581.511 1066.83 577.639 1082.24 562.068C1092.36 551.848 1104.77 540.188 1109.82 536.156C1118.44 529.275 1118.95 528.657 1118.21 526.058C1116.59 520.432 1111.57 511.924 1098.31 492.361C1083.76 470.899 1072.92 458.726 1061.89 451.478C1057.45 448.564 1056.14 447.135 1056.14 445.223C1056.14 441.309 1058.68 441.284 1066.94 445.115C1076.71 449.643 1093.3 455.148 1104.19 457.469C1115.52 459.884 1136.51 459.873 1148.06 457.447C1161.54 454.615 1179.82 446.997 1185.93 441.663C1188.61 439.326 1189.59 438.983 1191.18 439.833C1192.28 440.421 1193.14 441.921 1193.14 443.263ZM1966.2 598.842C1946.24 601.589 1928.34 611.295 1911.85 628.308C1903.34 637.09 1902.14 640.594 1901.45 658.808C1901.02 669.901 1901.29 674.002 1902.93 681.808C1904.03 687.033 1905.42 692.545 1906.01 694.058L1907.08 696.808H1962H2016.92L2020.97 687.558C2025.68 676.789 2029.71 663.412 2031.27 653.403C2032.58 644.906 2031.99 623.158 2030.35 620.17C2029.1 617.881 2017.06 609.807 2008.29 605.377C1997.29 599.82 1979.33 597.033 1966.2 598.842ZM207.135 601.882C197.066 603.018 184.48 606.581 175.018 610.974L166.4 614.975L168.777 622.458C172.657 634.676 174.295 647.662 174.244 665.808C174.219 674.883 173.737 685.008 173.173 688.308C172.608 691.608 172.144 694.871 172.141 695.558C172.136 696.543 183.656 696.808 226.424 696.808H280.714L283.817 691.405C291.322 678.338 295.7 662.724 295.236 650.679C295.101 647.17 282.719 633.049 272.734 625.017C251.691 608.088 227.561 599.579 207.135 601.882ZM131.135 612.315C122.884 614.571 110.247 621.112 101.241 627.79C80.297 643.319 76.167 650.321 76.165 670.308C76.165 679.107 77.8341 688.859 80.2491 694.159L81.4561 696.808H122.649H163.842L165.105 689.558C168.283 671.319 167.393 645.805 162.992 629.002C160.229 618.454 157.879 614.269 153.921 612.851C148.513 610.913 137.233 610.647 131.135 612.315ZM2059.14 616.896C2056.11 617.403 2050.26 619.004 2046.14 620.455L2038.64 623.093L2039.17 631.201C2040.57 652.291 2037.17 669.465 2026.44 695.558C2026.03 696.547 2034.91 696.808 2068.92 696.808H2111.93L2115.17 691.758C2119.53 684.952 2123 676.116 2124.84 667.072L2126.37 659.584L2121.62 650.017C2111.66 629.948 2094.04 618.352 2070.64 616.459C2067.34 616.192 2062.16 616.389 2059.14 616.896ZM1888.14 639.782C1863.47 647.814 1848.97 662.507 1843.12 685.376C1839.86 698.111 1836.82 696.808 1869.75 696.808H1898.37L1897.76 694.558C1894.61 683.004 1893.93 675.919 1894.45 659.948C1894.75 650.796 1895.3 642.071 1895.68 640.558C1896.5 637.293 1895.95 637.237 1888.14 639.782ZM301.784 662.89C301.028 670.127 296.035 685.568 292.488 691.637C291.097 694.017 290.155 696.162 290.396 696.402C290.637 696.643 303.551 696.72 319.096 696.574L347.358 696.308L342.021 688.308C333.712 675.854 324.738 667.708 312.815 661.794C307.286 659.052 302.685 656.808 302.591 656.808C302.497 656.808 302.134 659.545 301.784 662.89ZM58.635 659.271C43.387 662.064 29.295 669.476 20.095 679.542C15.513 684.556 9.16904 694.124 9.14404 696.058C9.13904 696.47 23.515 696.808 41.091 696.808H73.0461L71.435 692.558C70.309 689.588 69.688 683.716 69.372 673.058C68.978 659.714 68.716 657.819 67.278 657.898C66.374 657.948 62.485 658.566 58.635 659.271ZM2132.62 665.647C2131.34 673.878 2128.72 682.177 2125.15 689.286L2121.37 696.808H2140.73H2160.08L2159.51 693.558C2156.39 676.016 2149.28 666.402 2136.91 663.007L2133.19 661.985L2132.62 665.647Z" fill="#FF7596"/>
<path fill-rule="evenodd" clip-rule="evenodd" d="M1060.64 8.3929C1012.82 11.9359 988.725 15.4769 952.635 24.2659C901.711 36.6679 835.585 61.9639 785.135 88.3409C753.916 104.664 715.898 128.953 689.351 149.536C676.095 159.815 656.375 178.122 654.217 182.156C652.46 185.437 649.401 186.502 647.421 184.522C645.249 182.351 646.368 180.03 653.601 171.703L660.024 164.308L654.829 163.593C643.585 162.045 606.58 165.27 577.135 170.365C533.729 177.875 501.647 188.649 456.635 210.832C410.553 233.542 376.135 257.029 347.492 285.308C328.917 303.648 322.629 313.44 316.99 332.808C312.098 349.607 309.784 382.022 312.063 401.808C315.442 431.147 326.479 462.207 346.324 498.22C366.796 535.371 382.802 552.479 424.635 581.922C444.947 596.218 459.705 605.622 460.468 604.755C460.684 604.509 460.386 600.708 459.804 596.308C459.222 591.908 458.721 572.29 458.691 552.711C458.632 515.098 458.782 513.808 463.222 513.808C466.549 513.808 466.92 516.705 466.035 535.808C463.855 582.905 471.616 642.314 485.598 685.558L489.235 696.808H1088.74H1688.24L1689.58 693.558C1692.94 685.461 1702.55 656.144 1706.2 642.902C1715.7 608.362 1719.15 584.353 1719.86 547.755C1720.6 509.989 1718.3 482.568 1711.6 449.308C1706.26 422.782 1698.52 397.056 1689.65 376.417C1686.64 369.405 1686.17 367.475 1687.16 366.282C1687.83 365.471 1689.26 364.808 1690.33 364.808C1694.55 364.808 1707.46 398.703 1715.65 431.292C1718.11 441.126 1720.14 450.055 1720.14 451.134C1720.14 452.987 1720.63 453.058 1729.11 452.418C1745.67 451.168 1761.05 445.984 1774.24 437.211C1789.06 427.352 1805.82 407.757 1812.73 392.225C1833.87 344.639 1812.78 279.815 1759.03 227.143C1745.77 214.151 1741.3 210.271 1728.24 200.406C1674.2 159.606 1601.77 127.989 1538.64 117.643C1529.45 116.138 1492.6 115.941 1491.15 117.389C1490.57 117.971 1493.14 120.304 1497.93 123.546C1502.17 126.418 1515.09 135.654 1526.64 144.071C1544.11 156.804 1547.69 159.832 1547.95 162.097C1548.33 165.311 1546.11 166.587 1542.82 165.044C1541.62 164.479 1531.19 157.164 1519.64 148.79C1476.78 117.718 1444.83 97.6929 1417.14 84.5489C1321.54 39.1819 1244.89 18.5659 1139.14 9.77291C1126.41 8.71491 1069.73 7.7179 1060.64 8.3929ZM1273.77 189.756C1291.98 198.898 1305.1 214.754 1305.12 227.654C1305.14 237.38 1299.52 241.574 1287.88 240.519C1270.35 238.929 1248.05 217.392 1245.59 199.67C1244.43 191.36 1250.3 185.818 1260.27 185.812C1264.84 185.809 1267.39 186.553 1273.77 189.756ZM968.031 194.343C971.619 198.429 972.172 203.821 969.565 209.313C965.659 217.545 949.175 231.806 937.699 236.883C922.272 243.707 909.635 240.147 909.635 228.977C909.635 211.965 936.342 191.039 958.281 190.862C964.666 190.81 965.05 190.948 968.031 194.343ZM1256.14 194.083C1248.79 197.816 1257.02 214.306 1271.73 225.359C1282.46 233.413 1295.89 235.696 1297.45 229.731C1299.52 221.782 1286.22 205.27 1271.6 197.655C1263.16 193.258 1259.45 192.399 1256.14 194.083ZM949.135 199.696C939.954 202.667 933.03 206.753 927.063 212.72C918.292 221.491 914.912 229.548 919.069 231.773C921.851 233.262 924.461 233.062 930.647 230.888C938.863 228 947.487 222.351 955.024 214.917C963.062 206.99 965.053 202.726 962.096 199.769C959.705 197.378 956.354 197.359 949.135 199.696ZM1689.98 282.739C1709.19 291.194 1725.65 300.515 1738.92 310.45C1769.39 333.275 1783.45 359.512 1771.39 371.063C1767.55 374.741 1739.59 388 1734.45 388.581C1732.14 388.842 1729.11 388.768 1727.71 388.417C1721.18 386.777 1713.07 375.686 1701.66 352.808C1697.96 345.383 1692 334.01 1688.41 327.535C1681.36 314.822 1673.09 292.909 1672.82 286.205C1672.47 277.731 1676.67 276.882 1689.98 282.739ZM1351.43 355.287C1376.09 359.156 1395.93 364.99 1417.14 374.602C1441.58 385.683 1497.47 413.255 1502.49 416.711C1505.77 418.967 1507.14 420.588 1507.14 422.234C1507.14 425.953 1504.81 427.112 1498.42 426.581C1492.89 426.123 1492.78 426.159 1495.17 427.708C1496.52 428.588 1499.16 430.695 1501.04 432.39C1503.84 434.928 1504.32 435.94 1503.77 438.125C1502.4 443.593 1499.43 443.073 1469.14 432.042C1443.56 422.732 1392.76 406.149 1381.46 403.425C1351.43 396.183 1330.65 397.59 1301.64 408.831C1281.59 416.596 1279.37 417.22 1275.34 416.219C1270.49 415.013 1269.03 411.348 1271.41 406.351L1273.07 402.876L1265.28 403.477C1252.1 404.493 1248.23 402.052 1246.74 391.794C1246.17 387.875 1246.48 386.661 1249.07 382.571C1256.2 371.337 1280.62 358.73 1303.79 354.333C1313.35 352.519 1336.79 352.988 1351.43 355.287ZM931.772 357.368C947.431 360.603 962.568 367.701 963.737 372.359C964.914 377.046 960.626 380.808 954.107 380.808H951.21L955.535 385.258C962.593 392.521 964.78 399.015 961.665 403.462C959.143 407.063 950.754 411.734 943.675 413.482C937.945 414.896 935.778 414.978 929.761 414.014C916.055 411.816 908.632 411.646 893.507 413.183C860.483 416.539 847.563 420.658 807.283 440.669C771.528 458.432 761.061 461.734 756.135 456.808C753.495 454.168 753.612 452.583 756.717 448.893L759.298 445.825L755.967 446.556C754.134 446.957 748.437 447.291 743.306 447.297C735.219 447.307 733.788 447.05 732.556 445.367C730.392 442.411 730.766 441.34 735.561 436.77C740.855 431.725 742.659 430.669 769.635 416.839C781.185 410.917 797.61 402.26 806.135 397.601C834.877 381.893 864.572 367.019 874.635 363.291C893.809 356.188 915.281 353.962 931.772 357.368ZM432.372 375.826C454.652 378.378 464.733 388.285 462.737 405.664C461.677 414.895 445.332 494.377 441.982 506.594C440.28 512.801 437.92 519.314 436.739 521.068C429.604 531.655 420.827 527.5 401.339 504.312C385.013 484.885 369.327 457.573 362.151 436.082C355.68 416.699 354.807 405.291 359.146 396.787C361.16 392.838 367.736 386.416 373.135 383.124C383.658 376.707 410.839 373.358 432.372 375.826ZM1193.14 443.263C1193.14 445.928 1188.85 450.996 1171.14 469.308C1154.27 486.738 1146.03 497.839 1133.38 520.175L1127.79 530.043L1132.09 533.617C1139.57 539.824 1150.89 553.646 1162.11 570.251C1168.08 579.082 1175.25 588.989 1178.05 592.265C1183.77 598.968 1184.68 603.259 1181.14 606.808C1176.58 611.368 1168.25 607.203 1166.58 599.531C1165.37 593.922 1157.12 576.613 1151.71 568.308C1142.83 554.674 1125.9 535.808 1122.55 535.808C1122.16 535.808 1119.77 537.468 1117.24 539.498C1105.33 549.041 1096.66 557.614 1081.56 574.747C1056.42 603.291 1056.16 603.548 1051.8 604.355C1044.56 605.691 1039.74 599.127 1043.98 593.729C1045.05 592.371 1049.96 588.873 1054.89 585.955C1062.39 581.511 1066.83 577.639 1082.24 562.068C1092.36 551.848 1104.77 540.188 1109.82 536.156C1118.44 529.275 1118.95 528.657 1118.21 526.058C1116.59 520.432 1111.57 511.924 1098.31 492.361C1083.76 470.899 1072.92 458.726 1061.89 451.478C1057.45 448.564 1056.14 447.135 1056.14 445.223C1056.14 441.309 1058.68 441.284 1066.94 445.115C1076.71 449.643 1093.3 455.148 1104.19 457.469C1115.52 459.884 1136.51 459.873 1148.06 457.447C1161.54 454.615 1179.82 446.997 1185.93 441.663C1188.61 439.326 1189.59 438.983 1191.18 439.833C1192.28 440.421 1193.14 441.921 1193.14 443.263ZM1966.2 598.842C1946.24 601.589 1928.34 611.295 1911.85 628.308C1903.34 637.09 1902.14 640.594 1901.45 658.808C1901.02 669.901 1901.29 674.002 1902.93 681.808C1904.03 687.033 1905.42 692.545 1906.01 694.058L1907.08 696.808H1962H2016.92L2020.97 687.558C2025.68 676.789 2029.71 663.412 2031.27 653.403C2032.58 644.906 2031.99 623.158 2030.35 620.17C2029.1 617.881 2017.06 609.807 2008.29 605.377C1997.29 599.82 1979.33 597.033 1966.2 598.842ZM207.135 601.882C197.066 603.018 184.48 606.581 175.018 610.974L166.4 614.975L168.777 622.458C172.657 634.676 174.295 647.662 174.244 665.808C174.219 674.883 173.737 685.008 173.173 688.308C172.608 691.608 172.144 694.871 172.141 695.558C172.136 696.543 183.656 696.808 226.424 696.808H280.714L283.817 691.405C291.322 678.338 295.7 662.724 295.236 650.679C295.101 647.17 282.719 633.049 272.734 625.017C251.691 608.088 227.561 599.579 207.135 601.882ZM131.135 612.315C122.884 614.571 110.247 621.112 101.241 627.79C80.297 643.319 76.167 650.321 76.165 670.308C76.165 679.107 77.8341 688.859 80.2491 694.159L81.4561 696.808H122.649H163.842L165.105 689.558C168.283 671.319 167.393 645.805 162.992 629.002C160.229 618.454 157.879 614.269 153.921 612.851C148.513 610.913 137.233 610.647 131.135 612.315ZM2059.14 616.896C2056.11 617.403 2050.26 619.004 2046.14 620.455L2038.64 623.093L2039.17 631.201C2040.57 652.291 2037.17 669.465 2026.44 695.558C2026.03 696.547 2034.91 696.808 2068.92 696.808H2111.93L2115.17 691.758C2119.53 684.952 2123 676.116 2124.84 667.072L2126.37 659.584L2121.62 650.017C2111.66 629.948 2094.04 618.352 2070.64 616.459C2067.34 616.192 2062.16 616.389 2059.14 616.896ZM1888.14 639.782C1863.47 647.814 1848.97 662.507 1843.12 685.376C1839.86 698.111 1836.82 696.808 1869.75 696.808H1898.37L1897.76 694.558C1894.61 683.004 1893.93 675.919 1894.45 659.948C1894.75 650.796 1895.3 642.071 1895.68 640.558C1896.5 637.293 1895.95 637.237 1888.14 639.782ZM301.784 662.89C301.028 670.127 296.035 685.568 292.488 691.637C291.097 694.017 290.155 696.162 290.396 696.402C290.637 696.643 303.551 696.72 319.096 696.574L347.358 696.308L342.021 688.308C333.712 675.854 324.738 667.708 312.815 661.794C307.286 659.052 302.685 656.808 302.591 656.808C302.497 656.808 302.134 659.545 301.784 662.89ZM58.635 659.271C43.387 662.064 29.295 669.476 20.095 679.542C15.513 684.556 9.16904 694.124 9.14404 696.058C9.13904 696.47 23.515 696.808 41.091 696.808H73.0461L71.435 692.558C70.309 689.588 69.688 683.716 69.372 673.058C68.978 659.714 68.716 657.819 67.278 657.898C66.374 657.948 62.485 658.566 58.635 659.271ZM2132.62 665.647C2131.34 673.878 2128.72 682.177 2125.15 689.286L2121.37 696.808H2140.73H2160.08L2159.51 693.558C2156.39 676.016 2149.28 666.402 2136.91 663.007L2133.19 661.985L2132.62 665.647Z" fill="white"/>
</svg>
