<svg width="42" height="39" viewBox="0 0 42 39" fill="none" xmlns="http://www.w3.org/2000/svg">
<path d="M1.50777 0C0.675053 0 0 0.671573 0 1.5C0 2.32843 0.675053 3 1.50777 3H4.29351C4.63507 3 4.93394 3.22845 5.02194 3.55675L10.1639 22.7398C6.91924 23.577 4.52332 26.5102 4.52332 30C4.52332 30.8284 5.19837 31.5 6.0311 31.5H37.6943C38.5271 31.5 39.2021 30.8284 39.2021 30C39.2021 29.1716 38.5271 28.5 37.6943 28.5H7.79625C8.41721 26.7522 10.0927 25.5 12.0622 25.5H34.615C35.1916 25.5 35.7178 25.1728 35.9704 24.6571C38.2525 19.998 40.2441 15.1721 41.9216 10.2025C42.055 9.80714 42.017 9.37433 41.8166 9.00799C41.6162 8.64165 41.2715 8.37485 40.8653 8.27165C31.1717 5.80884 21.0156 4.5 10.5544 4.5C9.83504 4.5 9.11712 4.50619 8.40067 4.51852L7.93567 2.78376C7.49565 1.14218 6.00124 0 4.29351 0H1.50777Z" fill="#FF7596"/>
<path d="M4.52332 36C4.52332 34.3431 5.87343 33 7.53887 33C9.20431 33 10.5544 34.3431 10.5544 36C10.5544 37.6569 9.20431 39 7.53887 39C5.87343 39 4.52332 37.6569 4.52332 36Z" fill="#FF7596"/>
<path d="M30.1555 36C30.1555 34.3431 31.5056 33 33.171 33C34.8365 33 36.1866 34.3431 36.1866 36C36.1866 37.6569 34.8365 39 33.171 39C31.5056 39 30.1555 37.6569 30.1555 36Z" fill="#FF7596"/>
</svg>
