<svg width="600" height="200" viewBox="0 0 600 200" fill="none" xmlns="http://www.w3.org/2000/svg">
<path d="M78.8057 106.17C70.8548 110.123 61.7395 111.072 53.1429 108.84C40.7222 105.91 29.8541 100.31 21.0895 90.9596C17.0751 86.9175 14.0395 82.0125 12.2147 76.6197C10.9188 72.8565 10.6696 68.813 11.4935 64.9196C13.2164 57.6596 19.8174 53.9196 27.4301 55.9196C31.8564 57.1865 36.0405 59.1804 39.8107 61.8197C45.9309 65.8197 51.8307 70.1596 58.2013 73.7396C64.2114 77.1096 70.5119 79.6397 77.4835 80.1197C82.0783 80.5612 86.7145 80.0087 91.0761 78.4997C92.933 77.7673 94.6328 76.688 96.0845 75.3197C103.557 68.5697 112.332 64.2697 121.968 61.5597C128.094 60.0103 134.364 59.0987 140.679 58.8397C152.388 58.0597 163.928 59.3697 175.427 61.4097C179.914 62.1997 184.442 62.7597 188.949 63.4097C189.228 63.4495 189.509 63.4696 189.791 63.4697C190.363 63.5354 190.94 63.4023 191.426 63.0926C191.911 62.783 192.275 62.3157 192.455 61.7696C196.752 52.6096 201.68 43.8296 208.482 36.1996C210.846 33.5396 213.079 30.7697 215.413 28.0897C215.601 27.8876 215.736 27.6416 215.804 27.3743C215.872 27.107 215.872 26.827 215.804 26.5597C215.575 25.2191 215.512 23.8557 215.614 22.4997C215.657 21.3945 215.99 20.3199 216.578 19.383C217.167 18.4461 217.991 17.6795 218.969 17.1597C221.844 15.5497 224.849 14.4697 228.245 15.1597C229.089 15.1995 229.916 14.9089 230.549 14.3497C233.147 12.7769 236.013 11.6924 239.003 11.1497C239.472 11.0524 239.886 10.7762 240.155 10.3797C241.459 8.76293 242.875 7.23922 244.392 5.81967C247.337 3.15967 250.402 3.42967 252.866 6.53967C253.633 7.51277 254.257 8.59031 254.719 9.73965C254.813 10.0197 254.99 10.2648 255.225 10.4432C255.461 10.6216 255.746 10.7249 256.041 10.7396C265.477 11.9696 272.458 16.9597 277.497 24.8697C277.588 25.0673 277.727 25.2388 277.902 25.3682C278.078 25.4975 278.283 25.5806 278.498 25.6096C278.89 25.6836 279.275 25.7872 279.65 25.9196C285.861 27.5796 288.986 31.9197 289.887 37.9897C291.069 45.9097 289.387 53.3397 285.67 60.4097C282.555 66.3597 278.258 71.4096 273.65 76.1796C271.432 78.3712 269.519 80.85 267.961 83.5496C266.619 86.0296 266.589 88.7496 266.008 91.4296C266.529 91.4296 266.739 91.0097 267.009 90.8097C269.013 89.4797 270.625 90.0497 271.337 92.3397C271.573 93.1865 271.698 94.0606 271.707 94.9397C272.043 99.5399 271.252 104.153 269.403 108.38C268.923 109.38 268.402 110.63 267.029 110.63C265.657 110.63 265.357 109.32 264.806 108.38C264.384 107.61 264.083 106.781 263.914 105.92C263.854 105.64 263.994 105.17 263.524 105.18C263.053 105.19 263.193 105.66 263.123 105.95C261.374 113.081 258.63 119.932 254.969 126.3C251.526 132.403 247.065 137.875 241.777 142.48C241.246 142.94 241.337 143.31 241.427 143.82C242.583 149.776 244.608 155.53 247.437 160.9C250.151 166.36 253.337 171.58 255.63 177.25C256.993 180.59 258.044 184.01 257.473 187.72C257.103 190.043 255.949 192.17 254.202 193.749C252.455 195.327 250.22 196.263 247.867 196.4C243.773 196.54 239.71 195.653 236.048 193.82C229.795 190.815 224.185 186.628 219.53 181.49C217.647 179.49 215.784 177.44 213.911 175.42C213.57 175.06 213.36 174.68 212.839 175.34C208.14 181.213 201.754 185.511 194.539 187.66C189.881 189.18 185.153 190.29 180.185 189.91C177.774 189.803 175.437 189.047 173.423 187.72C172.201 186.964 171.29 185.796 170.856 184.427C170.422 183.058 170.494 181.58 171.059 180.26C171.815 178.228 173.085 176.426 174.746 175.03C176.909 173.13 179.163 171.34 181.176 169.28C182.586 167.971 183.702 166.38 184.452 164.61C184.742 163.83 184.742 163.42 183.721 163.44C174.044 163.62 164.629 161.74 155.223 159.76C153.299 159.185 151.286 158.965 149.283 159.11C147.751 159.35 146.278 159.71 144.726 160.11C144.328 160.194 143.979 160.431 143.754 160.769C143.529 161.108 143.446 161.521 143.524 161.92C143.637 164.152 143.881 166.376 144.255 168.58C144.44 169.38 144.792 170.133 145.29 170.788C145.787 171.443 146.417 171.985 147.14 172.38C149.734 173.94 152.398 175.38 154.973 177C157.123 178.188 158.867 179.993 159.981 182.18C160.525 183.3 160.787 184.536 160.747 185.78C160.706 187.024 160.362 188.24 159.746 189.322C159.13 190.405 158.26 191.321 157.21 191.993C156.161 192.665 154.963 193.072 153.721 193.18C143.423 194.18 133.627 192.44 125.053 186.18C122.86 184.61 121.222 182.387 120.375 179.83C118.852 175.3 115.216 172.91 111.11 171.07C110.618 170.894 110.098 170.812 109.577 170.83C107.21 170.716 104.84 170.996 102.565 171.66C98.9906 172.744 95.4735 174.008 92.0277 175.45C88.2595 177.24 84.9035 179.79 82.1713 182.94C79.3605 186.226 76.0997 189.101 72.4852 191.48C70.1848 192.943 67.5974 193.897 64.8969 194.278C62.1964 194.659 59.4454 194.458 56.8291 193.69C50.9893 192.13 49.6371 186.5 51.0795 182.36C52.2467 179.472 53.9037 176.806 55.9776 174.48C57.5503 172.48 59.1429 170.56 60.6855 168.57C62.7996 165.839 64.0826 162.558 64.3816 159.12C64.616 156.225 65.936 153.525 68.0778 151.56C68.809 150.87 69.5703 150.22 70.2715 149.56C71.7362 148.085 72.8712 146.318 73.6015 144.373C74.3319 142.429 74.641 140.352 74.5085 138.28C74.2891 127.522 75.832 116.801 79.0761 106.54V106.12L78.8057 106.17ZM158.438 183.86L158.609 184.01V183.84L158.438 183.9C158.829 183.62 158.498 183.32 158.438 183.1C157.548 181.304 156.157 179.803 154.432 178.78C151.978 177.05 149.223 175.78 146.699 174.22C145.401 173.495 144.315 172.443 143.551 171.17C142.786 169.896 142.369 168.444 142.342 166.96C142.365 165.483 142.172 164.011 141.771 162.59C141.45 161.66 141.21 161.35 140.228 161.92C134.158 165.326 127.471 167.495 120.555 168.3C118.091 168.64 115.647 169.08 112.923 169.51C113.514 169.84 113.854 170.02 114.185 170.22C117.791 172.47 121.096 175 122.398 179.33C123.144 181.588 124.639 183.524 126.635 184.82C134.048 190.12 142.472 191.71 151.377 191.52C151.867 191.52 151.968 191.35 151.897 190.87C151.76 189.521 151.365 188.211 150.736 187.01C150.415 186.47 150.044 185.89 150.736 185.45C151.427 185.01 151.898 185.67 152.218 186.21C152.935 187.503 153.378 188.929 153.52 190.4C153.52 190.77 153.44 191.4 154.191 191.18C155.708 190.768 157.046 189.868 157.998 188.62C158.091 188.473 158.154 188.308 158.184 188.137C158.213 187.965 158.208 187.789 158.168 187.62C157.865 185.955 156.968 184.455 155.644 183.4C155.263 183.05 155.033 182.6 155.423 182.14C155.814 181.68 156.375 181.8 156.796 182.14C157.327 182.73 157.877 183.3 158.438 183.86ZM203.403 162.86C202.366 161.318 201.119 159.928 199.697 158.73C199.106 158.29 198.696 157.79 199.497 157.22C199.998 156.86 200.499 157.22 200.919 157.52C201.962 158.335 202.882 159.295 203.654 160.37C209.45 167.816 215.685 174.912 222.325 181.62C227.014 186.619 232.749 190.525 239.123 193.06C242.175 194.41 245.542 194.887 248.849 194.44C249.6 194.31 249.67 194.05 249.41 193.44C249.06 192.546 248.577 191.71 247.978 190.96C247.894 190.886 247.828 190.795 247.782 190.693C247.736 190.591 247.713 190.481 247.713 190.37C247.713 190.258 247.736 190.148 247.782 190.046C247.828 189.945 247.894 189.854 247.978 189.78C248.065 189.695 248.17 189.63 248.285 189.589C248.4 189.548 248.522 189.532 248.644 189.542C248.765 189.553 248.883 189.589 248.99 189.649C249.096 189.709 249.188 189.791 249.26 189.89C249.814 190.476 250.265 191.152 250.592 191.89C251.594 193.82 251.594 193.89 253.116 192.34C255.53 189.77 256.071 188.9 252.695 186.77C252.195 186.45 251.844 185.94 252.185 185.34C252.525 184.74 253.186 184.88 253.647 185.22C254.348 185.7 254.999 186.22 255.751 186.84C255.873 185.366 255.751 183.883 255.39 182.45C254.388 178.19 252.335 174.33 250.322 170.45C247.517 165.08 244.532 159.8 242.408 154.11C240.386 149.101 239.283 143.769 239.153 138.37C239.153 137.79 239.153 137.17 239.954 137.15C240.756 137.13 240.906 137.71 240.956 138.38C240.868 139.142 240.967 139.914 241.246 140.63C241.777 140.12 242.248 139.72 242.649 139.31C249.211 132.881 254.341 125.142 257.704 116.6C259.233 113.086 260.44 109.441 261.31 105.71C261.37 105.43 261.761 105.05 261.31 104.77C260.754 104.548 260.148 104.479 259.556 104.57C258.964 104.662 258.407 104.91 257.944 105.29C256.227 107.079 254.372 108.731 252.395 110.23C251.4 111.045 250.189 111.553 248.909 111.69C246.365 111.81 244.832 110.27 243.65 108.32C241.817 105.062 240.994 101.335 241.286 97.6096C241.305 95.2456 241.841 92.9143 242.859 90.7797C243.544 89.2221 244.785 87.975 246.34 87.2816C247.896 86.5883 249.655 86.4985 251.273 87.0297C253.705 87.6972 255.995 88.7982 258.034 90.2797C259.357 91.2797 260.539 92.2797 262.312 91.4697C262.943 91.1997 263.804 91.9997 264.245 91.3797C264.535 90.7265 264.699 90.0239 264.726 89.3097V89.0697C265.036 84.1497 267.36 80.1997 270.665 76.7197C271.577 75.7697 272.468 74.7897 273.36 73.8197C276.475 70.6561 279.285 67.2076 281.754 63.5196C285.881 56.9496 288.605 49.9597 288.505 42.0397C288.522 40.2219 287.857 38.4636 286.642 37.1096C285.862 36.2223 284.907 35.505 283.837 35.0026C282.766 34.5002 281.604 34.2235 280.422 34.1897C279.71 34.1297 278.849 34.0697 278.799 33.1197C278.749 32.1697 279.6 32.1197 280.251 32.0397C281.716 31.78 283.079 31.1187 284.188 30.1297C282.325 28.5986 280.076 27.6091 277.687 27.2696C277.378 27.2471 277.079 27.1486 276.816 26.9829C276.554 26.8171 276.337 26.5893 276.185 26.3197C271.537 18.6297 264.936 13.8297 255.901 12.5897C251.382 12.0148 246.812 11.9511 242.278 12.3997C238.639 12.6617 235.101 13.7127 231.911 15.4796C231.48 15.7196 230.849 15.8896 230.789 16.4796C230.679 17.6796 229.877 17.6197 229.156 17.3397C226.071 16.1197 223.256 16.9997 220.522 18.3397C217.958 19.6197 217.196 21.0396 217.397 23.9796C217.74 29.6276 219.594 35.0803 222.766 39.7696C224.248 41.9696 225.901 44.0197 228.415 45.1497C228.856 45.3397 229.156 45.6697 228.966 46.1497C228.776 46.6297 228.325 46.6997 227.864 46.6297C227.085 46.4426 226.363 46.0684 225.761 45.5397C222.074 42.6897 219.751 38.8397 218.028 34.6197C217.367 33.0197 216.876 31.3397 216.255 29.5597C215.133 30.8897 214.121 32.1696 213.039 33.3896C204.924 42.4422 198.328 52.7451 193.507 63.8997C193.367 64.2397 193.186 64.6297 192.816 64.6797C191.684 64.8297 190.612 65.3797 189.42 65.2097C183.931 64.3797 178.402 63.6697 172.943 62.7397C164.85 61.2896 156.652 60.5069 148.432 60.3997C142.83 60.3662 137.233 60.7339 131.684 61.4997C121.667 62.7599 112.073 66.2936 103.637 71.8296C96.5636 76.4937 90.8184 82.9046 86.9593 90.4397C84.4092 95.6701 82.3956 101.145 80.9493 106.78C77.9443 117.43 75.9409 128.19 76.2815 139.33C76.4269 143.006 75.1786 146.602 72.7856 149.4C71.7754 150.586 70.6879 151.706 69.5302 152.75C67.6437 154.408 66.4705 156.729 66.2548 159.23C65.8642 163.468 64.1748 167.484 61.4167 170.73C59.784 172.73 58.1513 174.73 56.5386 176.81C54.802 178.802 53.4959 181.13 52.7022 183.65C52.2715 185.28 52.3316 185.35 54.0144 185.03C54.4886 184.963 54.955 184.849 55.4067 184.69C55.9776 184.46 56.4584 184.47 56.6988 185.08C56.9392 185.69 56.4985 186.02 55.9877 186.26C55.1291 186.59 54.2225 186.779 53.3032 186.82C53.0427 186.82 52.6621 186.74 52.6721 187.29C52.6887 187.807 52.8197 188.315 53.056 188.776C53.2922 189.237 53.6277 189.64 54.0385 189.957C54.4492 190.273 54.925 190.495 55.4317 190.606C55.9385 190.717 56.4635 190.715 56.9693 190.6C57.5492 190.449 58.0916 190.18 58.5619 189.81C59.0227 189.45 59.5636 189.3 59.9242 189.81C60.2848 190.32 59.9242 190.81 59.5736 191.16C59.2231 191.51 58.6621 191.58 58.3816 192.16C62.5426 193.18 66.9376 192.549 70.6421 190.4C74.4393 188.104 77.8249 185.191 80.6588 181.78C84.0407 177.979 88.2292 174.98 92.9192 173C99.9687 170.103 107.384 168.189 114.956 167.31C123.971 166.16 132.756 164.2 140.809 159.58C144.076 157.649 147.887 156.845 151.657 157.29C154.382 157.65 157.076 158.29 159.781 158.79C164.57 159.902 169.424 160.714 174.315 161.22C181.056 161.7 187.827 161.83 194.599 161.75C195.439 161.758 196.278 161.812 197.113 161.91C199.206 162.07 201.14 162.4 203.403 162.83V162.86ZM91.1162 80.6096C90.9843 80.5487 90.8408 80.5172 90.6955 80.5172C90.5502 80.5172 90.4067 80.5487 90.2748 80.6096C87.9464 81.3374 85.5382 81.7807 83.1028 81.9296C75.4426 82.4099 67.7953 80.8063 60.976 77.2897C54.2448 73.9097 48.0745 69.6397 41.8741 65.4097C37.617 62.5097 33.3199 59.6797 28.3416 58.0997C24.7957 56.9797 21.2598 56.5897 17.9543 58.7497C13.587 61.6097 12.5553 65.9697 12.9459 70.7497C13.4367 76.7497 16.0912 81.7996 19.7372 86.4296C26.6679 95.1517 36.0454 101.613 46.6721 104.99C52.9726 107.1 59.4234 108.82 66.1646 107.99C70.7222 107.41 75.1796 106.32 79.0661 103.61C79.7366 103.185 80.2173 102.519 80.4084 101.75C81.3513 98.4133 82.5812 95.1646 84.0845 92.0397C85.9795 87.9626 88.339 84.1172 91.1162 80.5796V80.6096ZM192.285 163.52H187.276C186.906 163.52 186.475 163.37 186.415 164.03C186.133 165.812 185.324 167.47 184.091 168.79C181.837 171.62 178.993 173.86 176.308 176.24C175.018 177.325 173.965 178.662 173.213 180.17C171.891 183.04 172.672 185.28 175.487 186.73C178.248 188.051 181.341 188.521 184.372 188.08C189.896 187.47 195.262 185.861 200.208 183.33C204.546 181.173 208.363 178.103 211.397 174.33C211.535 174.211 211.645 174.062 211.717 173.894C211.789 173.727 211.822 173.545 211.814 173.363C211.805 173.18 211.755 173.003 211.667 172.843C211.579 172.683 211.456 172.545 211.307 172.44C209.757 170.825 208.299 169.126 206.939 167.35C205.798 165.847 204.138 164.82 202.281 164.47C199.004 163.705 195.639 163.375 192.275 163.49L192.285 163.52ZM243.039 98.3997V99.2197C242.954 102.345 243.843 105.42 245.584 108.02C247.066 110.13 248.639 110.4 250.792 109.02C252.655 107.84 254.108 106.15 255.801 104.79C256.558 104.225 257.13 103.448 257.442 102.557C257.754 101.666 257.793 100.703 257.554 99.7897C257.083 97.6191 257.44 95.3512 258.555 93.4296C258.886 92.8996 258.555 92.7497 258.225 92.4997C256.052 90.8851 253.629 89.6353 251.053 88.7996C250.408 88.5563 249.721 88.4428 249.032 88.4656C248.343 88.4883 247.665 88.647 247.037 88.9323C246.41 89.2176 245.845 89.6241 245.376 90.1282C244.906 90.6323 244.541 91.2241 244.302 91.8697C243.399 93.9252 242.967 96.1563 243.039 98.3997ZM259.156 97.8097C259.246 99.2597 259.317 100.57 259.407 101.87C259.407 102.41 259.627 102.74 260.258 102.8C261.2 102.88 262.141 103.06 263.083 103.21C263.407 103.297 263.752 103.259 264.049 103.103C264.346 102.947 264.573 102.685 264.685 102.37C265.424 100.872 265.883 99.252 266.038 97.5897C266.152 96.4762 265.899 95.356 265.317 94.3997C264.475 93.1397 263.133 93.0497 261.791 93.2197C261.212 93.2953 260.673 93.5565 260.256 93.9641C259.839 94.3717 259.565 94.9035 259.477 95.4796C259.23 96.2306 259.121 97.02 259.156 97.8097ZM267.17 108.59C267.357 108.327 267.528 108.054 267.68 107.77C268.909 105.095 269.655 102.224 269.884 99.2897C270.194 97.1987 270.133 95.0695 269.704 92.9997C269.564 92.4997 269.554 91.7096 268.642 91.9296C267.57 92.1996 266.819 93.1596 267.13 93.9296C268.462 97.4296 267.58 100.64 265.897 103.75C265.686 104.038 265.59 104.394 265.627 104.75C265.825 106.14 266.365 107.459 267.2 108.59H267.17ZM242.398 10.5897C245.874 10.1797 249.34 10.5897 252.886 10.3797C252.414 9.11308 251.688 7.95607 250.752 6.97964C250.496 6.65649 250.177 6.38812 249.814 6.19039C249.451 5.99267 249.053 5.86961 248.642 5.82858C248.231 5.78754 247.816 5.82936 247.421 5.9515C247.027 6.07365 246.661 6.27366 246.345 6.53967C244.851 7.6866 243.532 9.0441 242.428 10.5697L242.398 10.5897ZM283.347 32.8997C284.655 33.3264 285.888 33.9539 287.003 34.7596C287.123 34.2396 286.822 33.9297 286.652 33.5897C285.47 31.3097 285.46 31.3097 283.347 32.8997Z" fill="#FF7596"/>
<path d="M203.403 162.83C201.139 162.44 199.186 162.07 197.203 161.89C196.368 161.792 195.529 161.738 194.689 161.73C187.917 161.81 181.146 161.68 174.405 161.2C169.514 160.694 164.66 159.882 159.87 158.77C157.166 158.23 154.471 157.63 151.747 157.27C147.977 156.825 144.166 157.629 140.899 159.56C132.886 164.18 124.101 166.14 115.046 167.29C107.474 168.169 100.059 170.083 93.009 172.98C88.3191 174.96 84.1306 177.959 80.7486 181.76C77.9148 185.171 74.5291 188.084 70.7319 190.38C67.033 192.524 62.6462 193.154 58.4915 192.14C58.772 191.6 59.343 191.53 59.6835 191.14C60.0241 190.75 60.4348 190.33 60.0341 189.79C59.6334 189.25 59.1326 189.41 58.6718 189.79C58.2015 190.16 57.6591 190.429 57.0792 190.58C56.5736 190.698 56.0481 190.703 55.5403 190.595C55.0325 190.487 54.555 190.267 54.1422 189.953C53.7294 189.638 53.3916 189.236 53.153 188.776C52.9143 188.315 52.7808 187.808 52.762 187.29C52.762 186.74 53.1326 186.84 53.393 186.82C54.3123 186.779 55.2189 186.59 56.0775 186.26C56.5884 186.02 57.0291 185.71 56.7887 185.08C56.5483 184.45 56.0675 184.46 55.4965 184.69C55.0448 184.849 54.5784 184.963 54.1042 185.03C52.4214 185.35 52.3613 185.28 52.792 183.65C53.5858 181.13 54.8918 178.802 56.6284 176.81C58.2411 174.81 59.8738 172.75 61.5065 170.73C64.2647 167.484 65.954 163.468 66.3446 159.23C66.5604 156.729 67.7336 154.408 69.6201 152.75C70.7777 151.706 71.8652 150.587 72.8755 149.4C75.2636 146.596 76.5048 142.997 76.3513 139.32C76.0207 128.18 77.984 117.42 81.0191 106.77C82.4654 101.135 84.479 95.6601 87.0291 90.4297C90.8882 82.8946 96.6335 76.4838 103.707 71.8197C112.143 66.2836 121.737 62.75 131.754 61.4897C137.303 60.7239 142.9 60.3563 148.502 60.3897C156.738 60.5245 164.95 61.3373 173.052 62.8197C178.522 63.7497 184.071 64.4597 189.53 65.2897C190.722 65.4597 191.794 64.9097 192.926 64.7597C193.296 64.7097 193.477 64.3197 193.617 63.9797C198.438 52.8252 205.034 42.5222 213.149 33.4697C214.231 32.2497 215.243 30.9697 216.365 29.6397C216.986 31.4197 217.476 33.0997 218.138 34.6997C219.88 38.9197 222.144 42.7697 225.87 45.6197C226.472 46.1485 227.194 46.5226 227.974 46.7097C228.435 46.7797 228.886 46.7097 229.076 46.2297C229.266 45.7497 228.966 45.3797 228.525 45.2297C226.011 44.0997 224.358 42.0497 222.876 39.8497C219.704 35.1603 217.85 29.7076 217.507 24.0597C217.306 21.1197 218.067 19.6997 220.632 18.4197C223.366 17.0397 226.181 16.1597 229.266 17.4197C229.987 17.6997 230.789 17.7597 230.899 16.5597C230.959 15.9897 231.59 15.8197 232.021 15.5597C235.171 13.78 238.671 12.702 242.278 12.3997C246.78 11.9446 251.319 11.9949 255.81 12.5497C264.825 13.7897 271.446 18.5497 276.094 26.2797C276.247 26.5494 276.464 26.7772 276.726 26.9429C276.988 27.1087 277.287 27.2072 277.597 27.2297C279.986 27.5691 282.235 28.5587 284.098 30.0897C282.988 31.0787 281.625 31.7401 280.161 31.9997C279.51 32.1097 278.658 32.1497 278.709 33.0797C278.759 34.0097 279.62 34.0797 280.331 34.1497C281.513 34.1835 282.676 34.4603 283.746 34.9627C284.816 35.4651 285.771 36.1824 286.552 37.0697C287.767 38.4237 288.431 40.1819 288.415 41.9997C288.515 49.9197 285.79 56.9097 281.663 63.4797C279.194 67.1676 276.384 70.6161 273.269 73.7797C272.378 74.7797 271.487 75.7297 270.575 76.6797C267.269 80.1597 264.946 84.1097 264.635 89.0297V89.2697C264.608 89.9839 264.445 90.6865 264.154 91.3397C263.714 91.9597 262.852 91.1597 262.221 91.4297C260.448 92.2097 259.266 91.2397 257.944 90.2397C255.905 88.7583 253.614 87.6572 251.183 86.9897C249.564 86.4585 247.806 86.5483 246.25 87.2417C244.694 87.935 243.453 89.1822 242.769 90.7397C241.751 92.8743 241.214 95.2057 241.196 97.5697C240.903 101.295 241.726 105.023 243.56 108.28C244.742 110.23 246.274 111.77 248.819 111.65C250.098 111.513 251.31 111.005 252.305 110.19C254.281 108.691 256.137 107.039 257.854 105.25C258.317 104.87 258.873 104.622 259.465 104.53C260.057 104.439 260.663 104.508 261.219 104.73C261.71 105.01 261.32 105.39 261.219 105.67C260.363 109.4 259.169 113.045 257.653 116.56C254.271 125.084 249.128 132.802 242.558 139.21C242.128 139.62 241.687 140.02 241.156 140.53C240.877 139.815 240.777 139.042 240.865 138.28C240.865 137.61 240.675 137.04 239.864 137.05C239.052 137.06 239.062 137.69 239.062 138.27C239.193 143.669 240.295 149.001 242.318 154.01C244.441 159.7 247.426 165.01 250.231 170.35C252.234 174.2 254.238 178.06 255.3 182.35C255.66 183.783 255.782 185.267 255.66 186.74C254.909 186.16 254.258 185.6 253.557 185.12C253.066 184.78 252.465 184.6 252.094 185.24C251.724 185.88 252.094 186.35 252.605 186.67C255.981 188.8 255.44 189.67 253.026 192.24C251.553 193.8 251.463 193.72 250.502 191.79C250.174 191.053 249.724 190.376 249.169 189.79C249.098 189.691 249.005 189.609 248.899 189.549C248.793 189.489 248.675 189.453 248.553 189.442C248.432 189.432 248.309 189.448 248.194 189.489C248.079 189.53 247.975 189.595 247.887 189.68C247.804 189.754 247.737 189.845 247.691 189.946C247.646 190.048 247.622 190.158 247.622 190.27C247.622 190.381 247.646 190.491 247.691 190.593C247.737 190.695 247.804 190.786 247.887 190.86C248.486 191.61 248.969 192.446 249.32 193.34C249.58 193.98 249.51 194.24 248.759 194.34C245.451 194.787 242.084 194.31 239.032 192.96C232.659 190.425 226.923 186.519 222.234 181.52C215.594 174.812 209.36 167.716 203.563 160.27C202.792 159.195 201.871 158.235 200.829 157.42C200.408 157.12 199.907 156.76 199.406 157.12C198.615 157.69 199.016 158.19 199.607 158.63C201.065 159.843 202.343 161.257 203.403 162.83ZM253.296 55.8297C258.625 55.2597 262.852 52.8797 265.316 47.9497C266.939 44.6897 264.906 41.6897 261.31 41.5597C257.303 41.4097 254.138 43.2097 251.293 45.7797C249.717 47.0997 248.654 48.9288 248.288 50.9497C248.168 51.5597 248.197 52.1895 248.371 52.7863C248.545 53.3831 248.86 53.9295 249.29 54.3797C249.807 54.9061 250.434 55.3117 251.127 55.5676C251.82 55.8234 252.56 55.9232 253.296 55.8597V55.8297ZM256.411 39.9597C257.267 39.8069 258.088 39.5021 258.835 39.0597C261.84 37.7397 264.625 35.8497 267.71 34.6197C268.381 34.3497 269.333 34.1297 269.093 33.1197C268.852 32.1097 267.881 32.5097 267.169 32.5397C266.989 32.5397 266.759 32.6897 266.638 32.4797C266.582 32.3744 266.557 32.2548 266.568 32.1357C266.578 32.0166 266.624 31.9032 266.699 31.8097C267.43 30.6597 267.209 30.0597 265.907 29.6097C265.06 29.2877 264.141 29.2013 263.248 29.3598C262.356 29.5183 261.523 29.9157 260.839 30.5097C258.325 32.6097 256.772 35.5097 255.009 38.1997C254.428 39.1297 255.059 39.9697 256.411 39.9897V39.9597ZM229.086 25.4297C229.115 24.5733 228.961 23.7206 228.632 22.9288C228.304 22.1371 227.81 21.4247 227.183 20.8397C226.728 20.4147 226.159 20.1308 225.546 20.0225C224.932 19.9142 224.3 19.9862 223.727 20.2297C223.195 20.5598 222.78 21.0477 222.539 21.625C222.298 22.2023 222.244 22.8403 222.385 23.4497C222.791 25.5709 223.69 27.5676 225.009 29.2797C225.921 30.5297 227.283 30.3897 228.174 29.1097C229.066 27.8297 228.906 26.6497 229.086 25.4597V25.4297ZM259.937 26.2297C260.854 26.2107 261.755 25.9892 262.576 25.5812C263.397 25.1731 264.117 24.5886 264.685 23.8697C264.921 23.6093 265.081 23.2888 265.147 22.9437C265.212 22.5985 265.181 22.2419 265.057 21.9132C264.933 21.5844 264.72 21.2963 264.443 21.0804C264.165 20.8646 263.833 20.7294 263.483 20.6897C262.553 20.5463 261.603 20.6178 260.705 20.8986C259.807 21.1795 258.986 21.6622 258.305 22.3097C257.902 22.6123 257.608 23.0369 257.467 23.52C257.327 24.003 257.346 24.5187 257.523 24.9897C257.934 26.0497 258.946 26.1797 259.937 26.2597V26.2297ZM277.517 49.4197L277.997 49.3597C281.002 49.0897 283.006 46.8297 285.33 45.3597C285.411 45.3068 285.478 45.2363 285.528 45.1535C285.578 45.0707 285.608 44.9777 285.617 44.8815C285.626 44.7853 285.613 44.6884 285.578 44.598C285.544 44.5076 285.49 44.4262 285.42 44.3597C285.314 44.1847 285.143 44.0583 284.944 44.0078C284.746 43.9573 284.535 43.9867 284.358 44.0897C283.666 44.4071 282.997 44.7712 282.355 45.1797C280.959 46.2636 279.235 46.8419 277.466 46.8197C276.555 46.8197 275.683 46.9597 275.694 48.0997C275.704 49.2397 276.665 49.3397 277.517 49.4497V49.4197Z" fill="white"/>
<path d="M91.1164 80.5796C88.3455 84.1213 85.9927 87.97 84.1047 92.0496C82.6014 95.1745 81.3715 98.4232 80.4286 101.76C80.2376 102.529 79.7568 103.195 79.0864 103.62C75.1899 106.33 70.7425 107.42 66.1849 108C59.4436 108.87 52.9929 107.15 46.6924 105C36.0657 101.623 26.6881 95.1617 19.7575 86.4396C16.1114 81.8096 13.457 76.7196 12.9662 70.7596C12.5655 65.9296 13.5972 61.5696 17.9745 58.7596C21.28 56.5996 24.8159 56.9896 28.3618 58.1096C33.3702 59.6896 37.6373 62.5196 41.8944 65.4196C48.0947 69.6496 54.265 73.9196 60.9962 77.2996C67.8146 80.8197 75.4619 82.4267 83.1231 81.9496C85.5584 81.8006 87.9666 81.3574 90.295 80.6296C90.4206 80.5637 90.5587 80.5251 90.7003 80.5165C90.8419 80.5079 90.9838 80.5294 91.1164 80.5796Z" fill="white"/>
<path d="M158.439 183.87C157.878 183.3 157.327 182.73 156.746 182.18C156.325 181.79 155.805 181.64 155.374 182.18C154.943 182.72 155.214 183.09 155.594 183.44C156.919 184.496 157.816 185.995 158.118 187.66C158.158 187.829 158.163 188.005 158.134 188.177C158.105 188.349 158.042 188.513 157.948 188.66C156.997 189.909 155.659 190.808 154.142 191.22C153.391 191.47 153.511 190.81 153.471 190.44C153.329 188.969 152.885 187.543 152.169 186.25C151.848 185.71 151.477 185.01 150.686 185.49C149.895 185.97 150.345 186.49 150.686 187.05C151.316 188.251 151.71 189.561 151.848 190.91C151.918 191.39 151.848 191.55 151.327 191.56C142.422 191.75 133.998 190.16 126.586 184.86C124.589 183.564 123.095 181.628 122.349 179.37C121.047 175.04 117.741 172.51 114.135 170.26C113.805 170.06 113.464 169.88 112.873 169.55C115.598 169.12 118.042 168.68 120.506 168.34C127.422 167.535 134.109 165.366 140.179 161.96C141.18 161.39 141.401 161.7 141.721 162.63C142.123 164.051 142.315 165.523 142.292 167C142.32 168.484 142.737 169.936 143.501 171.21C144.266 172.483 145.351 173.535 146.649 174.26C149.174 175.86 151.928 177.09 154.382 178.82C156.107 179.844 157.499 181.344 158.389 183.14C158.489 183.36 158.82 183.66 158.389 183.94L158.439 183.87Z" fill="white"/>
<path d="M192.276 163.49C195.641 163.358 199.009 163.671 202.292 164.42C204.149 164.77 205.809 165.797 206.95 167.3C208.31 169.076 209.768 170.775 211.317 172.39C211.467 172.495 211.59 172.633 211.678 172.793C211.766 172.953 211.816 173.131 211.825 173.313C211.833 173.495 211.8 173.677 211.728 173.844C211.656 174.012 211.546 174.161 211.408 174.28C208.374 178.053 204.557 181.123 200.219 183.28C195.263 185.807 189.886 187.41 184.352 188.01C181.322 188.451 178.229 187.981 175.468 186.66C172.653 185.21 171.872 182.97 173.194 180.1C173.945 178.592 174.999 177.255 176.289 176.17C178.974 173.79 181.818 171.55 184.072 168.72C185.305 167.4 186.114 165.742 186.396 163.96C186.456 163.3 186.887 163.45 187.257 163.45L192.276 163.49ZM183.361 182.4C185.044 182.4 186.135 181.74 186.366 180.68C186.626 179.46 186.196 178.8 184.633 178.31C184.182 178.17 184.112 177.89 183.992 177.57C183.87 177.197 183.623 176.877 183.293 176.664C182.963 176.451 182.57 176.357 182.179 176.4C181.712 176.39 181.256 176.543 180.89 176.834C180.524 177.124 180.271 177.533 180.176 177.99C180.129 178.254 180.029 178.506 179.883 178.731C179.737 178.956 179.547 179.15 179.324 179.3C179.023 179.525 178.811 179.849 178.725 180.214C178.639 180.58 178.684 180.964 178.853 181.3C179.074 181.91 179.484 182.43 180.015 182.3C181.12 182.037 182.274 182.072 183.361 182.4ZM175.428 180.4C176.56 180.4 178.162 179.01 178.102 178.2C178.104 178.038 178.07 177.878 178.004 177.731C177.938 177.583 177.841 177.452 177.719 177.345C177.597 177.239 177.454 177.16 177.299 177.114C177.143 177.068 176.98 177.057 176.82 177.08C175.818 177.08 174.376 178.54 174.446 179.41C174.449 179.67 174.552 179.919 174.736 180.103C174.919 180.288 175.167 180.395 175.428 180.4ZM175.037 183.88C176.119 183.88 177.661 182.69 177.671 181.8C177.695 181.649 177.684 181.496 177.639 181.35C177.594 181.205 177.516 181.072 177.412 180.961C177.307 180.85 177.179 180.764 177.037 180.71C176.894 180.656 176.741 180.636 176.59 180.65C175.668 180.65 173.845 182.07 173.855 182.84C173.865 183.61 174.346 183.92 175.037 183.92V183.88ZM179.675 184.09C179.675 183.41 179.424 183.09 178.673 183.04C177.611 183.04 176.279 183.98 176.309 184.8C176.302 184.96 176.33 185.12 176.391 185.268C176.453 185.417 176.546 185.55 176.664 185.659C176.782 185.767 176.923 185.849 177.076 185.897C177.23 185.946 177.392 185.96 177.551 185.94C178.067 185.956 178.571 185.78 178.964 185.445C179.357 185.11 179.61 184.641 179.675 184.13V184.09ZM181.398 186.25C182.529 186.25 183.551 185.34 183.531 184.53C183.531 183.98 183.291 183.61 182.7 183.61C181.698 183.61 180.356 184.61 180.416 185.36C180.406 185.489 180.425 185.618 180.471 185.739C180.518 185.86 180.591 185.969 180.685 186.058C180.779 186.147 180.892 186.214 181.015 186.254C181.138 186.294 181.269 186.306 181.398 186.29V186.25Z" fill="white"/>
<path d="M243.039 98.3996C242.963 96.1611 243.387 93.9337 244.281 91.8796C244.521 91.2341 244.886 90.6422 245.355 90.1381C245.825 89.634 246.39 89.2276 247.017 88.9422C247.645 88.6569 248.323 88.4983 249.012 88.4755C249.701 88.4527 250.388 88.5663 251.033 88.8096C253.609 89.6453 256.031 90.895 258.205 92.5096C258.515 92.7596 258.866 92.9096 258.535 93.4396C257.42 95.3612 257.063 97.629 257.534 99.7996C257.773 100.713 257.734 101.676 257.422 102.567C257.11 103.458 256.538 104.235 255.781 104.8C254.068 106.16 252.615 107.85 250.772 109.03C248.619 110.4 247.046 110.13 245.564 108.03C243.823 105.43 242.934 102.355 243.019 99.2296L243.039 98.3996Z" fill="#DEFFFF"/>
<path d="M259.157 97.8098C259.122 97.0201 259.23 96.2307 259.477 95.4797C259.566 94.9036 259.839 94.3718 260.256 93.9642C260.674 93.5566 261.212 93.2954 261.791 93.2198C263.133 93.0498 264.476 93.1398 265.317 94.3998C265.9 95.3561 266.153 96.4763 266.038 97.5898C265.883 99.2521 265.425 100.872 264.686 102.37C264.574 102.686 264.347 102.947 264.05 103.103C263.752 103.259 263.407 103.297 263.083 103.21C262.142 103.06 261.2 102.88 260.259 102.8C259.628 102.74 259.437 102.41 259.407 101.87C259.307 100.57 259.247 99.2598 259.157 97.8098Z" fill="#DEFFFF"/>
<path d="M267.199 108.59C266.38 107.465 265.85 106.157 265.656 104.78C265.619 104.424 265.715 104.068 265.927 103.78C267.61 100.67 268.491 97.4597 267.159 93.9597C266.848 93.1597 267.6 92.1997 268.671 91.9597C269.583 91.7397 269.593 92.5297 269.733 93.0297C270.163 95.0995 270.224 97.2287 269.913 99.3197C269.684 102.254 268.939 105.125 267.71 107.8C267.556 108.073 267.385 108.337 267.199 108.59Z" fill="#DEFFFF"/>
<path d="M242.428 10.5696C243.539 9.03481 244.868 7.67037 246.374 6.51956C246.69 6.25355 247.056 6.05354 247.451 5.93139C247.845 5.80925 248.26 5.76746 248.671 5.8085C249.082 5.84954 249.481 5.97256 249.843 6.17029C250.206 6.36801 250.525 6.63642 250.782 6.95956C251.717 7.93599 252.443 9.09298 252.915 10.3596C249.369 10.5296 245.904 10.1596 242.428 10.5696Z" fill="white"/>
<path d="M283.346 32.8996C285.509 31.3096 285.519 31.3096 286.651 33.5896C286.821 33.9296 287.122 34.2396 287.002 34.7596C285.887 33.9538 284.654 33.3263 283.346 32.8996Z" fill="#FFDCE9"/>
<path d="M78.8066 106.17L79.0966 106.07V106.49L78.8066 106.17Z" fill="white"/>
<path d="M158.418 183.9L158.588 183.84V184.01L158.418 183.86V183.9Z" fill="white"/>
<path d="M253.296 55.8598C252.548 55.9409 251.791 55.8526 251.082 55.6016C250.373 55.3506 249.729 54.9432 249.199 54.4098C248.77 53.9596 248.455 53.4131 248.281 52.8164C248.106 52.2196 248.078 51.5898 248.198 50.9798C248.564 48.9589 249.627 47.1298 251.203 45.8098C254.017 43.2398 257.213 41.4398 261.219 41.5898C264.835 41.7198 266.869 44.7198 265.226 47.9798C262.852 52.9098 258.625 55.2898 253.296 55.8598Z" fill="#FFDCE9"/>
<path d="M256.412 39.9897C255.06 39.9897 254.409 39.1296 255.01 38.2296C256.773 35.5296 258.325 32.6397 260.84 30.5397C261.524 29.9457 262.356 29.5483 263.249 29.3898C264.142 29.2313 265.061 29.3176 265.908 29.6396C267.21 30.0896 267.431 30.6897 266.699 31.8397C266.625 31.9332 266.579 32.0465 266.568 32.1656C266.558 32.2848 266.582 32.4044 266.639 32.5096C266.759 32.7196 266.99 32.5697 267.17 32.5697C267.881 32.5697 268.823 32.0697 269.093 33.1497C269.364 34.2297 268.382 34.3797 267.711 34.6497C264.626 35.8797 261.871 37.7697 258.836 39.0897C258.089 39.532 257.268 39.8369 256.412 39.9897Z" fill="#FF7596"/>
<path d="M229.086 25.4596C228.906 26.6496 228.966 27.9896 228.175 29.1396C227.383 30.2896 225.921 30.5596 225.009 29.3096C223.691 27.5975 222.792 25.6009 222.385 23.4796C222.245 22.8702 222.299 22.2322 222.539 21.6549C222.78 21.0776 223.195 20.5897 223.727 20.2596C224.301 20.0161 224.932 19.9442 225.546 20.0525C226.159 20.1607 226.728 20.4446 227.183 20.8696C227.81 21.4547 228.304 22.167 228.633 22.9587C228.961 23.7505 229.116 24.6032 229.086 25.4596ZM226.632 28.2696C227.313 26.2696 227.634 24.4196 226.422 22.6796C226.021 22.0996 225.42 21.5296 224.609 21.8996C223.797 22.2696 224.048 23.0596 224.198 23.6996C224.609 25.404 225.446 26.9764 226.632 28.2696Z" fill="#FF7596"/>
<path d="M259.938 26.2597C258.936 26.1797 257.934 26.0497 257.524 25.0197C257.347 24.5486 257.327 24.033 257.468 23.5499C257.609 23.0669 257.902 22.6423 258.305 22.3397C258.987 21.6922 259.808 21.2095 260.706 20.9286C261.604 20.6478 262.554 20.5763 263.484 20.7197C263.833 20.7594 264.165 20.8946 264.443 21.1104C264.721 21.3263 264.933 21.6144 265.058 21.9431C265.182 22.2719 265.213 22.6284 265.147 22.9736C265.082 23.3188 264.922 23.6393 264.686 23.8997C264.118 24.6186 263.398 25.2031 262.577 25.6111C261.756 26.0192 260.855 26.2407 259.938 26.2597ZM263.444 22.5497C262.759 22.4347 262.056 22.4787 261.391 22.6781C260.726 22.8775 260.116 23.227 259.607 23.6997C259.457 23.8397 259.277 23.9997 259.417 24.2097C259.472 24.2606 259.537 24.2994 259.607 24.3235C259.678 24.3476 259.753 24.3566 259.828 24.3497C260.526 24.3364 261.213 24.168 261.839 23.8567C262.464 23.5453 263.013 23.0989 263.444 22.5497Z" fill="#FF7596"/>
<path d="M277.516 49.4495C276.665 49.3395 275.713 49.2895 275.703 48.1395C275.693 46.9895 276.565 46.8295 277.476 46.8595C279.245 46.8817 280.968 46.3034 282.364 45.2195C283.006 44.8111 283.676 44.4469 284.368 44.1295C284.545 44.0265 284.755 43.9971 284.954 44.0476C285.153 44.0981 285.323 44.2245 285.429 44.3995C285.5 44.466 285.554 44.5474 285.588 44.6378C285.622 44.7282 285.635 44.8251 285.627 44.9213C285.618 45.0175 285.588 45.1105 285.538 45.1934C285.488 45.2762 285.42 45.3466 285.339 45.3995C282.985 46.8995 281.032 49.1595 278.007 49.3995L277.516 49.4495Z" fill="#FF7596"/>
<path d="M183.359 182.4C182.268 182.046 181.103 181.991 179.983 182.24C179.453 182.41 179.042 181.89 178.822 181.24C178.652 180.904 178.607 180.52 178.693 180.154C178.779 179.789 178.991 179.465 179.292 179.24C179.515 179.09 179.705 178.896 179.851 178.671C179.998 178.446 180.097 178.194 180.144 177.93C180.239 177.473 180.492 177.064 180.858 176.774C181.224 176.483 181.68 176.33 182.147 176.34C182.549 176.293 182.955 176.39 183.292 176.613C183.63 176.836 183.877 177.172 183.99 177.56C184.11 177.88 184.18 178.16 184.631 178.3C186.194 178.79 186.635 179.45 186.364 180.67C186.184 181.77 185.042 182.47 183.359 182.4Z" fill="#FF7596"/>
<path d="M175.426 180.4C175.16 180.4 174.906 180.294 174.718 180.107C174.53 179.919 174.424 179.665 174.424 179.4C174.354 178.53 175.797 177.1 176.798 177.07C176.958 177.047 177.122 177.058 177.277 177.104C177.432 177.15 177.576 177.229 177.697 177.335C177.819 177.442 177.916 177.573 177.983 177.721C178.049 177.868 178.082 178.028 178.08 178.19C178.171 179.05 176.558 180.4 175.426 180.4Z" fill="#FF7596"/>
<path d="M175.036 183.92C174.344 183.92 173.864 183.64 173.854 182.92C173.844 182.2 175.667 180.7 176.588 180.73C176.74 180.716 176.893 180.737 177.035 180.79C177.178 180.844 177.306 180.93 177.41 181.041C177.515 181.152 177.592 181.285 177.637 181.43C177.682 181.576 177.693 181.729 177.67 181.88C177.66 182.73 176.167 183.91 175.036 183.92Z" fill="#FF7596"/>
<path d="M179.674 184.13C179.62 184.641 179.376 185.114 178.991 185.456C178.605 185.799 178.106 185.985 177.591 185.98C177.431 186 177.269 185.986 177.116 185.937C176.963 185.889 176.822 185.807 176.704 185.699C176.585 185.59 176.492 185.457 176.431 185.308C176.37 185.16 176.342 185 176.349 184.84C176.349 184.02 177.651 183.06 178.713 183.08C179.424 183.09 179.714 183.45 179.674 184.13Z" fill="#FF7596"/>
<path d="M181.396 186.29C181.27 186.309 181.14 186.3 181.018 186.264C180.895 186.227 180.782 186.164 180.686 186.079C180.59 185.994 180.515 185.889 180.464 185.772C180.414 185.654 180.39 185.527 180.395 185.4C180.334 184.69 181.697 183.65 182.678 183.65C183.269 183.65 183.51 184.02 183.51 184.57C183.55 185.4 182.528 186.27 181.396 186.29Z" fill="#FF7596"/>
<path d="M226.632 28.2696C225.465 26.971 224.645 25.3991 224.248 23.6996C224.098 23.0596 223.918 22.2496 224.659 21.8996C225.4 21.5496 226.071 22.0996 226.472 22.6796C227.634 24.3996 227.313 26.2496 226.632 28.2696Z" fill="#FFDCE9"/>
<path d="M263.443 22.5496C263.012 23.0988 262.464 23.5452 261.838 23.8566C261.213 24.1679 260.526 24.3363 259.827 24.3496C259.752 24.3565 259.677 24.3475 259.607 24.3234C259.536 24.2993 259.471 24.2605 259.416 24.2096C259.276 23.9996 259.416 23.8396 259.607 23.6996C260.115 23.227 260.725 22.8774 261.39 22.678C262.056 22.4786 262.758 22.4346 263.443 22.5496Z" fill="white"/>
<path d="M478.073 159.681C475.843 160.081 473.773 160.481 471.693 160.831C470.906 160.959 470.11 161.023 469.313 161.021C460.278 160.94 451.271 160.002 442.413 158.221C438.483 157.441 434.533 156.901 430.553 158.051C428.513 158.624 426.656 159.717 425.163 161.221C424.387 161.977 423.92 162.995 423.853 164.076C423.787 165.158 424.125 166.225 424.803 167.071C425.61 168.116 426.567 169.036 427.643 169.801C429.895 171.331 432.05 173.001 434.093 174.801C438.093 178.571 439.153 183.641 436.623 188.501C434.963 191.691 432.053 192.711 428.843 193.121C421.708 193.907 414.49 192.899 407.843 190.191C404.148 188.894 400.694 186.991 397.623 184.561C395.23 182.68 393.267 180.308 391.866 177.605C390.466 174.902 389.66 171.931 389.503 168.891C389.364 165.1 388.463 161.376 386.853 157.941C386.112 158.444 385.325 158.876 384.503 159.231C380.823 160.421 378.653 163.151 377.113 166.471C374.523 172.071 370.423 176.311 365.563 179.991C359.333 184.701 350.183 183.481 344.863 178.991C343.3 177.682 342.17 175.931 341.62 173.968C341.071 172.005 341.127 169.921 341.783 167.991C342.474 166.089 343.875 164.53 345.693 163.641C346.783 163.061 347.903 162.521 349.043 162.031C350.1 161.595 351.023 160.886 351.715 159.975C352.408 159.065 352.845 157.986 352.983 156.851C353.341 154.119 353.845 151.409 354.493 148.731C354.786 147.402 355.365 146.154 356.191 145.072C357.016 143.991 358.068 143.103 359.273 142.471C364.873 139.651 367.613 134.731 369.273 128.921C369.747 126.708 369.906 124.439 369.743 122.181C369.743 116.511 369.823 110.831 371.353 105.301C371.42 105.041 371.473 104.777 371.513 104.511C367.886 105.763 364.019 106.163 360.213 105.681C351.928 104.9 344.083 101.599 337.733 96.221C328.671 88.8406 321.831 79.0932 317.973 68.061C315.793 62.1753 315.41 55.7746 316.873 49.671C317.923 45.481 320.873 42.581 324.573 42.061C327.098 41.8025 329.637 42.4089 331.773 43.781C339.754 48.2092 346.265 54.8766 350.503 62.961C351.753 65.311 353.123 67.611 354.503 69.871C355.717 71.8756 357.356 73.5891 359.306 74.8903C361.255 76.1914 363.466 77.0485 365.783 77.401C371.843 78.461 377.893 79.111 383.933 77.241C385.368 76.7557 386.733 76.0832 387.993 75.241C391.563 73.001 394.193 69.681 397.463 67.091C407.56 59.1414 419.782 54.3541 432.593 53.331C442.889 52.5052 453.252 53.2982 463.303 55.681C467.863 56.681 472.433 57.681 477.023 58.501C479.253 58.921 481.523 59.071 483.773 59.371C484.103 59.371 484.193 59.291 484.253 59.021C485.743 52.901 489.023 47.661 492.583 42.601C496.993 36.2581 502.447 30.7094 508.713 26.191C509.423 25.671 509.783 25.251 509.523 24.271C508.997 22.2897 508.919 20.2163 509.293 18.201C510.473 11.911 517.563 9.12096 523.033 12.821C523.365 13.0921 523.776 13.2492 524.205 13.269C524.633 13.2888 525.057 13.1703 525.413 12.931C530.89 10.2911 536.874 8.87179 542.953 8.77096C543.421 8.80313 543.89 8.73001 544.326 8.55695C544.762 8.3839 545.154 8.11532 545.473 7.77096C546.413 6.73376 547.466 5.8047 548.613 5.00097C551.163 3.28097 553.743 3.80096 555.443 6.38096C556.027 7.19071 556.436 8.11382 556.643 9.09097C556.793 10.091 557.333 10.441 558.213 10.721C563.161 12.1093 567.397 15.3265 570.063 19.721C571.193 21.661 572.343 22.721 574.583 22.861C576.292 23.108 577.915 23.767 579.313 24.781C582.313 26.701 583.473 29.781 584.043 33.021C584.973 38.391 584.223 43.681 583.043 48.931C581.311 56.0081 577.979 62.5937 573.303 68.181C570.908 71.2284 568.327 74.124 565.573 76.851C563.753 78.6502 562.081 80.5931 560.573 82.661C560.375 82.9078 560.235 83.1957 560.162 83.5036C560.089 83.8115 560.086 84.1317 560.153 84.441C563.063 83.211 564.493 83.871 564.863 86.861C565.577 91.9498 564.886 97.1371 562.863 101.861C562.614 102.492 562.255 103.075 561.803 103.581C561.647 103.82 561.43 104.014 561.175 104.142C560.92 104.27 560.635 104.328 560.35 104.309C560.065 104.291 559.79 104.197 559.554 104.038C559.317 103.878 559.127 103.658 559.003 103.401C558.337 102.417 557.809 101.347 557.433 100.221C557.193 100.221 557.123 100.321 557.083 100.461C555.233 107.461 552.083 113.881 549.023 120.371C546.457 126.214 543.347 131.802 539.733 137.061C538.823 138.321 537.873 139.561 536.853 140.731C536.583 141.018 536.382 141.362 536.266 141.738C536.15 142.114 536.122 142.512 536.183 142.901C536.904 149.414 538.909 155.719 542.083 161.451C543.553 164.231 545.243 166.891 546.793 169.641C547.912 171.674 548.558 173.934 548.683 176.251C549.073 181.951 546.273 185.621 540.683 186.821C537.007 187.496 533.213 187.065 529.783 185.581C523.325 183.283 517.538 179.417 512.943 174.331C512.313 173.621 512.093 174.171 511.773 174.511C506.594 179.902 500.836 184.704 494.603 188.831C489.773 192.041 484.763 194.921 478.973 196.061C475.053 196.831 471.333 196.441 468.023 193.981C466.248 192.751 464.954 190.944 464.361 188.867C463.769 186.79 463.914 184.573 464.773 182.591C466.143 179.394 468.021 176.44 470.333 173.841C473.569 170.139 476.067 165.852 477.693 161.211C477.743 160.741 477.883 160.281 478.073 159.681ZM581.213 29.951L581.333 30.121C581.333 30.121 581.333 30.041 581.333 30.011C581.333 29.981 581.233 29.891 581.153 30.011C580.877 28.7722 580.168 27.6727 579.153 26.911C578.933 26.701 578.733 26.611 578.443 26.911C577.863 27.431 577.233 27.911 576.583 28.421C577.403 28.651 578.163 28.831 578.903 29.091C579.643 29.351 580.433 29.681 581.213 29.951ZM521.073 13.811C521.039 13.771 520.997 13.7388 520.949 13.7168C520.902 13.6947 520.85 13.6833 520.798 13.6833C520.745 13.6833 520.694 13.6947 520.646 13.7168C520.599 13.7388 520.557 13.771 520.523 13.811L520.833 14.091C521.78 14.807 522.488 15.7933 522.863 16.9199C523.238 18.0464 523.262 19.2602 522.933 20.401C522.733 21.151 522.463 21.901 521.603 22.091C520.743 22.281 520.223 21.581 519.833 20.941C519.053 19.691 518.323 18.401 517.603 17.121C517.162 16.4983 516.909 15.7628 516.873 15.001C516.873 14.101 517.553 13.671 518.283 13.261C518.077 13.134 517.845 13.0555 517.604 13.0312C517.363 13.007 517.12 13.0377 516.893 13.121C513.133 13.811 510.893 16.371 510.993 20.241C511.292 26.8211 513.564 33.159 517.513 38.431C517.773 38.791 518.073 39.111 518.313 39.431C518.39 39.5186 518.45 39.621 518.487 39.7321C518.524 39.8431 518.538 39.9605 518.529 40.0772C518.52 40.194 518.487 40.3076 518.432 40.4113C518.378 40.5151 518.303 40.6068 518.213 40.681C518.12 40.7587 518.012 40.817 517.896 40.8521C517.78 40.8873 517.658 40.8987 517.538 40.8856C517.418 40.8725 517.301 40.8353 517.195 40.776C517.09 40.7168 516.997 40.6369 516.923 40.541C516.721 40.3439 516.537 40.1298 516.373 39.901C513.94 36.7359 512.066 33.1779 510.833 29.381C510.193 27.381 510.143 27.381 508.513 28.641C502.041 33.6854 496.481 39.8004 492.073 46.721C489.303 51.151 486.543 55.581 485.673 60.871C485.657 61.0133 485.608 61.1501 485.531 61.2706C485.453 61.3911 485.349 61.4921 485.226 61.5657C485.103 61.6392 484.965 61.6834 484.822 61.6947C484.679 61.706 484.536 61.6842 484.403 61.631C481.643 60.991 478.823 60.761 476.043 60.251C471.043 59.331 466.043 58.251 461.043 57.151C455.939 56.0211 450.758 55.2724 445.543 54.911C440.039 54.5635 434.514 54.8082 429.063 55.641C421.645 56.5657 414.465 58.8686 407.893 62.431C398.99 67.5204 391.197 74.3412 384.973 82.491C381.973 86.321 378.783 90.041 376.813 94.551C374.033 100.789 372.316 107.447 371.733 114.251C371.168 120.705 371.968 127.207 374.083 133.331C376.145 139.051 379.259 144.335 383.263 148.911C388.223 154.621 391.115 161.836 391.473 169.391C391.633 171.848 392.284 174.248 393.388 176.448C394.493 178.649 396.028 180.605 397.903 182.201C400.998 184.849 404.554 186.907 408.393 188.271C413.687 190.307 419.292 191.413 424.963 191.541C426.053 191.591 426.243 191.251 425.963 190.251C425.695 189.006 425.254 187.804 424.653 186.681C424.333 186.111 423.893 185.481 424.653 185.031C425.413 184.581 425.783 185.351 426.093 185.881C426.897 187.258 427.433 188.775 427.673 190.351C427.733 190.681 427.563 191.351 428.323 191.231C430.031 191.033 431.678 190.474 433.153 189.591C433.581 189.368 433.955 189.052 434.245 188.666C434.536 188.28 434.737 187.833 434.833 187.36C434.928 186.886 434.917 186.397 434.8 185.928C434.682 185.46 434.461 185.023 434.153 184.651C433.633 183.807 432.898 183.116 432.023 182.651C431.553 182.411 431.223 182.011 431.493 181.481C431.763 180.951 432.343 180.941 432.843 181.191C433.836 181.716 434.692 182.466 435.343 183.381C435.513 183.591 435.533 184.011 435.993 183.991C436.142 182.451 435.896 180.898 435.278 179.479C434.66 178.06 433.692 176.822 432.463 175.881C430.063 173.881 427.463 172.071 425.003 170.071C422.723 168.221 421.353 165.831 422.093 162.821C422.723 160.211 423.413 157.561 425.273 155.441C426.003 154.601 426.643 153.681 427.343 152.811C431.15 148.238 434.328 143.176 436.793 137.761C440.483 129.241 440.893 120.631 437.383 111.951C436.047 108.747 434.37 105.697 432.383 102.851C432.033 102.341 431.673 101.731 432.323 101.261C432.973 100.791 433.453 101.261 433.823 101.781C434.523 102.781 435.223 103.781 435.873 104.871C441.143 113.451 443.003 122.631 440.553 132.501C438.863 139.271 435.353 145.141 431.233 150.691C429.503 153.021 427.403 155.091 426.013 157.691C425.933 157.821 425.813 157.961 426.013 158.091C426.213 158.221 426.203 158.011 426.303 157.961C429.984 155.736 434.348 154.925 438.583 155.681C446.323 156.751 453.983 158.391 461.813 158.861C467.173 159.181 472.503 159.181 477.723 157.681C478.283 157.521 478.633 157.301 478.723 156.681C478.973 153.341 478.793 150.071 477.183 147.011C476.693 146.097 476.12 145.231 475.473 144.421C475.143 144.011 475.003 143.551 475.473 143.141C475.943 142.731 476.473 142.971 476.813 143.381C476.973 143.551 477.113 143.751 477.263 143.941C480.783 148.501 481.163 153.691 480.133 159.071C479.043 164.781 476.063 169.591 472.503 174.071C470.363 176.751 468.103 179.351 466.793 182.581C466.403 183.521 465.573 184.731 466.163 185.451C466.753 186.171 468.093 185.451 469.063 185.171C469.603 185.001 470.133 184.941 470.383 185.561C470.633 186.181 470.213 186.561 469.703 186.771C468.761 187.191 467.733 187.382 466.703 187.331C466.373 187.331 465.913 187.191 466.063 187.841C466.216 188.71 466.545 189.539 467.03 190.277C467.515 191.015 468.145 191.646 468.883 192.131C470.083 192.851 471.333 192.021 472.443 191.351C472.673 191.201 472.913 191.061 473.163 190.921C473.673 190.621 474.223 190.371 474.623 191.021C475.023 191.671 474.533 192.071 474.053 192.381C473.333 192.841 472.573 193.251 471.703 193.751C473.137 194.362 474.701 194.603 476.253 194.451C480.327 194.119 484.266 192.834 487.753 190.701C503.307 181.84 516.313 169.117 525.513 153.761C528.463 148.941 530.723 143.651 535.133 139.761C536.476 138.392 537.661 136.876 538.663 135.241C542.483 129.941 545.193 124.031 547.973 118.151C550.8 112.569 553.168 106.767 555.053 100.801C555.703 98.571 555.683 98.631 553.433 98.141C553.021 98.0259 552.584 98.0348 552.176 98.1663C551.769 98.2979 551.41 98.5465 551.143 98.881C549.459 100.716 547.608 102.39 545.613 103.881C544.644 104.663 543.471 105.149 542.233 105.281C539.643 105.411 538.103 103.831 536.923 101.821C535.096 98.5637 534.291 94.8319 534.613 91.111C534.581 88.3399 535.355 85.6193 536.843 83.281C537.562 82.1329 538.628 81.2437 539.887 80.7421C541.145 80.2405 542.531 80.1525 543.843 80.491C547.044 81.2149 550.028 82.6848 552.553 84.781C552.794 85.0602 553.117 85.2559 553.477 85.3403C553.836 85.4248 554.213 85.3935 554.553 85.251C555.021 85.0664 555.522 84.9776 556.025 84.9896C556.528 85.0016 557.024 85.1143 557.483 85.321C558.393 85.751 558.483 85.321 558.483 84.591C558.384 83.5116 558.633 82.4288 559.193 81.501C560.536 79.612 562.027 77.833 563.653 76.181C566.833 73.0412 569.809 69.7011 572.563 66.181C579.503 57.511 582.653 47.571 582.783 36.571C582.789 35.8817 582.646 35.1994 582.363 34.571C581.974 33.492 581.307 32.5352 580.429 31.7975C579.55 31.0599 578.493 30.5677 577.363 30.371C576.143 30.151 574.933 29.921 573.713 29.741C572.913 29.621 571.813 29.881 571.713 28.741C571.613 27.601 572.823 27.741 573.553 27.491C574.843 27.051 576.223 26.781 577.253 25.621C575.576 24.6228 573.664 24.0911 571.713 24.081C571.307 24.1405 570.892 24.0562 570.542 23.8425C570.191 23.6289 569.926 23.2993 569.793 22.911C568.729 20.4695 567.14 18.293 565.138 16.5367C563.137 14.7804 560.772 13.4878 558.213 12.751C549.418 9.87716 539.943 9.83518 531.123 12.631C529.15 13.1512 527.246 13.9066 525.453 14.881L525.853 15.431C526.213 15.991 526.853 16.641 526.013 17.191C525.173 17.741 524.913 16.961 524.503 16.461C523.615 15.281 522.422 14.365 521.053 13.811H521.073ZM385.393 78.811C383.793 79.171 382.263 79.571 380.693 79.811C375.813 80.661 370.983 79.971 366.163 79.281C363.219 78.8971 360.41 77.8109 357.973 76.114C355.537 74.4172 353.544 72.1594 352.163 69.531C350.783 67.111 349.383 64.691 348.013 62.261C344.004 55.1743 338.123 49.3275 331.013 45.361C329.788 44.6057 328.43 44.0899 327.013 43.841C323.383 43.331 320.373 45.301 319.083 49.101C317.802 53.3168 317.6 57.7865 318.493 62.101C319.573 68.461 322.333 74.101 325.763 79.521C330.153 86.7411 336.042 92.9342 343.033 97.681C348.663 101.299 355.108 103.451 361.783 103.941C364.534 104.239 367.318 103.939 369.943 103.061C370.671 102.863 371.334 102.475 371.861 101.935C372.389 101.395 372.762 100.724 372.943 99.991C374.208 95.3828 376.335 91.0563 379.213 87.241C381.273 84.481 383.263 81.681 385.373 78.851L385.393 78.811ZM370.943 130.221C370.943 130.271 370.823 130.321 370.803 130.391C368.903 136.611 365.453 141.581 359.443 144.511C358.304 145.125 357.428 146.136 356.983 147.351C356.027 149.809 355.431 152.392 355.213 155.021C354.753 158.861 353.603 162.191 349.613 163.781C348.541 164.212 347.499 164.713 346.493 165.281C345.629 165.692 344.879 166.307 344.307 167.074C343.735 167.841 343.36 168.736 343.213 169.681C342.977 171.049 343.09 172.454 343.541 173.766C343.992 175.079 344.766 176.257 345.793 177.191C350.093 181.341 358.003 182.311 363.073 179.191C367.74 176.408 371.584 172.436 374.213 167.681C375.247 165.698 376.382 163.769 377.613 161.901C378.45 160.631 379.601 159.598 380.953 158.901C382.343 158.201 383.733 157.501 385.133 156.821C385.843 156.471 386.053 156.041 385.523 155.341C384.993 154.641 384.383 153.611 383.773 152.771C381.683 149.951 379.433 147.251 377.493 144.321C374.684 139.949 372.474 135.22 370.923 130.261L370.943 130.221ZM546.613 178.051C546.741 177.514 546.778 176.96 546.723 176.411C546.633 173.121 545.173 170.331 543.453 167.671C539.125 161.138 536.162 153.798 534.743 146.091C534.729 145.238 534.588 144.392 534.323 143.581L533.773 144.171C531.673 146.361 530.373 149.081 528.863 151.651C524.927 158.64 520.232 165.172 514.863 171.131C513.643 172.441 513.623 172.491 514.863 173.821C519.044 178.135 524.134 181.462 529.763 183.561C532.288 184.669 535.006 185.274 537.763 185.341C538.823 185.341 539.183 184.841 539.203 183.891C539.208 183.011 539.01 182.142 538.623 181.351C538.383 180.851 538.373 180.351 538.913 180.131C539.023 180.079 539.143 180.05 539.265 180.046C539.387 180.042 539.509 180.063 539.622 180.108C539.736 180.153 539.839 180.221 539.925 180.307C540.011 180.394 540.078 180.497 540.123 180.611C540.477 181.326 540.729 182.086 540.873 182.871C541.023 183.451 540.593 184.361 541.153 184.581C541.713 184.801 542.403 184.201 543.003 183.901C543.347 183.723 543.68 183.526 544.003 183.311C544.253 183.162 544.466 182.958 544.624 182.713C544.782 182.468 544.881 182.19 544.913 181.901C545.108 181.021 545.12 180.111 544.948 179.227C544.776 178.343 544.424 177.503 543.913 176.761C543.613 176.291 543.453 175.761 544.023 175.401C544.593 175.041 545.023 175.401 545.333 175.861C545.833 176.531 546.213 177.241 546.613 178.051ZM542.513 82.051C541.445 82.0816 540.41 82.4235 539.534 83.0346C538.658 83.6458 537.98 84.4995 537.583 85.491C536.375 88.4149 535.975 91.6094 536.423 94.741C536.563 96.9701 537.249 99.1305 538.423 101.031C540.423 104.131 542.063 104.141 544.613 102.301C546.233 101.131 547.613 99.611 549.123 98.381C549.863 97.8274 550.418 97.0639 550.718 96.1899C551.018 95.3159 551.047 94.372 550.803 93.4809C550.328 91.3141 550.662 89.0482 551.743 87.111C552.073 86.591 551.793 86.431 551.463 86.171C549.147 84.4131 546.526 83.0977 543.733 82.291C543.331 82.1801 542.924 82.0899 542.513 82.021V82.051ZM552.383 91.591C552.433 92.071 552.483 92.541 552.523 93.021C552.563 93.501 552.633 94.021 552.643 94.561C552.703 96.341 552.693 96.371 554.463 96.561C555.603 96.711 556.763 96.851 557.703 95.901C559.113 94.481 559.703 90.491 558.833 88.731C558.497 88.0727 557.966 87.5342 557.313 87.1887C556.66 86.8433 555.916 86.7079 555.183 86.801C553.763 86.981 553.013 87.801 552.633 89.541C552.464 90.2009 552.38 90.8797 552.383 91.561V91.591ZM560.453 102.241C560.653 101.948 560.836 101.644 561.003 101.331C562.187 98.7243 562.914 95.9338 563.153 93.081C563.472 90.9474 563.414 88.7746 562.983 86.661C562.843 86.141 562.853 85.251 561.823 85.601C560.793 85.951 560.093 86.811 560.393 87.601C561.743 91.101 560.863 94.301 559.193 97.421C558.979 97.7083 558.88 98.0645 558.913 98.421C559.11 99.7908 559.639 101.092 560.453 102.211V102.241ZM554.903 9.89097C554.743 8.95092 554.374 8.05885 553.823 7.28097C553.629 6.91502 553.355 6.59792 553.02 6.35369C552.686 6.10946 552.3 5.94449 551.893 5.87127C551.485 5.79805 551.066 5.8185 550.668 5.93105C550.269 6.04361 549.902 6.24533 549.593 6.52096C548.653 7.18096 547.823 7.98097 546.703 8.92097C549.456 9.02874 552.197 9.34294 554.903 9.86095V9.89097ZM521.133 19.681C521.275 19.2405 521.329 18.7761 521.291 18.3146C521.253 17.8532 521.124 17.4039 520.911 16.9928C520.698 16.5817 520.405 16.217 520.05 15.9197C519.695 15.6224 519.285 15.3985 518.843 15.261C519.401 16.832 520.171 18.3192 521.133 19.681Z" fill="#FF7596"/>
<path d="M426.083 157.681C427.473 155.091 429.573 153.021 431.303 150.681C435.423 145.131 438.933 139.261 440.623 132.491C443.073 122.621 441.213 113.441 435.943 104.861C435.293 103.801 434.593 102.791 433.893 101.771C433.523 101.241 433.023 100.771 432.393 101.251C431.763 101.731 432.103 102.331 432.453 102.841C434.44 105.687 436.117 108.737 437.453 111.941C440.963 120.621 440.553 129.231 436.863 137.751C434.398 143.167 431.22 148.228 427.413 152.801C426.713 153.671 426.073 154.591 425.343 155.431C423.483 157.551 422.793 160.201 422.163 162.811C421.423 165.811 422.793 168.211 425.073 170.061C427.513 172.061 430.133 173.831 432.533 175.871C433.762 176.812 434.731 178.05 435.348 179.469C435.966 180.888 436.212 182.441 436.063 183.981C435.603 183.981 435.583 183.581 435.413 183.371C434.762 182.456 433.906 181.706 432.913 181.181C432.413 180.931 431.853 180.881 431.563 181.471C431.273 182.061 431.623 182.401 432.093 182.641C432.968 183.106 433.703 183.797 434.223 184.641C434.531 185.013 434.752 185.45 434.87 185.918C434.987 186.387 434.998 186.876 434.903 187.35C434.807 187.823 434.606 188.27 434.315 188.656C434.025 189.042 433.652 189.358 433.223 189.581C431.748 190.464 430.101 191.023 428.393 191.221C427.633 191.351 427.803 190.671 427.743 190.341C427.503 188.765 426.967 187.248 426.163 185.871C425.853 185.341 425.543 184.571 424.723 185.021C423.903 185.471 424.353 186.101 424.723 186.671C425.324 187.794 425.765 188.996 426.033 190.241C426.283 191.241 426.093 191.581 425.033 191.531C419.362 191.403 413.757 190.297 408.463 188.261C404.624 186.897 401.069 184.839 397.973 182.191C396.098 180.595 394.563 178.639 393.458 176.438C392.354 174.238 391.703 171.838 391.543 169.381C391.185 161.826 388.293 154.611 383.333 148.901C379.329 144.325 376.216 139.041 374.153 133.321C372.038 127.197 371.238 120.695 371.803 114.241C372.386 107.437 374.103 100.779 376.883 94.541C378.883 90.031 382.043 86.311 385.043 82.481C391.267 74.3312 399.06 67.5104 407.963 62.421C414.517 58.8843 421.672 56.5987 429.063 55.681C434.514 54.8482 440.039 54.6035 445.543 54.951C450.758 55.3124 455.939 56.0611 461.043 57.191C466.043 58.301 471.043 59.371 476.043 60.291C478.823 60.801 481.643 61.031 484.403 61.671C484.536 61.7243 484.679 61.7461 484.822 61.7347C484.965 61.7234 485.103 61.6792 485.226 61.6057C485.349 61.5321 485.453 61.4311 485.531 61.3106C485.608 61.1901 485.657 61.0534 485.673 60.911C486.543 55.621 489.303 51.191 492.073 46.761C496.478 39.8412 502.035 33.7263 508.503 28.681C510.133 27.371 510.183 27.421 510.823 29.421C512.056 33.2179 513.93 36.7759 516.363 39.941C516.527 40.1698 516.711 40.384 516.913 40.581C516.99 40.6755 517.085 40.7534 517.193 40.8099C517.301 40.8664 517.42 40.9003 517.541 40.9097C517.663 40.919 517.785 40.9036 517.901 40.8643C518.016 40.825 518.122 40.7626 518.213 40.681C518.309 40.6059 518.388 40.5115 518.445 40.4038C518.503 40.2961 518.537 40.1776 518.545 40.056C518.554 39.9344 518.536 39.8123 518.495 39.6978C518.453 39.5832 518.388 39.4787 518.303 39.391C518.063 39.031 517.763 38.711 517.503 38.391C513.554 33.119 511.282 26.7811 510.983 20.201C510.853 16.331 513.123 13.771 516.883 13.081C517.11 12.9977 517.353 12.967 517.594 12.9913C517.835 13.0155 518.067 13.0941 518.273 13.221C517.543 13.631 516.893 14.061 516.863 14.961C516.899 15.7228 517.152 16.4584 517.593 17.081C518.313 18.361 519.043 19.651 519.823 20.901C520.213 21.541 520.683 22.251 521.593 22.051C522.503 21.851 522.723 21.111 522.923 20.361C523.252 19.2202 523.228 18.0065 522.853 16.8799C522.478 15.7534 521.77 14.767 520.823 14.051L521.063 13.821C522.443 14.3703 523.646 15.2867 524.543 16.471C524.953 16.971 525.333 17.681 526.053 17.201C526.773 16.721 526.253 16.001 525.893 15.441L525.493 14.891C527.286 13.9166 529.19 13.1612 531.163 12.641C539.983 9.84522 549.458 9.88718 558.253 12.761C560.793 13.5165 563.136 14.8207 565.116 16.5816C567.096 18.3424 568.666 20.5168 569.713 22.951C569.846 23.3393 570.111 23.6689 570.462 23.8825C570.812 24.0962 571.227 24.1806 571.633 24.121C573.599 24.13 575.527 24.6689 577.213 25.681C576.213 26.841 574.803 27.111 573.513 27.551C572.783 27.801 571.573 27.551 571.673 28.801C571.773 30.051 572.863 29.691 573.673 29.801C574.893 29.981 576.103 30.211 577.323 30.431C578.453 30.6277 579.51 31.1199 580.389 31.8575C581.267 32.5952 581.934 33.552 582.323 34.631C582.606 35.2594 582.749 35.9418 582.743 36.631C582.613 47.631 579.463 57.571 572.523 66.241C569.769 69.7611 566.793 73.1012 563.613 76.241C561.987 77.893 560.496 79.672 559.153 81.561C558.593 82.4889 558.344 83.5716 558.443 84.651C558.443 85.341 558.333 85.811 557.443 85.381C556.984 85.1743 556.488 85.0616 555.985 85.0496C555.482 85.0376 554.981 85.1265 554.513 85.311C554.173 85.4535 553.796 85.4848 553.437 85.4004C553.077 85.3159 552.754 85.1202 552.513 84.841C549.988 82.7449 547.004 81.2749 543.803 80.551C542.491 80.2125 541.105 80.3005 539.847 80.8021C538.588 81.3037 537.522 82.193 536.803 83.341C535.316 85.6793 534.541 88.3999 534.573 91.171C534.251 94.8919 535.056 98.6237 536.883 101.881C538.063 103.881 539.603 105.471 542.193 105.341C543.431 105.209 544.604 104.723 545.573 103.941C547.568 102.45 549.419 100.776 551.103 98.941C551.37 98.6065 551.729 98.358 552.137 98.2264C552.544 98.0948 552.981 98.0859 553.393 98.201C555.643 98.691 555.663 98.631 555.013 100.861C553.128 106.827 550.76 112.629 547.933 118.211C545.153 124.091 542.443 130.001 538.623 135.301C537.621 136.936 536.437 138.453 535.093 139.821C530.683 143.671 528.423 148.961 525.473 153.821C516.273 169.177 503.267 181.9 487.713 190.761C484.226 192.894 480.287 194.179 476.213 194.511C474.662 194.663 473.097 194.422 471.663 193.811C472.533 193.311 473.293 192.901 474.013 192.441C474.493 192.131 475.013 191.731 474.583 191.081C474.153 190.431 473.633 190.681 473.123 190.981C472.873 191.121 472.633 191.261 472.403 191.411C471.293 192.081 470.043 192.911 468.843 192.191C468.105 191.706 467.475 191.075 466.99 190.337C466.505 189.599 466.176 188.77 466.023 187.901C465.873 187.251 466.333 187.381 466.663 187.391C467.693 187.442 468.721 187.251 469.663 186.831C470.173 186.591 470.593 186.221 470.343 185.621C470.093 185.021 469.563 185.061 469.023 185.231C468.023 185.541 466.813 186.351 466.123 185.511C465.433 184.671 466.363 183.581 466.753 182.641C468.063 179.411 470.323 176.811 472.463 174.131C476.023 169.661 479.003 164.851 480.093 159.131C481.093 153.751 480.743 148.561 477.223 144.001C477.073 143.811 476.933 143.611 476.773 143.441C476.393 143.031 475.953 142.731 475.433 143.201C474.913 143.671 475.133 144.071 475.433 144.481C476.08 145.291 476.653 146.158 477.143 147.071C478.753 150.131 478.933 153.401 478.683 156.741C478.633 157.361 478.283 157.581 477.683 157.741C472.463 159.241 467.133 159.241 461.773 158.921C453.943 158.451 446.283 156.811 438.543 155.741C434.329 154.977 429.981 155.766 426.303 157.961L426.083 157.681ZM546.213 47.461C549.464 47.4001 552.619 46.354 555.263 44.461C556.758 43.4565 557.984 42.1001 558.833 40.511C559.203 39.8204 559.398 39.0492 559.399 38.2655C559.401 37.4819 559.209 36.71 558.841 36.018C558.474 35.326 557.941 34.7352 557.291 34.298C556.64 33.8607 555.893 33.5904 555.113 33.511C553.625 33.241 552.101 33.241 550.613 33.511C546.613 34.311 543.153 36.091 540.793 39.511C540.3 40.148 539.979 40.9006 539.859 41.6969C539.739 42.4933 539.826 43.3071 540.109 44.0608C540.393 44.8145 540.865 45.4831 541.48 46.003C542.095 46.5229 542.832 46.8768 543.623 47.031C544.454 47.3263 545.331 47.4719 546.213 47.461ZM561.793 24.621C562.323 23.671 563.013 22.701 562.083 21.761C561.153 20.821 560.083 21.331 559.083 21.761C558.296 22.154 557.577 22.6705 556.953 23.291C554.953 25.091 553.133 27.151 551.013 28.861C550.423 29.341 549.283 29.741 549.913 30.781C550.543 31.821 551.473 31.211 552.303 30.981C552.413 30.981 552.533 30.921 552.643 30.871C554.812 29.9595 557.062 29.2531 559.363 28.761C560.493 28.511 561.623 28.281 562.743 27.991C563.463 27.811 564.123 27.491 564.163 26.601C564.203 25.711 563.643 25.311 562.953 25.001C562.579 24.8552 562.199 24.7284 561.813 24.621H561.793ZM555.393 20.001C556.673 20.1019 557.949 19.7748 559.023 19.071C559.316 18.8937 559.555 18.6401 559.715 18.3373C559.875 18.0345 559.95 17.694 559.932 17.352C559.913 17.01 559.802 16.6795 559.61 16.3958C559.419 16.112 559.153 15.8857 558.843 15.741C557.85 15.2857 556.757 15.0926 555.668 15.1801C554.579 15.2677 553.53 15.6329 552.623 16.241C552.369 16.42 552.164 16.6606 552.028 16.9403C551.891 17.2199 551.828 17.5295 551.844 17.8401C551.86 18.1508 551.955 18.4523 552.119 18.7165C552.283 18.9807 552.512 19.199 552.783 19.351C553.579 19.8157 554.492 20.0413 555.413 20.001H555.393ZM570.283 43.061L570.743 43.001C573.793 42.691 576.423 41.001 579.343 40.261C579.703 40.171 579.803 39.851 579.783 39.501C579.78 39.3399 579.724 39.1844 579.622 39.0593C579.521 38.9342 579.38 38.8468 579.223 38.811C578.566 38.6291 577.87 38.6465 577.223 38.861C574.93 39.7736 572.49 40.2615 570.023 40.301C569.82 40.2807 569.614 40.3059 569.422 40.3746C569.23 40.4433 569.055 40.5539 568.91 40.6984C568.766 40.8428 568.655 41.0176 568.586 41.21C568.518 41.4024 568.493 41.6077 568.513 41.811C568.613 42.791 569.423 43.021 570.303 43.061H570.283Z" fill="white"/>
<path d="M385.372 78.8509C383.262 81.6309 381.272 84.4809 379.182 87.2409C376.297 91.0674 374.166 95.4079 372.902 100.031C372.722 100.764 372.348 101.435 371.821 101.975C371.293 102.515 370.631 102.903 369.902 103.101C367.278 103.979 364.494 104.279 361.742 103.981C355.078 103.473 348.647 101.307 343.032 97.6809C336.018 92.9574 330.101 86.7812 325.682 79.5709C322.252 74.1909 319.492 68.5109 318.412 62.1509C317.519 57.8364 317.722 53.3668 319.002 49.1509C320.292 45.3509 323.302 43.3809 326.932 43.8909C328.35 44.1398 329.707 44.6556 330.932 45.4109C338.043 49.3774 343.924 55.2242 347.932 62.3109C349.302 64.7409 350.702 67.1609 352.082 69.5809C353.464 72.2093 355.456 74.4671 357.893 76.164C360.329 77.8608 363.138 78.947 366.082 79.3309C370.902 80.0209 375.732 80.7109 380.612 79.8609C382.212 79.6109 383.772 79.2109 385.372 78.8509Z" fill="white"/>
<path d="M370.923 130.261C372.487 135.222 374.71 139.951 377.533 144.321C379.473 147.251 381.723 149.951 383.813 152.771C384.423 153.611 384.953 154.511 385.563 155.341C386.173 156.171 385.883 156.471 385.173 156.821C383.773 157.501 382.383 158.201 380.993 158.901C379.641 159.598 378.491 160.631 377.653 161.901C376.408 163.768 375.26 165.697 374.213 167.681C371.575 172.423 367.728 176.381 363.063 179.151C357.993 182.311 350.063 181.341 345.783 177.151C344.765 176.22 343.996 175.048 343.547 173.743C343.098 172.438 342.983 171.042 343.213 169.681C343.359 168.746 343.729 167.861 344.292 167.1C344.854 166.339 345.592 165.725 346.443 165.311C347.449 164.743 348.491 164.242 349.563 163.811C353.563 162.221 354.703 158.891 355.163 155.051C355.381 152.423 355.977 149.839 356.933 147.381C357.379 146.166 358.254 145.155 359.393 144.541C365.393 141.611 368.853 136.641 370.753 130.421C370.803 130.361 370.883 130.311 370.923 130.261ZM361.463 170.481C361.411 169.851 361.186 169.247 360.814 168.735C360.442 168.224 359.937 167.825 359.353 167.581C359.088 167.465 358.853 167.289 358.667 167.067C358.482 166.845 358.35 166.583 358.283 166.301C358.043 165.618 357.585 165.034 356.979 164.638C356.374 164.242 355.654 164.057 354.933 164.111C353.623 164.271 352.813 165.171 352.723 166.801C352.723 167.461 352.323 167.661 351.903 167.981C351.39 168.456 351.037 169.079 350.894 169.763C350.75 170.448 350.823 171.16 351.103 171.801C351.358 172.392 351.823 172.868 352.409 173.136C352.995 173.404 353.659 173.445 354.273 173.251C354.474 173.175 354.692 173.161 354.901 173.211C355.11 173.261 355.298 173.372 355.443 173.531C355.881 174.062 356.493 174.421 357.17 174.544C357.848 174.667 358.547 174.545 359.143 174.201C359.839 173.86 360.426 173.331 360.836 172.673C361.246 172.016 361.463 171.256 361.463 170.481ZM348.213 169.791C346.813 169.741 345.413 170.691 345.383 171.671C345.353 172.651 345.933 172.921 346.763 172.941C347.382 173.02 348.009 172.863 348.518 172.502C349.027 172.141 349.382 171.602 349.513 170.991C349.593 169.971 348.863 169.851 348.213 169.791ZM348.843 167.581C348.703 166.941 348.553 166.211 347.593 166.221C346.633 166.231 344.933 167.461 344.973 168.291C345.013 169.121 345.663 169.481 346.453 169.481C346.735 169.514 347.022 169.492 347.295 169.414C347.569 169.337 347.825 169.206 348.048 169.03C348.271 168.853 348.456 168.634 348.595 168.386C348.733 168.137 348.821 167.864 348.853 167.581H348.843ZM348.843 176.231C349.423 176.249 349.989 176.056 350.438 175.688C350.886 175.321 351.187 174.803 351.283 174.231C351.283 173.481 350.963 172.901 350.083 172.891C348.983 172.891 347.453 174.111 347.483 174.991C347.513 175.871 348.213 176.131 348.883 176.231H348.843ZM351.633 178.461C351.962 178.473 352.291 178.414 352.595 178.288C352.9 178.162 353.175 177.973 353.4 177.732C353.626 177.491 353.797 177.205 353.903 176.893C354.008 176.58 354.046 176.249 354.013 175.921C354.013 175.261 353.643 175.001 353.013 175.011C352.419 175.077 351.859 175.323 351.408 175.716C350.958 176.109 350.638 176.631 350.493 177.211C350.47 177.374 350.484 177.541 350.534 177.698C350.584 177.856 350.669 178 350.782 178.12C350.896 178.24 351.034 178.333 351.189 178.392C351.343 178.451 351.508 178.475 351.673 178.461H351.633Z" fill="white"/>
<path d="M546.613 178.051C546.173 177.241 545.833 176.531 545.423 175.861C545.133 175.401 544.683 175.041 544.113 175.401C543.543 175.761 543.703 176.291 544.003 176.761C544.513 177.503 544.866 178.343 545.038 179.227C545.21 180.111 545.198 181.022 545.003 181.901C544.97 182.191 544.871 182.469 544.714 182.713C544.556 182.958 544.343 183.163 544.093 183.311C543.77 183.526 543.436 183.723 543.093 183.901C542.493 184.201 541.803 184.791 541.243 184.581C540.683 184.371 541.113 183.451 540.963 182.871C540.819 182.087 540.566 181.326 540.213 180.611C540.168 180.497 540.101 180.394 540.015 180.307C539.928 180.221 539.825 180.153 539.712 180.108C539.598 180.063 539.477 180.042 539.355 180.046C539.233 180.05 539.113 180.079 539.003 180.131C538.463 180.371 538.473 180.851 538.713 181.351C539.099 182.142 539.298 183.011 539.293 183.891C539.293 184.891 538.913 185.321 537.853 185.341C535.095 185.274 532.378 184.67 529.853 183.561C524.224 181.462 519.133 178.135 514.953 173.821C513.673 172.491 513.693 172.441 514.953 171.131C520.322 165.173 525.017 158.64 528.953 151.651C530.463 149.081 531.763 146.361 533.863 144.171L534.413 143.581C534.678 144.392 534.819 145.238 534.833 146.091C536.223 153.795 539.155 161.138 543.453 167.681C545.173 170.341 546.633 173.131 546.723 176.421C546.777 176.967 546.74 177.518 546.613 178.051Z" fill="white"/>
<path d="M542.514 82.021C542.934 82.0791 543.352 82.1592 543.764 82.261C546.557 83.0677 549.178 84.3831 551.494 86.141C551.824 86.401 552.104 86.561 551.774 87.081C550.693 89.0182 550.358 91.2841 550.834 93.451C551.078 94.342 551.049 95.286 550.749 96.1599C550.449 97.0339 549.893 97.7974 549.154 98.351C547.594 99.581 546.264 101.101 544.644 102.271C542.094 104.111 540.484 104.101 538.454 101.001C537.28 99.1005 536.593 96.9402 536.454 94.711C536.005 91.5794 536.406 88.3849 537.614 85.461C538.009 84.4741 538.682 83.6235 539.552 83.0127C540.422 82.4019 541.451 82.0574 542.514 82.021Z" fill="#DEFFFF"/>
<path d="M552.383 91.5611C552.382 90.8865 552.466 90.2145 552.633 89.5611C553.013 87.8211 553.763 87.0011 555.183 86.8211C555.916 86.728 556.66 86.8634 557.313 87.2088C557.966 87.5542 558.497 88.0928 558.833 88.7511C559.753 90.5111 559.113 94.5011 557.703 95.9211C556.763 96.8711 555.603 96.7311 554.463 96.5811C552.693 96.3511 552.703 96.3211 552.643 94.5811C552.643 94.0711 552.563 93.5811 552.523 93.0411C552.483 92.5011 552.433 92.0411 552.383 91.5611Z" fill="#DEFFFF"/>
<path d="M560.453 102.211C559.631 101.077 559.102 99.7583 558.913 98.371C558.879 98.0146 558.979 97.6584 559.193 97.371C560.863 94.251 561.743 91.051 560.393 87.551C560.093 86.781 560.753 85.941 561.823 85.551C562.893 85.161 562.823 86.091 562.983 86.611C563.414 88.7247 563.471 90.8975 563.153 93.031C562.914 95.8838 562.186 98.6744 561.003 101.281C560.837 101.601 560.653 101.912 560.453 102.211Z" fill="#DEFFFF"/>
<path d="M554.903 9.86102C552.199 9.32286 549.458 8.98858 546.703 8.86102C547.823 7.92102 548.703 7.12102 549.593 6.46102C549.902 6.1854 550.27 5.98367 550.668 5.87112C551.067 5.75856 551.486 5.73811 551.893 5.81133C552.301 5.88456 552.686 6.04953 553.021 6.29375C553.355 6.53798 553.629 6.85506 553.823 7.22102C554.379 8.00773 554.748 8.9105 554.903 9.86102Z" fill="white"/>
<path d="M581.214 29.951C580.454 29.641 579.694 29.291 578.914 29.021C578.134 28.751 577.414 28.581 576.594 28.351C577.244 27.831 577.874 27.351 578.454 26.841C578.744 26.581 578.944 26.671 579.164 26.841C580.179 27.6027 580.888 28.7021 581.164 29.9409L581.214 29.951Z" fill="#FFDCE9"/>
<path d="M521.134 19.681C520.172 18.3192 519.402 16.832 518.844 15.261C519.286 15.3985 519.696 15.6224 520.051 15.9197C520.406 16.217 520.699 16.5818 520.912 16.9929C521.125 17.404 521.254 17.8532 521.292 18.3147C521.33 18.7761 521.276 19.2405 521.134 19.681Z" fill="#FFDCE9"/>
<path d="M520.812 14.041L520.502 13.761C520.536 13.721 520.578 13.6888 520.625 13.6668C520.673 13.6447 520.725 13.6333 520.777 13.6333C520.829 13.6333 520.881 13.6447 520.929 13.6668C520.976 13.6888 521.018 13.721 521.052 13.761L520.812 14.041Z" fill="white"/>
<path d="M581.213 29.981C581.293 29.891 581.363 29.901 581.393 29.981C581.423 30.061 581.393 30.061 581.393 30.091L581.273 29.921L581.213 29.981Z" fill="#FFDCE9"/>
<path d="M426.343 157.941C426.243 157.991 426.093 158.101 426.053 158.071C426.013 158.041 426.053 157.801 426.053 157.671L426.343 157.941Z" fill="white"/>
<path d="M546.213 47.461C545.336 47.5008 544.459 47.3857 543.623 47.121C542.832 46.9667 542.095 46.6129 541.48 46.093C540.865 45.5731 540.393 44.9045 540.109 44.1508C539.825 43.397 539.739 42.5833 539.859 41.7869C539.979 40.9905 540.3 40.238 540.793 39.601C543.153 36.151 546.603 34.371 550.613 33.601C552.101 33.3309 553.625 33.3309 555.113 33.601C555.892 33.6804 556.64 33.9507 557.291 34.3879C557.941 34.8252 558.474 35.4159 558.841 36.1079C559.209 36.7999 559.401 37.5719 559.399 38.3555C559.398 39.1392 559.203 39.9104 558.833 40.601C557.984 42.1901 556.758 43.5465 555.263 44.551C552.609 46.412 549.454 47.4265 546.213 47.461Z" fill="#FFDCE9"/>
<path d="M561.813 24.6211C562.202 24.7282 562.586 24.855 562.963 25.0011C563.653 25.3111 564.213 25.7511 564.173 26.6011C564.133 27.4511 563.473 27.8111 562.753 27.9911C561.633 28.2811 560.503 28.5111 559.373 28.7611C557.072 29.2532 554.822 29.9596 552.653 30.8711C552.543 30.9211 552.423 30.9411 552.313 30.9811C551.483 31.2111 550.503 31.7511 549.923 30.7811C549.343 29.8111 550.433 29.3411 551.023 28.8611C553.143 27.1511 554.933 25.0911 556.963 23.2911C557.587 22.6706 558.306 22.1541 559.093 21.7611C560.093 21.3311 561.183 20.8311 562.093 21.7611C563.003 22.6911 562.343 23.6811 561.813 24.6211Z" fill="#FF7596"/>
<path d="M555.412 20.0008C554.498 20.0373 553.593 19.8118 552.802 19.3508C552.531 19.1989 552.302 18.9806 552.138 18.7163C551.974 18.4521 551.88 18.1506 551.864 17.84C551.848 17.5294 551.911 17.2198 552.047 16.9401C552.183 16.6605 552.388 16.4199 552.642 16.2408C553.55 15.6328 554.598 15.2675 555.687 15.18C556.776 15.0924 557.869 15.2855 558.862 15.7408C559.173 15.8855 559.438 16.1119 559.63 16.3956C559.821 16.6794 559.932 17.0099 559.951 17.3519C559.969 17.6938 559.895 18.0344 559.735 18.3372C559.575 18.6399 559.335 18.8935 559.042 19.0708C557.969 19.7746 556.692 20.1018 555.412 20.0008ZM558.132 17.4008C557.413 17.0905 556.628 16.9664 555.848 17.0398C555.069 17.1132 554.321 17.3818 553.672 17.8208C554.395 18.1129 555.177 18.2272 555.953 18.1541C556.729 18.081 557.477 17.8227 558.132 17.4008Z" fill="#FF7596"/>
<path d="M570.302 43.061C569.422 43.061 568.612 42.791 568.522 41.811C568.502 41.6077 568.527 41.4024 568.596 41.21C568.665 41.0176 568.775 40.8428 568.92 40.6984C569.064 40.5539 569.239 40.4433 569.431 40.3746C569.624 40.3059 569.829 40.2807 570.032 40.301C572.5 40.2615 574.94 39.7735 577.232 38.861C577.879 38.6465 578.576 38.6291 579.232 38.811C579.39 38.8467 579.53 38.9342 579.632 39.0593C579.733 39.1843 579.79 39.3399 579.792 39.501C579.792 39.851 579.712 40.171 579.352 40.261C576.432 41.011 573.802 42.691 570.752 43.001L570.302 43.061Z" fill="#FF7596"/>
<path d="M361.463 170.481C361.463 171.256 361.246 172.016 360.836 172.673C360.426 173.331 359.839 173.86 359.143 174.201C358.547 174.545 357.848 174.667 357.17 174.544C356.493 174.421 355.881 174.062 355.443 173.531C355.299 173.372 355.11 173.261 354.901 173.211C354.693 173.161 354.474 173.175 354.273 173.251C353.659 173.445 352.995 173.404 352.409 173.136C351.823 172.868 351.358 172.392 351.103 171.801C350.824 171.16 350.75 170.448 350.894 169.763C351.037 169.079 351.39 168.456 351.903 167.981C352.323 167.661 352.693 167.461 352.723 166.801C352.813 165.171 353.623 164.271 354.933 164.111C355.655 164.057 356.374 164.242 356.979 164.638C357.585 165.034 358.043 165.618 358.283 166.301C358.35 166.583 358.482 166.845 358.667 167.067C358.853 167.289 359.088 167.465 359.353 167.581C359.937 167.825 360.442 168.224 360.815 168.735C361.187 169.247 361.411 169.851 361.463 170.481Z" fill="#FF7596"/>
<path d="M348.212 169.791C348.852 169.851 349.582 169.971 349.512 170.991C349.382 171.601 349.027 172.141 348.517 172.502C348.008 172.863 347.381 173.02 346.762 172.941C345.932 172.941 345.352 172.591 345.382 171.671C345.412 170.751 346.822 169.741 348.212 169.791Z" fill="#FF7596"/>
<path d="M348.854 167.581C348.788 168.15 348.5 168.669 348.052 169.026C347.604 169.382 347.032 169.546 346.464 169.481C345.674 169.481 345.034 169.201 344.984 168.291C344.934 167.381 346.514 166.231 347.604 166.221C348.694 166.211 348.714 166.941 348.854 167.581Z" fill="#FF7596"/>
<path d="M348.882 176.231C348.232 176.131 347.562 175.891 347.522 174.971C347.482 174.051 349.022 172.871 350.122 172.871C351.002 172.871 351.302 173.461 351.322 174.211C351.23 174.786 350.932 175.309 350.483 175.681C350.034 176.052 349.465 176.248 348.882 176.231Z" fill="#FF7596"/>
<path d="M351.674 178.461C351.513 178.467 351.353 178.438 351.205 178.375C351.057 178.313 350.925 178.219 350.817 178.099C350.71 177.98 350.629 177.839 350.582 177.686C350.535 177.532 350.522 177.37 350.544 177.211C350.689 176.631 351.008 176.109 351.459 175.716C351.909 175.323 352.469 175.077 353.064 175.011C353.684 175.011 354.064 175.261 354.064 175.921C354.097 176.25 354.059 176.582 353.953 176.895C353.846 177.208 353.674 177.495 353.448 177.736C353.221 177.977 352.945 178.166 352.639 178.291C352.333 178.416 352.004 178.474 351.674 178.461Z" fill="#FF7596"/>
<path d="M558.132 17.4009C557.476 17.8227 556.729 18.0811 555.953 18.1541C555.177 18.2272 554.395 18.113 553.672 17.8209C554.32 17.3819 555.069 17.1132 555.848 17.0398C556.628 16.9664 557.413 17.0906 558.132 17.4009Z" fill="white"/>
</svg>
