<svg width="300" height="200" viewBox="0 0 300 200" fill="none" xmlns="http://www.w3.org/2000/svg">
<path d="M264.505 82.7813C267.355 81.6913 268.735 82.4013 269.095 85.3113C269.763 90.3261 269.093 95.4285 267.155 100.101C267.118 100.173 267.078 100.244 267.035 100.311C266.495 101.371 266.035 102.641 264.635 102.701C263.235 102.761 262.995 101.371 262.195 100.261C262.035 101.871 261.915 103.261 261.755 104.701C261.065 110.971 260.375 117.241 258.215 123.221C254.935 132.281 249.215 139.591 241.825 145.661C240.615 146.661 239.385 147.601 238.145 148.541C237.834 148.75 237.607 149.061 237.505 149.421C235.985 154.981 233.985 160.421 233.585 166.261C233.062 172.161 233.607 178.106 235.195 183.811C235.709 185.312 236.094 186.855 236.345 188.421C236.915 193.151 234.285 195.971 231.055 197.421C225.255 200.101 219.525 199.421 214.055 196.221C212.187 195.06 210.465 193.681 208.925 192.111C208.51 191.697 207.95 191.461 207.365 191.451C203.255 191.111 199.685 189.641 197.225 186.161C196.102 184.31 195.418 182.227 195.225 180.071C194.405 175.181 193.325 170.371 190.685 166.071C190.591 165.939 190.504 165.802 190.425 165.661C190.152 165.032 189.672 164.514 189.064 164.196C188.456 163.878 187.757 163.777 187.085 163.911C182.208 164.129 177.321 163.837 172.505 163.041C165.935 162.141 159.335 161.451 152.805 160.301C148.285 159.491 143.805 158.641 139.295 157.631C133.295 156.271 127.295 156.581 121.295 157.111C120.506 157.238 119.712 157.325 118.915 157.371C116.285 157.371 114.475 158.651 112.915 160.621C110.715 163.321 108.585 166.031 107.475 169.411C106.365 172.791 106.365 176.191 108.635 179.191C110.905 182.191 111.055 185.551 110.375 189.011C109.585 193.011 105.375 196.761 100.915 197.241C95.6645 197.811 90.9145 196.111 86.4845 193.451C85.4057 192.842 84.4302 192.066 83.5945 191.151C82.7339 190.123 81.549 189.417 80.2345 189.151C78.0116 188.667 75.9119 187.731 74.066 186.402C72.2201 185.072 70.6675 183.377 69.5045 181.421C63.9465 172.721 61.7395 162.298 63.2945 152.091C63.7363 149.113 64.9965 146.316 66.9345 144.011C70.5445 139.571 71.6745 134.381 72.0045 128.851C72.2145 125.171 71.8945 121.521 71.7745 117.851C71.6459 114.336 71.8232 110.816 72.3045 107.331C72.3045 107.101 72.3045 106.871 72.3845 106.571C72.2145 106.571 72.0845 106.571 72.0245 106.651C66.0245 112.351 58.7545 115.361 50.8445 117.101C44.7283 118.604 38.3419 118.628 32.2146 117.171C26.1645 115.621 20.8745 112.881 17.1145 107.731C14.4945 104.151 13.1845 100.211 14.5445 95.8013C15.7345 91.9513 18.7345 89.8913 22.3345 88.6113C26.9445 86.9813 31.7745 86.6113 36.6045 86.3713C47.1345 85.9013 57.6945 85.6313 67.9646 82.8313C74.6828 81.0676 81.2239 78.6875 87.5045 75.7213C87.799 75.6048 88.0752 75.4465 88.3245 75.2513C93.9245 69.7713 100.675 66.1713 107.795 63.1113C115.509 59.7931 123.742 57.844 132.125 57.3513C136.705 57.0613 141.285 56.5513 145.885 56.6713C156.985 56.9513 168.065 57.4913 179.005 59.6713C181.875 60.2002 184.779 60.5343 187.695 60.6713C188.745 60.7413 189.305 60.4413 189.695 59.2413C191.545 53.4013 194.765 48.2413 198.355 43.3713C202.127 37.9696 206.517 33.0262 211.435 28.6413C211.808 28.3769 212.113 28.026 212.322 27.6186C212.531 27.2111 212.638 26.7592 212.635 26.3013C212.753 19.5931 215.454 13.189 220.175 8.4213C222.125 6.4213 224.455 5.21129 227.395 5.78129C229.098 6.11656 230.62 7.06252 231.675 8.44129C231.82 8.67237 232.04 8.84689 232.298 8.93598C232.557 9.02507 232.837 9.02343 233.095 8.93131C234.799 8.49144 236.534 8.18054 238.285 8.00129C238.557 7.96083 238.817 7.85876 239.044 7.7028C239.271 7.54683 239.459 7.3411 239.595 7.1013C241.16 4.86779 243.211 3.01813 245.595 1.69129C248.445 0.251292 250.825 1.08131 252.195 3.99131C252.778 5.04282 253.12 6.21114 253.195 7.41129C253.195 8.46129 253.695 8.50129 254.395 8.72129C262.212 11.0785 269.056 15.9022 273.905 22.4713C274.025 22.6293 274.175 22.762 274.346 22.8615C274.518 22.9611 274.708 23.0256 274.905 23.0513C281.665 24.4613 285.065 30.2313 285.795 36.4813C286.625 43.5813 284.495 50.1213 281.795 56.5413C279.175 62.7613 275.145 68.0413 270.845 73.1513C269.015 75.3213 267.335 77.6013 265.715 79.9313C265.016 80.7267 264.591 81.726 264.505 82.7813ZM85.7345 78.6413C85.581 78.6841 85.4306 78.7376 85.2845 78.8013C72.3651 84.4985 58.4507 87.5973 44.3345 87.9213C39.3861 87.9696 34.4445 88.3034 29.5345 88.9213C26.0845 89.4113 22.6645 90.0413 19.7045 92.0513C18.4721 92.8089 17.465 93.8827 16.7879 95.1612C16.1109 96.4397 15.7886 97.8761 15.8545 99.3213C16.0143 102.42 17.2564 105.365 19.3645 107.641C24.5145 113.701 31.4945 115.821 39.0445 116.381C45.1745 116.831 51.1145 115.491 56.8845 113.511C61.4841 112.008 65.7636 109.661 69.5045 106.591C71.0945 105.251 72.7545 103.781 73.3845 101.841C74.9418 97.1896 77.0573 92.7438 79.6845 88.6013C81.6845 85.3213 83.8145 82.0713 85.8845 78.8113C85.9845 78.8113 86.0945 78.7313 86.0045 78.6113C85.9145 78.4913 85.8645 78.6313 85.7645 78.6413H85.7345ZM107.295 191.001C108.253 189.495 108.762 187.747 108.762 185.961C108.762 184.176 108.253 182.428 107.295 180.921C104.135 176.471 104.155 171.921 106.225 167.091C108.085 162.781 111.225 159.401 114.475 156.191C119.209 151.69 123.498 146.744 127.285 141.421C130.964 136.151 133.968 130.44 136.225 124.421C136.475 123.771 136.785 123.021 137.655 123.361C138.525 123.701 138.155 124.501 137.915 125.101C136.894 127.825 135.736 130.495 134.445 133.101C130.275 141.029 124.954 148.294 118.655 154.661C118.435 154.891 118.075 155.051 118.095 155.511C120.675 155.281 123.215 155.061 125.765 154.871C130.11 154.52 134.484 154.762 138.765 155.591C144.435 156.701 150.105 157.871 155.765 158.821C160.835 159.671 165.945 160.301 171.055 160.921C175.111 161.574 179.201 161.998 183.305 162.191C186.82 162.235 190.333 161.978 193.805 161.421C195.205 161.191 195.215 161.131 194.575 159.861C194.075 158.861 193.495 157.861 192.975 156.921C192.715 156.441 192.605 155.921 193.165 155.541C193.397 155.42 193.668 155.396 193.918 155.472C194.169 155.549 194.379 155.721 194.505 155.951L195.025 156.751C196.139 158.596 197.022 160.571 197.655 162.631C199.095 167.211 199.905 171.901 201.505 176.421C204.065 183.421 207.905 189.491 214.015 193.981C217.096 196.161 220.791 197.303 224.565 197.241C225.455 197.241 225.775 196.951 225.095 196.161C224.575 195.561 224.095 194.921 223.565 194.321C223.195 193.891 222.935 193.421 223.415 192.951C223.895 192.481 224.415 192.721 224.775 193.141C225.541 193.897 226.212 194.744 226.775 195.661C227.355 196.801 227.985 196.751 229.015 196.381C232.545 195.101 232.845 193.861 230.165 191.221C229.735 190.791 229.165 190.331 229.815 189.721C230.465 189.111 230.905 189.611 231.375 190.031C232.238 190.872 232.982 191.828 233.585 192.871C234.194 192.027 234.542 191.022 234.585 189.981C234.566 188.5 234.295 187.032 233.785 185.641C231.468 178.127 230.941 170.176 232.245 162.421C233.325 156.54 235 150.784 237.245 145.241C237.445 144.691 237.465 144.001 238.295 144.001C239.125 144.001 238.905 144.841 239.185 145.441C240.085 144.701 240.965 144.021 241.795 143.301C249.325 136.771 254.945 128.951 257.535 119.221C259.033 113.095 259.95 106.84 260.275 100.541C260.355 99.4713 260.845 98.1613 260.395 97.3813C259.945 96.6013 258.395 96.9813 257.305 96.6513C257.003 96.552 256.678 96.5477 256.374 96.6389C256.07 96.7301 255.802 96.9124 255.605 97.1613C253.838 99.0678 251.904 100.812 249.825 102.371C248.829 103.183 247.614 103.681 246.335 103.801C243.795 103.891 242.335 102.321 241.115 100.381C239.483 97.5227 238.667 94.2715 238.755 90.9813C238.618 88.1772 239.171 85.3825 240.365 82.8413C241.036 81.3215 242.242 80.101 243.753 79.4116C245.265 78.7222 246.977 78.6117 248.565 79.1013C251.693 79.9566 254.599 81.478 257.085 83.5613C257.365 83.7913 257.515 84.1413 258.085 83.9313C258.765 83.6591 259.493 83.5285 260.226 83.5474C260.958 83.5663 261.679 83.7344 262.345 84.0413C262.915 82.3813 262.905 80.6113 263.955 79.1513C265.755 76.6613 267.555 74.1513 269.535 71.8213C273.805 66.7713 277.715 61.5113 280.275 55.3413C282.505 49.9213 284.175 44.4213 284.065 38.5113C284.068 37.9764 283.962 37.4465 283.752 36.9545C283.542 36.4625 283.233 36.0189 282.845 35.6513C281.135 34.0151 279.029 32.8505 276.735 32.2713C276.215 32.1313 275.735 31.9913 275.645 31.3513C275.555 30.7113 276.155 30.5013 276.645 30.3513C277.749 29.9922 278.769 29.414 279.645 28.6513C280.175 28.2313 280.195 27.9513 279.645 27.4513C278.045 25.9889 276.066 25.0049 273.935 24.6113C273.311 24.4766 272.757 24.1215 272.375 23.6113C265.505 14.8313 256.715 9.5713 245.225 9.4213C241.509 9.35871 237.798 9.69396 234.155 10.4213C233.375 10.5813 233.085 10.7513 233.455 11.6113C233.958 12.8224 234.382 14.065 234.725 15.3313C234.925 15.9913 235.275 16.8813 234.325 17.1913C233.375 17.5013 233.215 16.5413 232.965 15.9013C232.835 15.5713 232.785 15.2013 232.675 14.9013C232.231 13.2805 231.557 11.7314 230.675 10.3013C228.575 7.23131 225.515 6.70131 222.515 8.90131C220.375 10.5819 218.661 12.7438 217.515 15.2113C215.035 20.0913 213.705 25.2113 214.715 30.6913C214.99 32.1363 215.367 33.5599 215.845 34.9513C216.015 35.4513 216.075 36.0513 215.435 36.2813C214.795 36.5113 214.435 36.0313 214.275 35.5313C214.062 35.0139 213.885 34.4827 213.745 33.9413C213.415 32.6613 213.105 31.3713 212.745 29.9413L212.205 30.3913C207.652 34.5382 203.564 39.1689 200.015 44.2013C196.275 49.2513 192.905 54.4913 191.015 60.5513C190.963 60.8598 190.85 61.155 190.683 61.4198C190.517 61.6846 190.299 61.9138 190.044 62.0942C189.788 62.2745 189.499 62.4025 189.194 62.4706C188.888 62.5388 188.573 62.5458 188.265 62.4913C186.549 62.4783 184.836 62.3648 183.135 62.1513C175.985 61.1513 168.905 59.7313 161.675 59.2713C156.335 58.9313 150.985 58.4513 145.675 58.5113C139.125 58.5145 132.584 58.9588 126.095 59.8413C115.502 61.4884 105.373 65.3415 96.3645 71.1513C93.8148 72.557 91.5629 74.4454 89.7345 76.7113C85.8591 82.0816 82.2804 87.6599 79.0145 93.4213C74.2545 101.691 73.1645 110.691 73.7345 120.011C74.0145 124.751 75.2345 129.371 75.7345 134.101C76.2175 137.998 75.7226 141.954 74.2945 145.611C73.4378 147.417 72.9063 149.361 72.7245 151.351C72.519 155.34 72.7706 159.34 73.4745 163.271C74.4636 169.539 76.2864 175.647 78.8945 181.431C82.6045 189.311 88.6245 194.191 97.4045 195.431C98.2045 195.541 98.5345 195.431 98.3445 194.561C98.135 193.301 97.6942 192.091 97.0445 190.991C96.7145 190.491 96.4245 189.991 97.0445 189.521C97.6645 189.051 98.1645 189.591 98.5045 190.101C99.2576 191.325 99.7638 192.683 99.9945 194.101C100.275 195.541 100.325 195.631 101.755 195.101C106.665 193.201 106.875 192.771 103.995 188.101C103.655 187.561 102.995 187.101 103.735 186.471C104.475 185.841 104.915 186.551 105.315 187.031C106.218 188.223 106.899 189.568 107.325 191.001H107.295ZM79.8745 187.151C78.2171 184.639 76.8326 181.957 75.7445 179.151C73.0768 172.137 71.4137 164.781 70.8045 157.301C70.5145 153.301 70.5445 149.301 72.2445 145.541C74.0666 141.57 74.5101 137.104 73.5045 132.851C73.5045 133.021 73.4245 133.131 73.4045 133.241C72.8445 137.241 71.7145 141.061 69.0545 144.241C65.3245 148.651 64.4545 153.891 64.6145 159.381C64.7597 163.128 65.3951 166.84 66.5045 170.421C67.7255 174.899 69.8641 179.074 72.7845 182.681C74.6502 184.858 77.1332 186.417 79.9045 187.151H79.8745ZM240.605 90.3313C240.605 93.9013 241.105 97.0213 242.945 99.7513C244.785 102.481 246.185 102.571 248.535 100.991C250.325 99.7913 251.755 98.1413 253.435 96.8013C255.115 95.4613 255.435 93.9313 255.115 91.9013C254.64 89.7377 254.974 87.4751 256.055 85.5413C256.375 85.0213 256.105 84.8613 255.775 84.5913C253.601 82.9824 251.184 81.7332 248.615 80.8913C247.963 80.6444 247.269 80.5296 246.573 80.5537C245.876 80.5777 245.192 80.7401 244.559 81.0315C243.926 81.3228 243.357 81.7372 242.886 82.2505C242.415 82.7638 242.051 83.3658 241.815 84.0213C240.972 86.0161 240.559 88.1663 240.605 90.3313ZM206.555 189.501C206.498 189.36 206.431 189.223 206.355 189.091C202.373 183.856 199.554 177.832 198.085 171.421C197.455 168.791 196.715 166.191 196.005 163.581C195.915 163.251 196.005 162.661 195.335 162.871C193.959 163.244 192.554 163.495 191.135 163.621C194.425 168.111 195.855 173.171 196.865 178.391C197.045 179.391 197.265 180.391 197.405 181.331C198.105 186.191 201.815 188.711 206.555 189.501ZM256.685 89.7513C256.785 91.2813 256.865 92.6313 256.955 93.9913C256.94 94.1698 256.985 94.348 257.08 94.4993C257.176 94.6507 257.317 94.7672 257.485 94.8313C260.755 96.0713 262.485 95.1213 263.195 91.6613C263.285 91.2413 263.335 90.8013 263.455 90.3813C263.606 89.7197 263.604 89.0321 263.448 88.3715C263.292 87.7109 262.986 87.095 262.555 86.5713C262.207 86.0274 261.693 85.6101 261.09 85.3813C260.486 85.1525 259.825 85.1245 259.205 85.3013C258.633 85.4172 258.111 85.7089 257.713 86.1356C257.315 86.5623 257.06 87.1027 256.985 87.6813C256.757 88.3467 256.655 89.0487 256.685 89.7513ZM264.685 100.631C264.881 100.371 265.058 100.097 265.215 99.8113C266.446 97.1682 267.197 94.3274 267.435 91.4213C267.755 89.2908 267.694 87.1204 267.255 85.0113C267.115 84.5013 267.085 83.7313 266.165 84.0113C265.245 84.2913 264.375 85.2213 264.665 85.9513C266.035 89.4813 265.155 92.7313 263.445 95.8713C263.257 96.1287 263.165 96.4434 263.185 96.7613C263.354 98.163 263.884 99.4967 264.725 100.631H264.685ZM251.445 8.1413C251.277 6.78459 250.864 5.46977 250.225 4.2613C249.988 3.7013 249.542 3.25556 248.982 3.0185C248.422 2.78144 247.792 2.7717 247.225 2.99131C244.775 3.85131 243.055 5.6113 241.295 7.7613C244.683 7.61051 248.077 7.73761 251.445 8.1413ZM281.355 29.4813L279.205 31.2013C280.597 31.8207 281.936 32.5566 283.205 33.4013C282.801 32.0045 282.176 30.6811 281.355 29.4813Z" fill="#FF7596"/>
<path d="M107.325 191.001C106.884 189.553 106.183 188.197 105.255 187.001C104.855 186.521 104.375 185.861 103.675 186.441C102.975 187.021 103.595 187.531 103.935 188.071C106.815 192.771 106.605 193.201 101.695 195.071C100.265 195.631 100.215 195.541 99.9351 194.071C99.7043 192.653 99.1982 191.295 98.4451 190.071C98.1051 189.561 97.6551 189.021 96.9851 189.491C96.3151 189.961 96.6651 190.491 96.9851 190.961C97.6348 192.061 98.0755 193.271 98.2851 194.531C98.4751 195.411 98.1451 195.531 97.3451 195.401C88.5651 194.161 82.5451 189.281 78.8351 181.401C76.2269 175.617 74.4041 169.509 73.4151 163.241C72.7112 159.31 72.4595 155.31 72.6651 151.321C72.8469 149.33 73.3783 147.387 74.2351 145.581C75.6631 141.924 76.158 137.968 75.6751 134.071C75.2251 129.341 74.0051 124.721 73.6751 119.981C73.1051 110.661 74.1951 101.661 78.9551 93.3912C82.1969 87.6178 85.7522 82.0261 89.6051 76.6412C91.4334 74.3753 93.6853 72.4869 96.2351 71.0812C105.244 65.2714 115.373 61.4183 125.965 59.7712C132.454 58.8887 138.996 58.4444 145.545 58.4412C150.885 58.3812 156.235 58.8612 161.545 59.2012C168.775 59.6612 175.855 61.0912 183.005 62.0812C184.707 62.2947 186.42 62.4082 188.135 62.4212C188.443 62.4757 188.759 62.4687 189.064 62.4005C189.37 62.3324 189.659 62.2044 189.914 62.0241C190.17 61.8437 190.387 61.6145 190.554 61.3497C190.721 61.0849 190.833 60.7897 190.885 60.4812C192.815 54.4212 196.185 49.1812 199.885 44.1312C203.494 39.125 207.638 34.5278 212.245 30.4212L212.785 29.9712C213.115 31.3612 213.425 32.6512 213.785 33.9712C213.926 34.5126 214.103 35.0439 214.315 35.5612C214.515 36.0612 214.835 36.5612 215.475 36.3112C216.115 36.0612 216.055 35.4812 215.885 34.9812C215.408 33.5898 215.03 32.1662 214.755 30.7212C213.755 25.2112 215.075 20.1212 217.555 15.2412C218.702 12.7738 220.415 10.6118 222.555 8.93124C225.555 6.73124 228.615 7.26123 230.715 10.3312C231.598 11.7613 232.271 13.3104 232.715 14.9312C232.825 15.2712 232.875 15.6412 233.005 15.9312C233.255 16.5712 233.395 17.5312 234.365 17.2212C235.335 16.9112 234.965 16.0212 234.765 15.3612C234.426 14.0952 234.005 12.8526 233.505 11.6412C233.135 10.7812 233.425 10.6412 234.205 10.4512C237.849 9.72388 241.56 9.38864 245.275 9.45123C256.765 9.57123 265.545 14.8312 272.475 23.6512C272.858 24.1614 273.412 24.5165 274.035 24.6512C276.167 25.0448 278.145 26.0288 279.745 27.4912C280.245 27.9912 280.225 28.2712 279.745 28.6912C278.87 29.4539 277.849 30.0321 276.745 30.3912C276.245 30.5212 275.685 30.7012 275.745 31.3912C275.805 32.0812 276.315 32.1712 276.835 32.3112C279.13 32.8904 281.235 34.055 282.945 35.6912C283.334 36.0588 283.643 36.5024 283.852 36.9944C284.062 37.4864 284.169 38.0163 284.165 38.5512C284.275 44.4712 282.575 49.9612 280.355 55.3412C277.795 61.5112 273.885 66.7712 269.615 71.8212C267.615 74.1712 265.835 76.6612 264.035 79.1512C263.035 80.6112 263.035 82.3812 262.425 84.0412C261.76 83.7343 261.039 83.5663 260.306 83.5474C259.574 83.5284 258.845 83.6591 258.165 83.9312C257.615 84.1412 257.465 83.7912 257.165 83.5612C254.68 81.4779 251.773 79.9565 248.645 79.1012C247.057 78.6117 245.345 78.7221 243.834 79.4115C242.322 80.101 241.116 81.3214 240.445 82.8412C239.252 85.3824 238.699 88.1771 238.835 90.9812C238.748 94.2714 239.564 97.5226 241.195 100.381C242.385 102.321 243.875 103.891 246.415 103.801C247.694 103.681 248.909 103.183 249.905 102.371C251.984 100.811 253.919 99.0677 255.685 97.1612C255.882 96.9124 256.151 96.73 256.455 96.6388C256.759 96.5476 257.084 96.552 257.385 96.6512C258.385 96.9812 259.955 96.4812 260.475 97.3812C260.995 98.2812 260.475 99.4712 260.355 100.541C259.992 106.83 259.038 113.071 257.505 119.181C254.915 128.911 249.295 136.731 241.765 143.261C240.935 143.981 240.055 144.661 239.155 145.401C238.875 144.801 239.155 143.961 238.265 143.961C237.375 143.961 237.415 144.651 237.215 145.201C234.97 150.744 233.295 156.5 232.215 162.381C230.909 170.131 231.433 178.079 233.745 185.591C234.256 186.982 234.526 188.45 234.545 189.931C234.502 190.972 234.155 191.977 233.545 192.821C232.942 191.778 232.198 190.822 231.335 189.981C230.865 189.561 230.335 189.131 229.775 189.671C229.215 190.211 229.695 190.741 230.125 191.171C232.805 193.811 232.505 195.051 228.975 196.331C227.975 196.701 227.315 196.751 226.735 195.611C226.173 194.694 225.501 193.847 224.735 193.091C224.365 192.671 223.855 192.431 223.375 192.901C222.895 193.371 223.155 193.841 223.525 194.271C224.045 194.871 224.525 195.511 225.055 196.111C225.735 196.901 225.415 197.211 224.525 197.191C220.751 197.253 217.056 196.111 213.975 193.931C207.925 189.421 204.085 183.421 201.505 176.421C199.885 171.951 199.075 167.261 197.665 162.731C197.033 160.671 196.149 158.696 195.035 156.851L194.515 156.051C194.39 155.821 194.179 155.649 193.929 155.572C193.678 155.496 193.408 155.52 193.175 155.641C192.615 155.981 192.725 156.541 192.985 157.021C193.505 158.021 194.085 159.021 194.585 159.961C195.225 161.231 195.215 161.291 193.815 161.521C190.344 162.078 186.831 162.335 183.315 162.291C179.211 162.098 175.121 161.674 171.065 161.021C165.955 160.401 160.845 159.771 155.775 158.921C150.075 157.921 144.405 156.801 138.775 155.691C134.495 154.862 130.121 154.62 125.775 154.971C123.225 155.161 120.685 155.381 118.105 155.611C118.105 155.151 118.445 154.991 118.665 154.761C124.965 148.394 130.286 141.128 134.455 133.201C135.747 130.595 136.905 127.925 137.925 125.201C138.165 124.601 138.595 123.821 137.665 123.461C136.735 123.101 136.485 123.871 136.235 124.521C133.978 130.54 130.975 136.251 127.295 141.521C123.51 146.809 119.227 151.721 114.505 156.191C111.215 159.401 108.115 162.781 106.255 167.091C104.185 171.891 104.165 176.471 107.325 180.921C108.283 182.428 108.792 184.176 108.792 185.961C108.792 187.747 108.283 189.495 107.325 191.001ZM252.695 36.5612C251.737 36.5066 250.776 36.5976 249.845 36.8312C246.864 37.2688 244.109 38.6743 242.005 40.8312C239.515 43.5712 240.165 47.0312 243.465 48.6712C245.765 49.7203 248.339 50.0109 250.815 49.5012C253.977 49.1457 256.918 47.7036 259.135 45.4212C261.705 42.6312 261.045 39.2112 257.685 37.5112C256.13 36.7729 254.412 36.4458 252.695 36.5612ZM264.405 33.4212C264.903 31.4481 264.872 29.3786 264.315 27.4212C264.135 26.5612 263.615 25.7312 264.155 24.8012C264.224 24.6734 264.241 24.5237 264.202 24.3838C264.163 24.2438 264.071 24.1246 263.945 24.0512C263.075 23.6512 262.345 22.8712 261.215 23.1512C259.654 23.4628 258.192 24.1491 256.955 25.1512C254.145 27.5512 252.885 30.7412 252.155 34.2212C251.985 34.9912 252.595 35.4112 253.425 35.2712C254.525 35.0912 254.965 34.2712 255.425 33.4112C256.316 31.886 257.369 30.4611 258.565 29.1612C258.979 30.5931 259.535 31.9801 260.225 33.3012C260.545 33.8212 260.295 33.9712 259.835 33.8912C259.055 33.7612 258.285 33.5712 257.505 33.3812C257.035 33.2712 256.585 33.2912 256.405 33.8012C256.354 33.9111 256.329 34.0308 256.33 34.1518C256.331 34.2728 256.359 34.392 256.411 34.501C256.464 34.6099 256.54 34.7059 256.634 34.782C256.728 34.8582 256.838 34.9125 256.955 34.9412C259.669 35.8019 262.574 35.8506 265.315 35.0812C265.519 35.0467 265.703 34.9352 265.827 34.7697C265.952 34.6041 266.008 34.3971 265.985 34.1912C265.985 33.6712 265.575 33.4612 265.075 33.4512L264.405 33.4212ZM224.505 18.2112C224.405 18.9237 224.432 19.6482 224.585 20.3512C224.621 20.6701 224.728 20.977 224.897 21.2495C225.067 21.522 225.295 21.7534 225.565 21.9268C225.835 22.1001 226.14 22.2111 226.458 22.2516C226.777 22.2922 227.1 22.2613 227.405 22.1612C228.154 21.9455 228.826 21.5235 229.346 20.9435C229.866 20.3634 230.212 19.6488 230.345 18.8812C230.539 16.8047 230.047 14.7217 228.945 12.9512C228.756 12.551 228.439 12.2249 228.045 12.0241C227.65 11.8232 227.2 11.7589 226.765 11.8412C226.335 11.9251 225.94 12.1387 225.634 12.4533C225.329 12.7679 225.127 13.1685 225.055 13.6012C224.718 15.1156 224.534 16.66 224.505 18.2112ZM256.015 20.7812C257.299 20.9256 258.589 20.5672 259.615 19.7812C259.859 19.6051 260.057 19.3737 260.194 19.106C260.331 18.8383 260.402 18.5419 260.402 18.2412C260.402 17.9406 260.331 17.6442 260.194 17.3765C260.057 17.1087 259.859 16.8773 259.615 16.7012C257.995 15.2712 254.215 15.2312 252.565 16.6212C252.311 16.8168 252.107 17.0708 251.971 17.3617C251.836 17.6526 251.772 17.9719 251.786 18.2926C251.799 18.6133 251.89 18.926 252.05 19.2042C252.21 19.4825 252.435 19.7181 252.705 19.8912C253.658 20.5595 254.815 20.8743 255.975 20.7812H256.015ZM270.075 47.4212C271.37 47.3605 272.604 46.8514 273.565 45.9812C274.504 45.1706 275.507 44.4382 276.565 43.7912C277.195 43.4612 277.715 43.0612 277.295 42.3312C276.875 41.6012 276.235 41.8712 275.705 42.1612C274.705 42.7412 273.645 43.3612 272.705 44.0412C272.356 44.3614 271.934 44.5909 271.475 44.7095C271.016 44.8281 270.536 44.8321 270.075 44.7212C269.916 44.6555 269.745 44.6269 269.573 44.6376C269.401 44.6482 269.235 44.6979 269.085 44.7827C268.936 44.8676 268.808 44.9854 268.711 45.1273C268.613 45.2691 268.55 45.4312 268.525 45.6012C268.44 45.9353 268.479 46.289 268.635 46.5963C268.792 46.9036 269.055 47.1435 269.375 47.2712C269.601 47.3521 269.836 47.4025 270.075 47.4212Z" fill="white"/>
<path d="M85.9254 78.8113C83.8554 82.0713 81.7654 85.3213 79.7254 88.6013C77.0981 92.7439 74.9827 97.1897 73.4254 101.841C72.7954 103.781 71.1354 105.251 69.5454 106.591C65.7991 109.651 61.5162 111.988 56.9154 113.481C51.1454 115.481 45.2054 116.801 39.0754 116.351C31.5254 115.791 24.5454 113.671 19.3954 107.611C17.2873 105.335 16.0451 102.39 15.8854 99.2913C15.8194 97.8461 16.1417 96.4097 16.8187 95.1312C17.4958 93.8527 18.5029 92.7789 19.7354 92.0213C22.7354 90.0213 26.1154 89.3813 29.5654 88.8913C34.4754 88.2735 39.4169 87.9396 44.3654 87.8913C58.4815 87.5674 72.3959 84.4685 85.3154 78.7713C85.4615 78.7076 85.6118 78.6541 85.7654 78.6113C85.8119 78.6831 85.8655 78.7501 85.9254 78.8113Z" fill="white"/>
<path d="M79.9053 187.151C77.1291 186.416 74.6423 184.854 72.7753 182.671C69.8596 179.066 67.7245 174.895 66.5053 170.421C65.3975 166.833 64.7655 163.114 64.6253 159.361C64.4653 153.871 65.3353 148.631 69.0653 144.221C71.7253 141.071 72.8553 137.221 73.4153 133.221C73.4153 133.111 73.4753 133.001 73.5153 132.831C74.5256 137.074 74.0928 141.532 72.2853 145.501C70.5853 149.281 70.5553 153.261 70.8453 157.261C71.4544 164.741 73.1175 172.097 75.7853 179.111C76.8676 181.931 78.2488 184.626 79.9053 187.151Z" fill="white"/>
<path d="M240.605 90.3313C240.56 88.1663 240.972 86.0161 241.815 84.0213C242.051 83.3658 242.415 82.7639 242.886 82.2505C243.358 81.7372 243.926 81.3228 244.559 81.0315C245.192 80.7402 245.877 80.5777 246.573 80.5537C247.269 80.5296 247.963 80.6444 248.615 80.8913C251.184 81.7332 253.602 82.9824 255.775 84.5913C256.105 84.8613 256.375 85.0213 256.055 85.5413C254.975 87.4751 254.64 89.7377 255.115 91.9013C255.445 93.9013 255.115 95.4613 253.435 96.8013C251.755 98.1413 250.325 99.8013 248.535 100.991C246.185 102.571 244.675 102.331 242.945 99.7513C241.215 97.1713 240.565 93.9013 240.605 90.3313Z" fill="#DEFFFF"/>
<path d="M206.555 189.501C201.815 188.711 198.105 186.191 197.405 181.281C197.265 180.281 197.045 179.281 196.865 178.341C195.865 173.121 194.425 168.061 191.135 163.571C192.554 163.445 193.959 163.194 195.335 162.821C195.995 162.611 195.915 163.201 196.005 163.531C196.715 166.141 197.455 168.741 198.085 171.371C199.547 177.8 202.367 183.841 206.355 189.091C206.431 189.223 206.498 189.36 206.555 189.501Z" fill="white"/>
<path d="M256.685 89.7513C256.655 89.0487 256.757 88.3467 256.985 87.6813C257.06 87.1028 257.315 86.5623 257.713 86.1356C258.111 85.7089 258.633 85.4172 259.205 85.3013C259.825 85.1245 260.486 85.1525 261.09 85.3813C261.693 85.6101 262.207 86.0274 262.555 86.5713C263.001 87.0951 263.32 87.7158 263.484 88.3841C263.649 89.0524 263.656 89.7499 263.505 90.4213C263.385 90.8413 263.335 91.2813 263.245 91.7013C262.525 95.1613 260.805 96.1113 257.535 94.8713C257.367 94.8072 257.226 94.6907 257.13 94.5393C257.035 94.3879 256.991 94.2097 257.005 94.0313C256.865 92.6313 256.785 91.2813 256.685 89.7513Z" fill="#DEFFFF"/>
<path d="M264.724 100.631C263.884 99.4968 263.353 98.1631 263.184 96.7614C263.165 96.4435 263.257 96.1288 263.444 95.8714C265.154 92.7314 266.034 89.4814 264.664 85.9514C264.374 85.2214 265.144 84.3014 266.164 84.0114C267.184 83.7214 267.164 84.5214 267.254 85.0114C267.694 87.1205 267.754 89.2909 267.434 91.4214C267.207 94.3182 266.469 97.152 265.254 99.7914C265.099 100.084 264.922 100.365 264.724 100.631Z" fill="#DEFFFF"/>
<path d="M251.445 8.14142C248.078 7.73773 244.683 7.61063 241.295 7.76142C243.055 5.61142 244.775 3.85143 247.225 2.99143C247.792 2.77182 248.422 2.78156 248.982 3.01862C249.542 3.25568 249.988 3.70142 250.225 4.26142C250.864 5.46989 251.277 6.78471 251.445 8.14142Z" fill="white"/>
<path d="M281.354 29.4812C282.167 30.6891 282.781 32.0192 283.174 33.4212C281.905 32.5765 280.567 31.8405 279.174 31.2212L281.354 29.4812Z" fill="#FFDCE9"/>
<path d="M85.7637 78.6412C85.8637 78.6412 86.0137 78.5712 86.0437 78.6412C86.0737 78.7112 86.0437 78.8112 85.9237 78.8412C85.8638 78.78 85.8102 78.713 85.7637 78.6412Z" fill="white"/>
<path d="M252.695 36.5614C254.42 36.4598 256.142 36.8042 257.695 37.5614C261.055 39.2614 261.695 42.6813 259.145 45.4713C256.925 47.7464 253.984 49.1812 250.825 49.5313C248.349 50.041 245.775 49.7504 243.475 48.7013C240.175 47.0613 239.475 43.6013 242.015 40.8613C244.119 38.7044 246.874 37.2989 249.855 36.8613C250.781 36.6187 251.738 36.5175 252.695 36.5614Z" fill="#FFDCE9"/>
<path d="M264.404 33.4214H265.104C265.604 33.4214 265.964 33.6414 266.014 34.1614C266.037 34.3673 265.981 34.5743 265.856 34.7398C265.731 34.9054 265.548 35.0169 265.344 35.0514C262.603 35.8207 259.697 35.7721 256.984 34.9114C256.866 34.8827 256.756 34.8283 256.662 34.7522C256.568 34.6761 256.492 34.5801 256.44 34.4711C256.387 34.3622 256.359 34.2429 256.358 34.122C256.357 34.001 256.383 33.8813 256.434 33.7714C256.614 33.2614 257.064 33.2414 257.534 33.3514C258.314 33.5414 259.084 33.7314 259.864 33.8614C260.324 33.9414 260.574 33.7914 260.254 33.2714C259.564 31.9502 259.007 30.5633 258.594 29.1314C257.413 30.4463 256.377 31.8846 255.504 33.4214C255.014 34.2414 254.574 35.1014 253.504 35.2814C252.674 35.4214 252.064 35.0014 252.234 34.2314C252.964 30.7514 254.234 27.5614 257.034 25.1614C258.271 24.1593 259.733 23.4729 261.294 23.1614C262.424 22.8814 263.154 23.6614 264.024 24.0614C264.149 24.1347 264.241 24.2539 264.28 24.3939C264.32 24.5339 264.303 24.6836 264.234 24.8114C263.694 25.7414 264.234 26.5714 264.394 27.4314C264.922 29.3926 264.926 31.4584 264.404 33.4214ZM263.154 30.9914C263.027 29.5643 262.755 28.1537 262.344 26.7814C262.294 26.6014 262.284 26.2814 261.924 26.3014C261.444 26.4561 261.025 26.7574 260.725 27.1628C260.426 27.5682 260.261 28.0574 260.254 28.5614C260.491 29.5264 260.826 30.4646 261.254 31.3614C261.544 31.9914 261.754 33.0214 262.534 32.8614C263.314 32.7014 263.034 31.6514 263.154 30.9814V30.9914Z" fill="#FF7596"/>
<path d="M224.505 18.2113C224.534 16.6601 224.718 15.1157 225.055 13.6013C225.126 13.1685 225.328 12.768 225.634 12.4534C225.94 12.1388 226.334 11.9252 226.765 11.8413C227.2 11.759 227.65 11.8233 228.044 12.0241C228.439 12.225 228.756 12.5511 228.945 12.9513C230.047 14.7218 230.539 16.8047 230.345 18.8813C230.212 19.6488 229.866 20.3635 229.346 20.9435C228.826 21.5236 228.153 21.9456 227.405 22.1613C227.095 22.276 226.764 22.3183 226.435 22.2848C226.107 22.2514 225.791 22.1431 225.51 21.9683C225.23 21.7936 224.994 21.5569 224.82 21.2766C224.646 20.9963 224.538 20.6797 224.505 20.3513C224.379 19.6435 224.379 18.919 224.505 18.2113ZM226.265 17.9613L226.315 18.8613C226.315 19.4013 226.145 20.1713 226.785 20.3013C227.425 20.4313 227.935 19.8413 228.275 19.3013C228.458 18.9987 228.561 18.6546 228.575 18.3013C228.621 16.8126 228.25 15.3407 227.505 14.0513C227.415 13.8913 227.245 13.6613 227.105 13.6513C226.965 13.6413 226.755 13.9013 226.695 14.1313C226.384 15.3843 226.226 16.6703 226.225 17.9613H226.265Z" fill="#FF7596"/>
<path d="M255.975 20.7812C254.811 20.8766 253.651 20.5618 252.695 19.8912C252.424 19.7181 252.2 19.4825 252.04 19.2042C251.88 18.926 251.789 18.6133 251.775 18.2926C251.762 17.9719 251.825 17.6526 251.961 17.3617C252.097 17.0708 252.3 16.8168 252.555 16.6213C254.205 15.2313 257.985 15.2712 259.605 16.7012C259.848 16.8773 260.047 17.1088 260.184 17.3765C260.321 17.6442 260.392 17.9406 260.392 18.2413C260.392 18.5419 260.321 18.8383 260.184 19.106C260.047 19.3737 259.848 19.6051 259.605 19.7812C258.571 20.5748 257.269 20.9336 255.975 20.7812ZM256.045 17.4013C255.265 17.5413 253.895 17.4013 253.895 18.2413C253.895 19.0813 255.315 19.0313 256.175 18.9913C257.035 18.9513 258.255 18.9912 258.275 18.1612C258.285 17.5512 256.935 17.4812 256.045 17.4212V17.4013Z" fill="#FF7596"/>
<path d="M270.074 47.4213C269.812 47.4091 269.552 47.3585 269.304 47.2713C268.984 47.1436 268.721 46.9037 268.565 46.5964C268.408 46.2891 268.369 45.9354 268.454 45.6013C268.479 45.4313 268.543 45.2692 268.64 45.1273C268.737 44.9855 268.865 44.8677 269.014 44.7828C269.164 44.6979 269.331 44.6483 269.502 44.6377C269.674 44.627 269.845 44.6556 270.004 44.7213C270.465 44.8322 270.945 44.8282 271.404 44.7096C271.863 44.591 272.285 44.3615 272.634 44.0413C273.634 43.3613 274.634 42.7413 275.634 42.1613C276.164 41.8713 276.844 41.6513 277.224 42.3313C277.604 43.0113 277.124 43.4613 276.494 43.7913C275.436 44.4382 274.433 45.1707 273.494 45.9813C272.551 46.8367 271.345 47.3447 270.074 47.4213Z" fill="#FF7596"/>
<path d="M263.154 30.9813C263.034 31.6513 263.244 32.6913 262.524 32.8513C261.804 33.0113 261.524 31.9813 261.244 31.3513C260.816 30.4545 260.481 29.5163 260.244 28.5513C260.251 28.0472 260.416 27.5581 260.716 27.1527C261.015 26.7473 261.434 26.446 261.914 26.2913C262.274 26.2913 262.284 26.5913 262.334 26.7713C262.749 28.1432 263.024 29.5538 263.154 30.9813Z" fill="#DEFFFF"/>
<path d="M226.225 17.9614C226.22 16.6713 226.371 15.3853 226.675 14.1314C226.735 13.9014 226.815 13.6314 227.085 13.6514C227.355 13.6714 227.395 13.8914 227.485 14.0514C228.207 15.3372 228.56 16.7976 228.505 18.2714C228.491 18.6248 228.388 18.9688 228.205 19.2714C227.865 19.8314 227.345 20.4214 226.715 20.2714C226.085 20.1214 226.265 19.3714 226.245 18.8314L226.225 17.9614Z" fill="#FFDCE9"/>
<path d="M256.045 17.4214C256.935 17.5014 258.285 17.5714 258.275 18.1814C258.275 18.9814 256.975 18.9714 256.175 19.0114C255.375 19.0514 253.895 18.9614 253.895 18.2614C253.895 17.5614 255.265 17.5414 256.045 17.4214Z" fill="white"/>
</svg>
