<svg width="934" height="942" viewBox="0 0 934 942" fill="none" xmlns="http://www.w3.org/2000/svg">
<path d="M221.746 91.5706C217.959 84.8663 219.922 77.7575 226.808 73.8588C227.432 73.4895 228.08 73.163 228.747 72.8815L249.517 61.1878C256.211 57.3865 263.316 59.3533 267.215 66.2464C268.148 67.6967 268.764 69.3276 269.024 71.0325C269.284 72.7373 269.182 74.4778 268.723 76.14C268.265 77.8021 267.461 79.3487 266.365 80.6785C265.268 82.0083 263.903 83.0915 262.359 83.8571C257.816 86.4228 254.427 88.342 250.874 90.2269L252.909 93.8223L257.72 91.0927C269.512 84.4084 281.94 87.844 288.841 100.058C295.525 111.861 292.097 124.296 280.286 130.969L264.535 139.894C257.554 143.849 250.164 141.801 246.209 134.814C238.053 120.374 229.879 105.923 221.746 91.5706ZM266.543 113.462L258.522 99.2984L256.639 100.37L264.66 114.534L266.543 113.462Z" fill="#FF7596"/>
<path d="M317.539 89.9091L315.521 90.7046C316.637 93.5285 317.908 96.7637 318.854 99.1802C321.532 106.051 318.616 112.553 311.148 115.483C303.977 118.302 297.501 115.469 295.274 108.417C291.752 97.3262 286.6 80.3352 282.452 67.0396C278.816 55.4015 284.403 44.3632 296.813 39.4959C308.724 34.8065 320.428 39.1024 325.67 50.0999C331.641 62.6829 339.206 78.7278 344.252 89.2158C347.439 95.8907 344.822 102.283 337.353 105.213C330.179 108.018 323.507 105.267 320.829 98.3962C319.76 95.5754 318.572 92.5366 317.539 89.9091ZM312.775 83.6333L314.793 82.8379C312.055 75.8579 309.056 68.1828 307.186 63.4375L305.164 64.2183L312.775 83.6333Z" fill="#FF7596"/>
<path d="M336.018 38.8727C334.235 31.3769 338.086 25.1122 345.779 23.277C346.482 23.0967 347.195 22.9612 347.915 22.8714L371.132 17.3458C378.622 15.5642 384.883 19.4204 386.72 27.1203C388.557 34.8202 384.657 40.8954 377.167 42.677C372.096 43.8852 368.3 44.7893 364.375 45.6183C364.705 46.8721 365.065 48.2424 365.334 49.6212L370.715 48.3474C383.906 45.2075 394.869 51.9582 398.123 65.5825C401.265 78.784 394.509 89.7558 381.333 92.8918L363.745 97.0782C355.935 98.9441 349.397 94.9268 347.544 87.1064C343.686 71.0689 339.846 54.9179 336.018 38.8727ZM372.974 72.3485L369.204 56.5221L367.106 57.0735L370.88 72.9144L372.974 72.3485Z" fill="#FF7596"/>
<path d="M425.878 35.5471L423.717 35.7409C424.782 47.1975 426.218 62.4374 427.234 73.2365C427.92 80.5845 423.188 85.9273 415.312 86.6569C407.437 87.3865 402.323 82.9794 402.075 75.5787C401.84 63.8417 401.496 46.1173 401.164 32.1769C400.891 19.9979 409.406 10.9174 422.584 9.68255C435.43 8.48819 445.262 15.7388 447.388 27.9761C449.645 41.5976 452.457 59.1099 454.444 70.6981C455.658 77.985 451.368 83.2897 443.376 84.0499C435.771 84.7397 430.076 80.3761 429.391 73.0281C428.214 60.4321 426.732 44.7211 425.878 35.5471Z" fill="#FF7596"/>
<path d="M463.911 54.1668C463.056 54.2071 462.202 54.0644 461.406 53.7482C460.609 53.432 459.89 52.9497 459.295 52.3333C458.699 51.7169 458.242 50.9807 457.953 50.1736C457.665 49.3666 457.551 48.5073 457.621 47.6531C457.567 46.7836 457.699 45.9129 458.008 45.0984C458.316 44.2839 458.794 43.5442 459.41 42.9285C460.025 42.3128 460.765 41.835 461.579 41.5269C462.393 41.2188 463.263 41.0874 464.132 41.1412L479.853 41.4043C480.708 41.3641 481.562 41.5068 482.359 41.823C483.155 42.1391 483.875 42.6214 484.47 43.2378C485.065 43.8542 485.522 44.5905 485.811 45.3975C486.1 46.2045 486.213 47.0638 486.143 47.918C486.197 48.7875 486.065 49.6583 485.756 50.4728C485.448 51.2873 484.97 52.027 484.355 52.6426C483.739 53.2583 483 53.7361 482.185 54.0442C481.371 54.3524 480.501 54.4838 479.632 54.43L463.911 54.1668Z" fill="#FF7596"/>
<path d="M513.389 86.814C505.528 85.7628 501.031 80.0869 502.013 72.3316C503.584 60.0577 504.885 49.0704 506.609 35.6028C498.647 34.5784 493.759 29.2545 494.799 21.0634C495.846 13.1977 501.644 8.71236 509.281 9.68205L536.689 13.2325C538.407 13.3543 540.08 13.8383 541.598 14.6527C543.116 15.467 544.446 16.5933 545.498 17.9577C546.551 19.3221 547.303 20.8936 547.707 22.5693C548.11 24.245 548.155 25.987 547.838 27.6808C546.775 36.0806 540.802 40.0194 532.613 38.9612C530.903 52.425 529.379 63.3932 527.808 75.6671C526.85 83.4002 521.029 87.7982 513.389 86.814Z" fill="#FF7596"/>
<path d="M571.814 76.709L569.717 76.1378L567.355 84.926C565.411 92.0456 559.234 95.5079 551.441 93.4104C544.011 91.3889 540.513 85.248 542.977 78.2722C546.752 67.2737 552.751 50.5782 557.347 37.4312C561.379 25.9288 572.432 20.4049 585.284 23.8537C597.63 27.2171 604.48 37.6362 602.124 49.5868C599.481 63.2335 595.924 80.6274 593.715 92.0717C592.291 99.335 586.386 102.882 578.622 100.715C571.191 98.6932 567.477 92.4999 569.421 85.3803C570.212 82.5849 571.065 79.4307 571.814 76.709ZM571.717 68.8166L573.814 69.3878L579.267 49.251L577.17 48.6798L571.717 68.8166Z" fill="#FF7596"/>
<path d="M632.115 121.988C630.703 121.464 629.417 120.648 628.341 119.593C627.265 118.538 626.424 117.268 625.872 115.866C625.319 114.463 625.068 112.961 625.136 111.455C625.203 109.95 625.587 108.476 626.263 107.129L636.039 84.6559L634.291 83.9308C631.7 89.8954 628.705 96.512 625.749 103.04C621.961 111.205 614.154 114.208 605.797 110.56C597.441 106.912 594.562 99.1581 598.101 90.9959L617.943 45.2567C620.622 39.0972 626.607 36.7449 633.075 39.5492C634.487 40.0732 635.773 40.8892 636.849 41.9441C637.925 42.999 638.766 44.269 639.319 45.6711C639.871 47.0733 640.121 48.576 640.054 50.0814C639.987 51.5868 639.603 53.0611 638.927 54.4077L628.23 78.8841L629.831 79.5856L638.953 58.5935C642.595 50.2327 650.442 47.1417 658.989 50.8646C667.537 54.5875 670.438 62.366 666.795 70.7269L647.02 116.184C646.498 117.596 645.684 118.882 644.632 119.958C643.579 121.033 642.311 121.875 640.912 122.427C639.512 122.978 638.012 123.228 636.508 123.16C635.005 123.092 633.533 122.707 632.188 122.031L632.115 121.988ZM642.013 41.1433C641.012 40.7666 640.101 40.1837 639.339 39.4323C638.577 38.6809 637.981 37.7778 637.59 36.7816C637.199 35.7853 637.021 34.718 637.069 33.6488C637.116 32.5796 637.387 31.5324 637.865 30.575C638.233 29.5603 638.811 28.635 639.561 27.8594C640.311 27.0837 641.216 26.4752 642.218 26.0737C643.219 25.6722 644.294 25.4868 645.372 25.5295C646.45 25.5722 647.507 25.842 648.474 26.3215L661.686 32.0912C662.69 32.4645 663.603 33.0452 664.367 33.7953C665.132 34.5454 665.73 35.4483 666.123 36.4449C666.515 37.4415 666.694 38.5096 666.647 39.5797C666.6 40.6498 666.328 41.6979 665.849 42.6557C665.481 43.6704 664.903 44.5957 664.152 45.3714C663.402 46.1471 662.497 46.7555 661.496 47.157C660.495 47.5584 659.42 47.7439 658.342 47.7012C657.264 47.6585 656.207 47.3886 655.24 46.9092L642.013 41.1433Z" fill="#FF7596"/>
<path d="M700.618 72.8264C708.525 77.9645 709.766 87.4263 703.928 96.442L693.071 113.199L694.933 114.361C698.265 109.262 702.015 103.444 705.872 97.6768C711.778 88.5651 720.869 85.9419 728.772 91.0654C736.675 96.1889 738.028 105.778 732.178 114.75L708.985 150.46C703.964 158.201 696.305 160.463 689.831 156.273C683.357 152.084 682.125 144.022 687.077 136.377L700.528 115.619L698.665 114.456L685.813 134.293C685.528 134.798 685.139 135.238 684.671 135.581C684.204 135.925 683.669 136.165 683.101 136.287C682.534 136.408 681.947 136.407 681.38 136.284C680.813 136.161 680.278 135.919 679.812 135.574C679.306 135.289 678.867 134.899 678.524 134.431C678.18 133.963 677.94 133.428 677.818 132.86C677.697 132.292 677.697 131.705 677.82 131.137C677.942 130.57 678.184 130.035 678.529 129.568L691.395 109.727L689.528 108.55L676.058 129.235C671.106 136.88 663.433 139.147 656.789 134.846C650.146 130.544 649.271 122.716 654.223 115.071L677.496 79.1843C683.372 70.3143 692.696 67.6921 700.618 72.8264Z" fill="#FF7596"/>
<path d="M856.305 226.638C860.943 234.864 857.702 243.805 848.319 249.108L830.95 258.926L832.007 260.815C837.305 257.864 843.342 254.406 849.432 251.091C858.928 245.743 868.143 247.623 872.8 255.86C877.457 264.096 874.224 273.129 864.852 278.413L827.755 299.386C819.725 303.912 811.876 302.375 808.086 295.656C804.295 288.937 806.927 281.232 814.854 276.732L836.371 264.562C836.05 263.992 835.523 263.055 835.299 262.677L814.734 274.317C814.247 274.633 813.699 274.842 813.126 274.93C812.553 275.018 811.967 274.984 811.408 274.829C810.849 274.674 810.33 274.401 809.884 274.03C809.437 273.659 809.075 273.198 808.82 272.676C808.504 272.189 808.295 271.641 808.207 271.067C808.119 270.493 808.153 269.908 808.308 269.348C808.462 268.789 808.734 268.269 809.105 267.823C809.475 267.376 809.937 267.014 810.458 266.759L831.038 255.115C830.773 254.64 830.262 253.761 829.967 253.231L808.446 265.387C800.514 269.872 792.662 268.32 788.72 261.438C784.778 254.556 787.658 247.206 795.575 242.725L832.785 221.707C842.186 216.415 851.666 218.412 856.305 226.638Z" fill="#FF7596"/>
<path d="M851.554 332.58C854.177 339.481 851.033 345.887 843.523 348.718C836.33 351.451 829.728 348.728 827.122 341.838C824.887 335.942 822.418 329.452 819.923 322.861C817.103 315.45 820.465 308.69 827.921 305.889L873.55 288.581C881.038 285.724 888.021 288.534 890.826 295.948C893.337 302.536 895.417 308.021 897.648 313.903C900.257 320.807 897.131 327.224 889.924 329.96C882.432 332.802 875.834 330.095 873.21 323.194C872.138 320.358 871.564 318.826 871.02 317.41L865.143 319.641C866.257 322.574 866.982 324.503 867.764 326.885C868.043 327.56 868.181 328.286 868.168 329.016C868.155 329.747 867.992 330.466 867.689 331.131C867.386 331.796 866.95 332.391 866.407 332.879C865.864 333.367 865.226 333.738 864.533 333.969C863.885 334.251 863.185 334.395 862.478 334.391C861.771 334.387 861.073 334.235 860.428 333.945C859.783 333.656 859.206 333.234 858.733 332.708C858.26 332.182 857.902 331.563 857.682 330.891C857.153 329.472 856.87 328.751 855.118 323.507L848.928 325.851C849.515 327.193 850.481 329.744 851.554 332.58Z" fill="#FF7596"/>
<path d="M834.989 365.315C833.341 357.799 837.313 351.58 845.041 349.876C850.754 348.624 855.755 350.645 857.939 355.043C867.853 353.653 878.939 351.986 888.395 350.576C900.394 348.825 910.498 356.16 913.338 369.098C916.108 381.712 910.108 392.36 898.271 395.97C889.396 398.583 878.754 401.708 869.467 404.414C868.879 409.758 865.205 413.795 859.168 415.117C857.51 415.583 855.772 415.693 854.068 415.44C852.364 415.186 850.733 414.576 849.282 413.647C847.83 412.719 846.591 411.494 845.646 410.052C844.701 408.611 844.071 406.986 843.797 405.285L834.989 365.315ZM865.019 380.614L888.101 375.529L887.637 373.406L864.554 378.492L865.019 380.614Z" fill="#FF7596"/>
<path d="M848.499 462.919C848.331 461.422 848.48 459.907 848.937 458.473C849.395 457.038 850.15 455.717 851.154 454.595C852.157 453.473 853.386 452.577 854.761 451.964C856.135 451.351 857.623 451.035 859.128 451.038L883.602 449.702C883.584 449.161 883.526 448.288 883.506 447.857C877.011 448.208 869.751 448.496 862.601 448.785C853.595 449.064 847.424 443.422 846.914 434.314C846.404 425.205 852.066 419.135 860.942 418.656L910.641 415.943C917.352 415.582 922.158 419.883 922.524 426.847C922.689 428.344 922.536 429.859 922.076 431.293C921.616 432.727 920.86 434.047 919.855 435.168C918.851 436.29 917.622 437.187 916.248 437.8C914.874 438.414 913.386 438.732 911.881 438.731L885.242 440.184C885.296 440.388 885.296 441.277 885.34 441.92L908.166 440.596C917.257 440.108 923.533 445.737 924.068 455.12C924.574 464.214 918.937 470.496 909.85 470.999L860.366 473.702C858.87 473.869 857.355 473.717 855.921 473.257C854.487 472.798 853.166 472.04 852.045 471.034C850.923 470.028 850.026 468.797 849.413 467.42C848.8 466.044 848.484 464.553 848.486 463.047L848.499 462.919Z" fill="#FF7596"/>
<path d="M846.58 502.855C847.295 494.967 852.871 490.291 860.589 490.974C872.897 492.119 883.927 493.023 897.417 494.278C898.167 486.287 903.322 481.192 911.511 481.954C919.397 482.686 924.096 488.356 923.389 495.977C922.537 505.178 921.692 514.367 920.854 523.545C920.793 525.27 920.368 526.963 919.607 528.513C918.846 530.062 917.766 531.433 916.438 532.536C915.11 533.638 913.565 534.447 911.902 534.91C910.24 535.373 908.499 535.479 906.792 535.221C898.365 534.443 894.154 528.614 894.967 520.389C881.477 519.134 870.466 518.007 858.22 516.862C850.47 516.171 845.87 510.523 846.58 502.855Z" fill="#FF7596"/>
<path d="M858.761 560.91L859.265 558.798L850.387 556.721C843.212 555.022 839.521 548.916 841.347 541.11C843.111 533.602 849.108 529.875 856.114 532.117C867.218 535.433 884.128 540.932 897.422 545.06C909.059 548.687 914.969 559.556 911.92 572.546C908.971 585.026 898.854 592.221 886.822 590.287C873.09 588.052 855.605 585.166 844.104 583.357C836.796 582.161 833.025 576.403 834.877 568.637C836.645 561.143 842.688 557.233 849.869 558.899L858.761 560.91ZM866.652 560.535L866.152 562.662L886.432 567.415L886.921 565.307L866.652 560.535Z" fill="#FF7596"/>
<path d="M890.372 605.924C892.003 606.481 893.499 607.377 894.76 608.553C896.022 609.729 897.022 611.159 897.694 612.747C898.366 614.336 898.695 616.049 898.66 617.774C898.625 619.498 898.226 621.196 897.49 622.756C894.515 630.1 887.718 632.977 880.602 630.078L846.33 616.175L845.517 618.181L879.79 632.084C881.422 632.64 882.92 633.535 884.183 634.711C885.446 635.886 886.446 637.316 887.119 638.905C887.791 640.495 888.12 642.208 888.083 643.934C888.047 645.659 887.647 647.357 886.908 648.916C883.948 656.257 877.136 659.138 870.034 656.235L835.531 642.283C832.334 647.893 826.218 649.984 819.575 647.288C817.944 646.73 816.449 645.833 815.187 644.658C813.925 643.482 812.925 642.053 812.253 640.464C811.581 638.875 811.252 637.162 811.287 635.437C811.322 633.713 811.721 632.015 812.457 630.455L827.025 594.456C829.951 587.219 836.977 584.328 844.314 587.293L890.372 605.924Z" fill="#FF7596"/>
<path d="M783.917 680.676C784.627 679.348 785.61 678.185 786.799 677.262C787.989 676.34 789.36 675.679 790.823 675.322C792.285 674.966 793.806 674.922 795.287 675.193C796.768 675.465 798.175 676.046 799.417 676.898C804.704 680.185 811.734 684.416 820.355 689.662L821.311 688.086C815.749 684.701 809.608 680.828 803.54 676.999C796.027 672.116 794.041 663.91 798.791 656.209C803.542 648.507 811.607 646.605 819.281 651.213L861.815 677.113C867.565 680.62 869.055 686.884 865.42 692.904C864.71 694.233 863.729 695.396 862.539 696.318C861.349 697.241 859.978 697.902 858.515 698.258C857.053 698.615 855.532 698.659 854.051 698.387C852.57 698.115 851.163 697.535 849.921 696.682L827.132 682.8L826.229 684.284L845.772 696.183C853.561 700.931 855.576 709.192 850.708 717.096C845.84 725 837.712 726.902 829.999 722.149L787.65 696.357C786.322 695.646 785.16 694.663 784.237 693.472C783.315 692.281 782.654 690.908 782.297 689.445C781.94 687.981 781.896 686.459 782.166 684.977C782.437 683.495 783.017 682.087 783.869 680.845L783.917 680.676Z" fill="#FF7596"/>
<path d="M747.731 726.908C748.635 725.703 749.783 724.703 751.099 723.972C752.416 723.241 753.872 722.796 755.372 722.667C756.872 722.537 758.383 722.725 759.806 723.22C761.229 723.714 762.532 724.503 763.629 725.535L782.386 741.319C782.746 740.913 783.301 740.237 783.574 739.916C778.594 735.723 773.107 730.962 767.683 726.262C760.93 720.244 760.296 711.963 766.154 704.983C772.013 698.004 780.278 697.452 787.093 703.174L825.189 735.243C830.346 739.577 830.896 745.994 826.323 751.404C825.419 752.609 824.271 753.61 822.955 754.341C821.638 755.072 820.182 755.516 818.682 755.646C817.181 755.775 815.671 755.587 814.248 755.093C812.825 754.598 811.522 753.809 810.425 752.777L790.007 735.591L788.89 736.913L806.411 751.666C813.387 757.532 814.119 765.943 808.104 773.041C802.09 780.14 793.836 780.735 786.859 774.869C774.242 764.252 761.543 753.562 748.881 742.956C747.679 742.049 746.68 740.9 745.951 739.582C745.221 738.264 744.777 736.808 744.647 735.307C744.517 733.807 744.704 732.295 745.196 730.872C745.688 729.449 746.474 728.145 747.503 727.046L747.731 726.908Z" fill="#FF7596"/>
<path d="M622.348 899.578C608.878 905.036 596.16 899.666 590.687 886.188C584.724 871.499 590.099 858.771 603.568 853.313L607.182 851.834C605.144 846.805 603.705 843.287 602.24 839.666C599.35 832.524 602.208 825.741 609.345 822.852C616.481 819.963 623.472 822.739 626.361 829.882C627.827 833.502 629.265 837.02 631.303 842.049L634.921 840.584C648.387 835.112 661.108 840.496 667.053 855.175C672.527 868.652 667.166 881.377 653.696 886.834L650.068 888.318L650.527 889.413C653.417 896.555 650.559 903.338 643.215 906.328C636.079 909.217 629.299 906.355 626.41 899.212C626.299 898.789 626.116 898.51 625.961 898.098L622.348 899.578ZM616.159 873.96L610.045 858.874L608.035 859.699L614.149 874.785L616.159 873.96ZM642.291 863.351L636.58 849.266L634.566 850.076C637.093 856.316 637.749 857.921 640.277 864.161L642.291 863.351Z" fill="#FF7596"/>
<path d="M555.384 891.463L557.504 890.999C555.065 879.764 551.806 864.816 549.483 854.142C547.915 846.933 551.953 841.024 559.624 839.397C567.295 837.771 572.963 841.502 574.101 848.794C575.745 860.441 578.225 877.994 580.228 891.775C581.953 903.791 574.609 913.888 561.673 916.696C549.062 919.434 538.441 913.451 534.857 901.534C530.964 888.265 526.05 871.227 522.715 859.962C520.615 852.861 524.239 847.093 532.073 845.377C539.601 843.741 545.722 847.416 547.29 854.625C550.08 867.078 553.421 882.456 555.384 891.463Z" fill="#FF7596"/>
<path d="M521.518 912.287C521.684 914.003 521.486 915.735 520.937 917.37C520.389 919.004 519.502 920.504 518.334 921.771C517.167 923.039 515.744 924.045 514.161 924.725C512.578 925.405 510.87 925.743 509.147 925.716C501.245 926.048 495.834 921.048 495.51 913.356C495.03 901.637 495.028 901.746 494.118 879.619L491.949 879.722C492.18 885.459 492.565 893.915 492.865 902.05C493.478 916.587 484.125 926.745 469.595 927.337L466.685 927.463C452.155 928.056 442 918.693 441.406 904.167C441.014 895.053 440.638 885.94 440.278 876.829C439.67 862.306 449.022 852.148 463.553 851.556L469.607 851.305C482.72 850.773 491.106 859.214 491.633 872.121L493.806 872.033C493.67 868.671 493.541 865.634 493.433 863.029C493.121 855.442 498.003 850.138 505.54 849.84C513.676 849.51 519.082 854.495 519.408 862.311L521.518 912.287ZM468.116 901.386L467.126 877.534L464.953 877.622L465.943 901.473L468.116 901.386Z" fill="#FF7596"/>
<path d="M395.066 845.119C396.566 845.249 398.022 845.694 399.34 846.425C400.657 847.156 401.805 848.157 402.71 849.362C403.614 850.567 404.255 851.95 404.59 853.419C404.924 854.888 404.945 856.412 404.652 857.89L401.193 882.178L403.023 882.445C403.938 875.97 405.078 868.813 406.193 861.74C407.67 852.841 414.405 847.892 423.416 849.17C432.426 850.449 437.295 857.181 436.044 865.989L429.026 915.309C428.084 921.978 422.933 925.841 415.957 924.838C414.457 924.71 413.002 924.266 411.685 923.537C410.368 922.807 409.221 921.807 408.316 920.603C407.412 919.399 406.771 918.018 406.437 916.55C406.102 915.081 406.081 913.559 406.375 912.082L410.125 885.644L408.412 885.409C407.303 893.041 406.256 900.549 405.197 908.074C403.908 917.095 397.16 922.173 387.933 920.842C378.706 919.51 373.845 912.808 375.119 903.792C377.444 887.454 379.789 871.018 382.1 854.684C382.229 853.183 382.673 851.725 383.403 850.408C384.133 849.09 385.132 847.941 386.336 847.036C387.54 846.132 388.922 845.491 390.39 845.157C391.858 844.823 393.38 844.802 394.857 845.096L395.066 845.119Z" fill="#FF7596"/>
<path d="M369.773 839.967C377.123 842.274 380.538 848.811 378.164 856.371C376.41 861.96 372.18 865.301 367.273 865.001C363.565 874.298 359.502 884.733 356.02 893.644C351.559 904.995 340.196 910.054 327.569 906.095C315.246 902.226 308.997 891.727 311.768 879.636C313.901 870.628 316.488 859.848 318.748 850.433C314.408 847.256 312.734 842.069 314.59 836.157C316.893 828.803 323.414 825.406 330.764 827.714L369.773 839.967ZM341.603 858.406L334.503 880.986L336.575 881.642L343.646 859.069L341.603 858.406Z" fill="#FF7596"/>
<path d="M299.892 846.303C300.695 846.61 301.425 847.085 302.03 847.697C302.635 848.309 303.102 849.044 303.4 849.852C303.698 850.659 303.819 851.521 303.757 852.38C303.694 853.238 303.448 854.073 303.036 854.829C302.735 855.646 302.265 856.39 301.656 857.011C301.047 857.632 300.312 858.117 299.502 858.433C298.691 858.749 297.823 858.89 296.954 858.845C296.085 858.8 295.236 858.571 294.462 858.173L280.169 851.612C279.365 851.305 278.636 850.83 278.031 850.218C277.426 849.606 276.959 848.871 276.661 848.064C276.363 847.256 276.241 846.394 276.304 845.536C276.367 844.677 276.613 843.842 277.025 843.087C277.325 842.27 277.796 841.526 278.405 840.904C279.014 840.283 279.748 839.798 280.559 839.482C281.369 839.166 282.238 839.026 283.107 839.07C283.976 839.115 284.825 839.344 285.599 839.742L299.892 846.303Z" fill="#FF7596"/>
<path d="M255.976 814.5L257.816 815.575L262.488 807.754C266.277 801.428 273.205 799.763 280.157 803.874C286.756 807.829 288.476 814.671 284.228 820.728C277.623 830.258 267.34 844.759 259.38 856.187C252.411 866.171 240.269 868.505 228.812 861.65C217.833 855.075 214.06 843.208 219.546 832.321C225.827 819.9 233.931 804.101 239.08 793.708C242.4 787.083 249.053 785.257 255.947 789.383C262.56 793.334 264.468 800.298 260.68 806.624L255.976 814.5ZM253.936 822.144L252.096 821.069L241.409 838.95L243.249 840.025L253.936 822.144Z" fill="#FF7596"/>
<path d="M185.65 832.64L171.565 821.239C161.008 812.714 159.649 799.901 168.179 789.398C176.968 778.516 189.786 777.157 200.313 785.628L204.639 789.167L215.472 775.752C216.476 774.346 217.767 773.17 219.259 772.299C220.751 771.429 222.411 770.885 224.129 770.703C225.846 770.521 227.583 770.705 229.225 771.243C230.867 771.782 232.376 772.662 233.654 773.825C239.805 778.802 240.592 786.123 235.752 792.118L204.606 830.697C199.519 836.881 191.897 837.685 185.65 832.64ZM192.246 804.41L199.883 794.953L198.2 793.587L190.563 803.044L192.246 804.41Z" fill="#FF7596"/>
<path d="M183.704 728.428C189.091 734.229 188.906 741.525 183.188 746.846C174.143 755.271 166.114 762.883 156.191 772.116C161.648 778.007 162.007 785.238 155.982 790.874C150.188 796.262 142.83 795.999 137.577 790.35C131.307 783.602 125.025 776.847 118.732 770.085C113.493 764.433 113.753 757.07 119.4 751.829C125.577 746.06 132.681 746.78 138.367 752.891C148.287 743.644 156.467 736.195 165.527 727.766C171.169 722.449 178.451 722.779 183.704 728.428Z" fill="#FF7596"/>
<path d="M102.827 594.324C105.272 601.848 101.721 608.486 93.9884 611.002L47.6668 626.029C39.9338 628.545 33.0692 625.299 30.6618 617.858C28.4789 611.153 26.3375 604.547 24.3899 598.559C22.1082 591.537 25.5717 585.281 32.8753 582.909C40.5102 580.435 47.0362 583.458 49.2558 590.48C50.1824 593.354 51.0214 595.955 51.4958 597.404L85.9323 586.217C93.6837 583.712 100.447 586.985 102.827 594.324Z" fill="#FF7596"/>
<path d="M66.4973 540.484L66.889 542.625L75.7942 540.955C83.0555 539.607 88.9081 543.742 90.3778 551.585C91.7931 559.162 87.8127 564.994 80.4609 565.819C68.9253 567.199 51.2905 569.076 37.4594 570.669C25.3649 572.056 15.5906 564.494 13.1102 551.383C10.7531 538.801 17.1292 528.101 28.9034 525.022C42.3636 521.484 59.5177 517.069 70.7406 514.025C77.8932 512.145 83.6933 515.904 85.16 523.795C86.5753 531.372 82.6339 537.411 75.4062 538.828L66.4973 540.484ZM59.4383 544.022L59.0323 541.885L38.5607 545.707L38.9667 547.844L59.4383 544.022Z" fill="#FF7596"/>
<path d="M81.8445 499.387C82.0852 507.117 77.0431 512.463 69.1179 512.707C63.2636 512.89 58.7304 509.982 57.3938 505.252C47.3772 504.768 36.2036 504.385 26.6301 503.987C14.4614 503.491 5.92536 494.419 5.51495 481.185C5.11217 468.277 12.9737 458.963 25.2798 457.552C34.4908 456.689 45.5176 455.505 55.1441 454.565C56.7332 449.471 61.0583 446.137 67.2339 445.932C68.9508 445.781 70.68 445.995 72.309 446.56C73.9379 447.124 75.4296 448.025 76.6866 449.206C77.9435 450.386 78.9375 451.819 79.6033 453.41C80.2692 455.001 80.592 456.715 80.5506 458.439L81.8445 499.387ZM55.1524 478.831L31.5155 479.557L31.5857 481.721L55.2226 480.994L55.1524 478.831Z" fill="#FF7596"/>
<path d="M62.9855 416.141L62.723 418.283L71.7572 419.416C79.072 420.345 83.3981 426.019 82.4067 433.979C81.4446 441.636 75.8856 445.965 68.6375 444.519C57.1605 442.33 39.8426 438.715 26.1783 436.025C14.2352 433.662 7.19803 423.479 8.85535 410.232C10.4352 397.519 19.7642 389.284 31.9275 389.937C45.8312 390.693 63.5373 391.697 75.1371 392.28C82.5256 392.66 86.8914 398.012 85.8894 405.991C84.9379 413.629 79.3453 418.185 72.0343 417.27L62.9855 416.141ZM55.1887 417.349L55.4473 415.192L34.7881 412.611L34.511 414.757L55.1887 417.349Z" fill="#FF7596"/>
<path d="M89.6682 336.23C97.0918 338.285 100.757 344.585 98.5754 352.343C96.5399 359.767 90.1433 363.397 82.709 361.361L62.9606 355.906L62.3723 357.994L82.1353 363.445C89.5589 365.499 93.2238 371.799 91.0426 379.557C90.6781 381.242 89.9624 382.83 88.9427 384.219C87.923 385.607 86.6221 386.765 85.1248 387.616C83.6274 388.467 81.9673 388.992 80.253 389.157C78.5387 389.323 76.8088 389.124 75.1761 388.575L26.8666 375.244C19.4468 373.204 15.7819 366.904 17.9631 359.146C20.0132 351.718 26.4061 348.073 33.8296 350.128L55.0513 355.975L55.6396 353.887L34.414 348.026C26.9797 345.99 23.3149 339.69 25.5106 331.928C25.8729 330.242 26.5872 328.652 27.6063 327.263C28.6255 325.873 29.9268 324.714 31.4248 323.863C32.9228 323.011 34.5836 322.486 36.2988 322.322C38.0139 322.158 39.7444 322.358 41.3771 322.91L89.6682 336.23Z" fill="#FF7596"/>
<path d="M121.119 296.324C120.585 297.732 119.759 299.01 118.696 300.076C117.632 301.141 116.356 301.97 114.95 302.507C113.545 303.044 112.041 303.278 110.539 303.193C109.036 303.108 107.568 302.706 106.231 302.014L83.8515 291.999L83.113 293.751C89.0606 296.412 95.6453 299.482 102.142 302.512C110.264 306.394 113.18 314.231 109.464 322.549C105.748 330.867 97.9527 333.679 89.8339 330.046L44.3832 309.698C38.2554 306.945 35.9568 300.925 38.8302 294.496C39.3662 293.088 40.1936 291.809 41.258 290.743C42.3223 289.677 43.5998 288.848 45.0067 288.31C46.4136 287.773 47.9181 287.539 49.4219 287.624C50.9257 287.708 52.3946 288.11 53.7327 288.802L78.0891 299.701L78.793 298.113L57.8976 288.767C49.5841 285.045 46.5754 277.155 50.3805 268.642C54.1856 260.129 61.9769 257.302 70.2904 261.024L115.547 281.283C116.952 281.823 118.228 282.654 119.291 283.721C120.354 284.788 121.18 286.067 121.716 287.474C122.252 288.882 122.486 290.387 122.401 291.891C122.317 293.395 121.917 294.864 121.228 296.202L121.119 296.324Z" fill="#FF7596"/>
<path d="M144.933 231.631C151.414 235.788 152.992 242.979 148.734 249.647C147.89 251.151 146.738 252.459 145.353 253.486C143.968 254.513 142.382 255.235 140.699 255.606C139.016 255.976 137.273 255.986 135.585 255.635C133.897 255.284 132.302 254.58 130.905 253.57L125.297 250.009L124.136 251.873L129.744 255.433C136.221 259.576 137.804 266.781 133.545 273.449C129.286 280.117 122.212 281.525 115.716 277.372C107.681 272.221 107.598 263.67 113.391 254.604L118.897 245.924L117.034 244.762L115.988 246.409C106.321 261.418 94.8118 264.023 82.9252 256.424C71.0385 248.825 67.9233 234.899 76.1694 222.071L84.1709 209.556C88.7273 202.42 96.5176 200.715 103.65 205.277L144.933 231.631ZM98.5757 235.446L109.531 242.464L110.692 240.6L99.7328 233.567L98.5757 235.446Z" fill="#FF7596"/>
</svg>
