<svg width="262" height="383" viewBox="0 0 262 383" fill="none" xmlns="http://www.w3.org/2000/svg">
<path d="M101.413 206.434C101.7 200.816 100.85 194.824 101.148 188.777C101.402 183.866 101.799 178.966 104.458 174.618C105.789 172.216 107.695 170.183 110.007 168.702C112.318 167.22 114.962 166.337 117.7 166.132C120.881 165.899 124.079 166.186 127.168 166.982C132.542 168.24 135.995 171.937 138.632 176.461C141.667 181.648 142.837 187.397 143.333 193.345C143.833 199.218 143.888 205.121 143.499 211.002C142.881 220.062 142.914 229.112 143.057 238.161C143.135 243.91 143.73 249.638 143.841 255.376C143.951 261.115 141.104 265.595 136.712 269.06C134.373 270.903 131.802 272.448 128.701 272.459C125.221 272.652 121.732 272.652 118.252 272.459C115.625 272.183 112.988 272.007 110.351 271.764C100.96 270.749 91.5122 270.351 82.0691 270.572C73.1752 270.888 64.285 271.205 55.3985 271.521C48.5239 271.742 41.6823 272.779 34.8188 273.121C29.6436 273.375 24.4244 273.585 19.3043 272.238C11.5801 270.186 6.68074 265.043 3.85588 257.782C2.12854 253.398 1.47038 248.665 1.93586 243.976C2.37725 239.353 2.43226 234.695 2.59778 230.049C2.68606 227.302 2.78535 224.532 2.85155 221.806C3.01707 215.185 2.26672 208.563 1.74809 201.942C1.38395 196.557 0.766153 191.171 1.06409 185.764C1.32445 180.804 3.17112 176.059 6.33193 172.229C9.49273 168.398 13.8004 165.684 18.6201 164.488C23.6408 163.263 28.0987 164.929 32.3581 167.313C38.7471 170.866 41.583 176.781 42.841 183.645C43.9444 189.406 43.4259 195.177 42.9404 200.971C42.4107 207.383 41.583 213.805 41.9802 220.272C42.0293 223.147 42.9959 225.931 44.7389 228.218C45.7298 229.527 47.0945 230.506 48.6527 231.024C50.211 231.542 51.8897 231.575 53.4674 231.12C57.8813 230.016 61.5336 228.173 62.1847 223.472C62.3475 221.527 61.8498 219.583 60.7722 217.955C59.1501 215.03 57.1641 212.282 56.5241 208.894C55.4206 202.968 56.0825 197.495 60.7943 193.191C63.4642 190.965 66.6999 189.525 70.1406 189.031C78.4607 187.397 86.5601 193.577 87.8512 201.975C88.2979 205.326 87.7733 208.735 86.3396 211.797C84.8354 214.792 83.6162 217.921 82.6981 221.144C82.4155 222.421 82.3855 223.74 82.6098 225.029C82.6834 225.859 83.0193 226.644 83.5688 227.271C84.1183 227.898 84.8528 228.334 85.6664 228.516C88.7523 229.176 91.929 229.3 95.0568 228.88C97.9258 228.56 99.4706 226.673 100.265 223.958C101 220.844 101.37 217.656 101.369 214.456C101.534 211.951 101.413 209.38 101.413 206.434Z" fill="#DEFFFF"/>
<path d="M118.317 36.0462C118.174 42.9324 117.633 49.7964 116.861 56.6495C116.221 62.3548 115.757 68.0823 115.492 73.8208C115.239 78.5771 115.492 83.3223 115.669 88.0565C115.868 95.4061 116.055 102.756 116.276 110.128C116.397 114.321 116.276 118.537 116.53 122.73C116.761 127.144 117.302 131.558 117.291 136.039C117.459 141.063 116.318 146.045 113.981 150.496C112.461 153.299 110.274 155.685 107.612 157.441C104.95 159.196 101.895 160.268 98.7199 160.56C94.1442 161.188 89.4839 160.562 85.2357 158.75C80.7594 156.764 77.0795 153.333 74.7859 149.006C71.0614 142.488 69.374 135.005 69.9416 127.52C70.3167 120.898 70.8722 114.277 71.6078 107.656C72.0492 103.749 72.1594 99.7873 72.6008 95.8808C73.1194 91.3121 73.5608 86.7321 73.7043 82.1524C73.9086 79.0043 73.6973 75.8432 73.0755 72.7504C72.6001 71.1791 71.6324 69.802 70.3152 68.8225C68.998 67.8429 67.4009 67.3126 65.7594 67.3097C62.9059 67.1376 60.0469 67.5391 57.3512 68.4905C55.7763 69.0399 54.4054 70.0549 53.4201 71.4008C52.4348 72.7468 51.8817 74.3605 51.8339 76.0279C51.4244 82.4025 50.4906 88.7324 49.0421 94.9537C47.8172 100.251 44.3635 103.915 39.751 106.563C35.8448 108.77 31.53 109.509 27.1383 110.039C23.4144 110.417 19.6534 110.136 16.0266 109.211C12.9387 108.48 10.2513 106.587 8.523 103.926C5.82491 100.036 4.37396 95.4172 4.36293 90.6831C4.12017 83.0796 4.87049 75.4649 4.60566 67.8614C4.34083 60.258 4.09796 52.8643 3.66761 45.3822C3.22238 39.7585 3.06777 34.1154 3.20424 28.4757C3.51321 22.042 5.0359 15.9284 10.0125 11.3707C14.2324 7.32653 19.6562 4.76927 25.461 4.08715C28.8309 3.60875 32.2651 3.88771 35.5136 4.90377C40.3137 6.52599 43.0282 10.2671 44.8599 14.6814C47.0668 19.9343 47.806 25.5402 48.5895 31.1352C49.1302 35.0639 48.9318 39.0148 49.4063 42.9324C49.5598 44.8932 50.2918 46.7642 51.5098 48.3084C52.7277 49.8526 54.3767 51.0003 56.2477 51.6062C59.2103 52.8767 62.4895 53.2156 65.6492 52.5774C71.0231 51.2752 73.241 47.501 72.4906 42.0605C71.7403 36.62 70.427 31.1793 70.4049 25.5954C70.3542 21.4542 71.7208 17.4202 74.2781 14.1627C77.3355 9.94676 81.8296 6.99501 86.9129 5.86399C96.3917 3.83345 104.678 6.20602 111.542 12.9708C115.02 16.5717 117.192 21.2339 117.71 26.2134C118.181 29.4689 118.384 32.7576 118.317 36.0462Z" fill="#DEFFFF"/>
<path d="M219.481 99.7873C212.139 99.8485 204.803 99.3615 197.534 98.3306C194.377 97.8441 191.192 97.5602 188 97.4808C182.394 97.4808 176.778 97.9664 171.878 101.145C166.979 104.323 167.608 109.885 170.344 113.46C172.286 116.02 175.078 116.859 178.068 117.179C184.921 117.885 191.729 117.179 198.549 116.649C204.872 116.175 211.062 114.685 217.374 114.288C222.02 113.99 226.681 114.023 231.322 114.387C235.113 114.549 238.867 115.205 242.489 116.341C246.771 117.825 250.603 120.377 253.622 123.756C256.216 126.703 257.198 130.444 257.485 134.284C257.719 137.368 257.305 140.466 256.27 143.38C255.234 146.294 253.599 148.958 251.471 151.202C247.884 155.174 243.051 157.194 237.887 158.419C231.94 159.786 225.824 160.273 219.735 159.865C206.494 159.103 193.252 159.39 179.955 159.324C174.968 159.372 169.988 159.74 165.048 160.427C159.094 161.304 153.02 160.837 147.271 159.059C144.17 158.055 141.081 157.194 138.443 155.219C134.038 151.812 131.059 146.886 130.09 141.402C128.987 135.973 129.373 130.477 129.968 124.992C130.597 119.188 131.458 113.427 131.9 107.6C132.415 103.035 132.662 98.444 132.639 93.8501C132.462 89.4359 131.889 85.0217 131.679 80.6075C131.392 74.7807 131.282 68.9208 135.177 63.9879C137.285 61.4971 140.02 59.615 143.1 58.5364C148.617 56.3955 154.3 56.4727 159.983 56.8148C170.731 57.4549 181.489 57.3558 192.237 57.2895C197.986 57.2895 203.735 57.0798 209.462 56.6604C213.699 56.3625 217.948 55.954 222.163 55.9651C230.295 55.9651 238.494 56.1639 246.152 59.4525C253.81 62.741 257.783 68.7223 258.754 76.8886C259.15 79.8526 258.808 82.8687 257.757 85.6683C256.705 88.4678 254.978 90.9638 252.729 92.934C249.659 95.6227 245.876 97.3631 241.838 97.9442C234.472 99.3468 226.978 99.9647 219.481 99.7873V99.7873Z" fill="#DEFFFF"/>
<path d="M175.409 320.624C175.409 324.674 175.178 328.724 176.193 332.708C177.208 336.692 179.205 338.512 183.972 338.832C188.165 339.119 191.994 337.552 195.812 336.018C200.414 334.186 203.68 330.832 206.615 327.002C209.374 323.394 212.276 319.884 213.821 315.492C215.219 311.175 216.237 306.744 216.866 302.25C217.859 296.092 218.665 289.912 221.7 284.262C223.03 281.592 225.005 279.297 227.446 277.584C229.888 275.871 232.718 274.794 235.68 274.451C240.602 273.701 245.148 274.054 249.187 277.155C254.207 281.017 257.628 285.862 258.39 292.362C259.129 298.663 259.493 304.986 259.957 311.31C260.232 315.227 259.692 319.09 259.857 322.985C260.056 327.488 259.968 332.001 260.221 336.493C260.597 342.871 261.612 349.228 261.27 355.628C261.071 359.182 261.513 362.846 260.166 366.3C256.591 375.128 250.4 380.955 240.867 382.688C238.04 383.224 235.118 382.925 232.458 381.827C228.806 380.315 225.198 378.737 222.262 375.945C218.588 372.458 216.889 367.966 215.708 363.199C214.939 359.885 213.94 356.629 212.718 353.455C212.136 352.014 211.356 350.662 210.4 349.437C208.646 347.153 206.284 347.131 203.779 347.727C197.412 349.373 191.515 352.479 186.554 356.798C182.14 360.429 179.117 365.262 175.443 369.533C171.448 374.157 167.255 378.649 161.23 380.734C154.223 383.162 143.144 382.456 137.318 376.044C134.739 373.084 133.065 369.445 132.496 365.56C131.487 359.438 131.264 353.211 131.834 347.032C132.043 344.449 131.977 341.845 132.076 339.241C132.319 332.939 132.761 326.638 132.419 320.326C132.066 313.793 131.734 307.26 131.591 300.716C131.381 290.784 136.06 283.456 144.093 278.027C146.338 276.586 148.913 275.74 151.575 275.566C156.739 275.091 161.903 274.948 166.195 278.744C169.373 281.547 170.985 285.233 172.143 289.151C173.375 293.984 174.202 298.912 174.615 303.883C175.243 309.44 175.508 315.032 175.409 320.624V320.624Z" fill="#DEFFFF"/>
<path d="M159.762 245.335C159.762 240.181 159.608 235.028 159.762 229.885C160.215 217.868 159.763 205.85 160.027 193.832C160.138 188.237 160.546 182.62 162.709 177.356C165.534 170.459 170.025 165.217 177.661 163.44C180.57 162.837 183.595 163.145 186.323 164.323C190.637 166.045 194.566 168.241 196.993 172.412C198.88 175.646 199.388 179.265 199.719 182.907C200.469 191.261 199.255 199.615 199.719 207.969C199.762 209.47 200.026 210.958 200.502 212.383C201.087 214.005 201.837 214.436 203.504 213.95C206.174 213.055 208.563 211.476 210.433 209.37C213.347 206.346 214.13 202.572 214.461 198.522C214.924 193.005 214.461 187.31 215.94 181.848C216.665 178.793 218.056 175.936 220.013 173.481C221.97 171.026 224.445 169.033 227.261 167.645C229.13 166.794 231.146 166.31 233.198 166.221C237.838 165.69 242.532 166.551 246.682 168.693C254.075 172.611 258.644 178.625 259.758 186.957C260.257 190.926 260.308 194.939 259.912 198.92C259.637 202.009 259.913 205.122 259.56 208.212C259.118 212.538 258.721 216.852 258.456 221.189C258.068 226.223 257.994 231.276 258.235 236.319C258.611 243.128 259.526 250.003 257.739 256.768C256.293 262.286 253.568 267.053 248.503 269.922C241.121 274.083 233.992 272.405 227.537 267.792C221.788 263.698 219.195 257.695 218.599 250.687C218.246 246.637 218.511 242.587 218.345 238.548C218.3 236.048 217.814 233.575 216.911 231.243C216.171 229.433 215.686 229.19 213.843 229.885C211.338 230.834 209.727 232.81 208.138 234.829C206.008 237.544 205.435 240.755 205.137 244.088C204.762 248.314 204.695 252.552 204.033 256.757C203.228 261.966 200.348 265.784 196.386 268.896C193.371 271.323 189.866 273.069 186.113 274.016C179.956 275.451 174.681 273.785 169.782 269.878C167.059 267.857 164.685 265.404 162.753 262.617C160.677 259.352 159.532 255.582 159.443 251.714C159.365 249.617 159.443 247.509 159.443 245.401L159.762 245.335Z" fill="#DEFFFF"/>
<path d="M2.81704 346.067C2.81704 340.704 2.97153 335.341 2.81704 329.977C2.64049 324.846 2.11083 319.725 1.71358 314.605C1.41565 310.665 0.79771 306.726 0.885987 302.808C1.02944 296.551 2.23229 290.47 6.20475 285.328C7.22931 284.044 8.33503 282.828 9.51513 281.686C12.009 279.159 15.4076 279.126 18.5635 278.739C25.2946 277.901 32.0478 278.74 38.7679 279.071C44.4066 279.369 50.0233 279.964 55.673 279.843C61.3227 279.722 67.2814 279.622 73.0636 279.214C78.1726 278.861 83.2484 277.967 88.3684 277.57C93.4885 277.172 98.9286 276.532 104.159 278.077C115.481 281.388 121.483 290.448 120.546 301.406C119.762 310.632 114.686 317.276 105.892 320.774C101.739 322.384 97.3243 323.211 92.8706 323.213C84.0801 323.247 75.3046 322.482 66.6524 320.928C61.2402 319.874 55.6681 319.952 50.288 321.16C47.5955 321.844 44.7706 322.606 43.9099 325.894C43.6366 326.907 43.4739 327.947 43.4245 328.995C43.2258 334.701 43.9762 340.362 44.2631 346.056C44.7045 354.885 44.4178 363.713 40.8425 372.144C39.5489 375.376 37.1363 378.036 34.0451 379.637C31.0028 381.292 27.6349 382.259 24.1783 382.471C20.7217 382.683 17.2608 382.133 14.0394 380.862C7.76073 378.501 4.94681 373.215 3.45714 367.046C2.96256 364.8 2.74751 362.502 2.81704 360.204C2.85015 355.492 2.81704 350.779 2.81704 346.067Z" fill="#DEFFFF"/>
<path d="M230.251 47.1861C224.149 47.3075 218.29 46.2702 212.431 45.3101C207.222 44.4604 202.025 43.5774 196.728 43.1911C190.85 42.8122 184.956 42.7681 179.073 43.0588C171.746 43.3899 164.441 44.4603 157.092 44.1624C152.601 44.0602 148.146 43.3434 143.85 42.0323C141.583 41.2907 139.486 40.1073 137.679 38.5503C135.872 36.9933 134.392 35.0937 133.323 32.9612C131.73 30.3449 130.609 27.4686 130.013 24.4639C129.542 21.5703 129.692 18.6097 130.453 15.7785C131.214 12.9474 132.569 10.3107 134.427 8.04315C138.664 2.713 144.237 0.439593 150.891 0.229918C156.723 0.137498 162.554 0.432481 168.347 1.11281C170.234 1.31145 172.132 1.41083 174.03 1.44393C185.065 1.68671 196.099 1.27831 207.068 1.07967C213.622 0.958284 220.188 0.715373 226.731 0.947119C232.249 1.13472 237.975 1.15693 243.349 2.74605C251.802 5.24008 258.334 10.2502 260.276 19.2993C261.965 27.1676 260.575 34.5615 254.296 40.3331C250.875 43.4782 246.66 45.012 242.213 46.0052C238.29 46.8921 234.272 47.2888 230.251 47.1861V47.1861Z" fill="#DEFFFF"/>
<path d="M24.1704 115.977C27.2613 115.807 30.3543 116.269 33.2607 117.335C36.1672 118.401 38.8262 120.047 41.0752 122.175C43.3242 124.302 45.1161 126.865 46.3417 129.708C47.5673 132.551 48.2009 135.614 48.2038 138.71C48.2609 141.736 47.7153 144.744 46.599 147.557C45.4826 150.371 43.8178 152.934 41.7013 155.098C39.5848 157.262 37.0588 158.983 34.2707 160.162C31.4827 161.34 28.4881 161.952 25.4613 161.961C22.395 162.044 19.3439 161.505 16.4909 160.378C13.6379 159.252 11.0419 157.56 8.85904 155.405C6.67617 153.249 4.95132 150.675 3.78813 147.836C2.62493 144.998 2.04737 141.954 2.0901 138.886C2.03008 132.934 4.31109 127.197 8.44147 122.912C12.5718 118.626 18.2208 116.135 24.1704 115.977V115.977Z" fill="#DEFFFF"/>
<path d="M96.5226 379.14C93.4986 379.138 90.5046 378.54 87.7121 377.379C84.9197 376.219 82.3834 374.519 80.2492 372.376C78.115 370.233 76.4246 367.691 75.2748 364.894C74.1249 362.097 73.5383 359.1 73.5484 356.076C73.4569 350.476 75.4447 345.04 79.1277 340.821C82.8107 336.601 87.9273 333.898 93.4881 333.232C109.411 331.389 119.64 343.506 119.662 355.91C119.684 368.822 109.753 378.875 96.5226 379.14Z" fill="#DEFFFF"/>
</svg>
