<svg width="58" height="51" viewBox="0 0 58 51" fill="none" xmlns="http://www.w3.org/2000/svg">
<path d="M18.4767 17.9132C17.4668 17.9071 16.4684 17.6992 15.5411 17.3018C14.6138 16.9043 13.7767 16.3255 13.0795 15.5998C12.3824 14.8742 11.8395 14.0165 11.4833 13.078C11.1271 12.1395 10.9649 11.1393 11.0063 10.1372C11.0434 7.769 11.9898 5.50419 13.6522 3.80584C15.3147 2.1075 17.5675 1.10383 19.9503 1C21.959 1.03137 23.8736 1.85052 25.2764 3.27863C26.6792 4.70675 27.4561 6.62791 27.4378 8.62285C27.4703 11.0293 26.5491 13.352 24.8727 15.09C23.1963 16.828 20.8991 17.8419 18.4767 17.9132ZM18.5624 14.9015C20.15 14.7966 21.6354 14.0866 22.7082 12.9197C23.781 11.7529 24.3583 10.2195 24.3194 8.63988C24.3377 8.04321 24.2373 7.44878 24.0242 6.89064C23.811 6.33249 23.4891 5.82156 23.077 5.387C22.6649 4.95244 22.1706 4.60276 21.6223 4.35803C21.074 4.11329 20.4826 3.9783 19.8817 3.96069C18.3017 4.1205 16.8373 4.85578 15.771 6.02466C14.7047 7.19353 14.1121 8.71317 14.1076 10.2904C14.0797 10.8875 14.1744 11.484 14.386 12.0436C14.5975 12.6032 14.9215 13.1142 15.3382 13.5456C15.755 13.9769 16.2557 14.3195 16.81 14.5526C17.3642 14.7857 17.9605 14.9044 18.5624 14.9015Z" fill="#FF7596"/>
<path d="M18.5624 14.9015C17.9605 14.9044 17.3642 14.7857 16.8099 14.5526C16.2557 14.3195 15.7549 13.9769 15.3382 13.5456C14.9215 13.1142 14.5975 12.6032 14.3859 12.0436C14.1744 11.484 14.0797 10.8875 14.1076 10.2904C14.1121 8.71318 14.7047 7.19354 15.771 6.02466C16.8372 4.85579 18.3017 4.12051 19.8817 3.96069C20.4825 3.9783 21.074 4.1133 21.6223 4.35803C22.1705 4.60277 22.6649 4.95245 23.077 5.38701C23.4891 5.82157 23.811 6.33249 24.0242 6.89064C24.2373 7.44879 24.3376 8.04321 24.3194 8.63989C24.3582 10.2195 23.781 11.7529 22.7082 12.9197C21.6353 14.0866 20.15 14.7966 18.5624 14.9015Z" fill="#FFDCE9"/>
<path d="M46.8193 8.94298C46.8193 14.0476 43.7352 17.3485 39.2118 17.0082C38.0625 16.8978 36.9572 16.5125 35.9906 15.8852C33.9706 14.45 32.5935 12.2892 32.152 9.86187C31.7105 7.43453 32.2393 4.9319 33.6261 2.88556C34.4404 1.73807 35.5921 0.868668 36.9233 0.39652C38.2545 -0.075627 39.7002 -0.127455 41.0623 0.248167C42.6139 0.797257 43.9776 1.77069 44.9962 3.05619C46.0148 4.34169 46.6468 5.88694 46.8193 7.51371C46.8536 7.99014 46.8193 8.46656 46.8193 8.94298ZM43.8209 9.04507C43.8209 6.47577 42.5872 3.9405 40.5311 3.46407C39.9007 3.31411 39.2462 3.29257 38.6072 3.40077C37.9682 3.50898 37.3578 3.74467 36.8131 4.09363C35.9507 4.88084 35.3629 5.92018 35.1349 7.06122C34.907 8.20226 35.0507 9.38573 35.5452 10.4403C35.7988 11.5104 36.4277 12.4559 37.3193 13.1075C38.2109 13.7591 39.307 14.0743 40.4112 13.9965C41.4649 13.6842 42.3785 13.0219 42.9992 12.1206C43.6199 11.2192 43.91 10.1335 43.8209 9.04507Z" fill="#FF7596"/>
<path d="M43.8209 9.04496C43.9091 10.1356 43.6166 11.223 42.9925 12.1247C42.3685 13.0264 41.451 13.6873 40.3941 13.9964C39.2899 14.0741 38.1938 13.759 37.3022 13.1074C36.4106 12.4558 35.7817 11.5103 35.5281 10.4402C35.0336 9.38562 34.8899 8.20215 35.1179 7.06111C35.3458 5.92007 35.9335 4.88073 36.796 4.09352C37.3407 3.74456 37.9511 3.50887 38.5901 3.40066C39.2291 3.29246 39.8836 3.314 40.5141 3.46396C42.5873 3.97442 43.8552 6.42461 43.8209 9.04496Z" fill="#FFDCE9"/>
<path d="M6.47502 17.0116C10.6214 17.0116 14.014 21.2655 13.7056 25.9957C13.4657 29.739 11.324 32.4445 8.22272 32.9209C6.63957 33.0441 5.0601 32.6412 3.73264 31.7757C2.40517 30.9102 1.40501 29.6311 0.88939 28.1396C0.279296 26.9158 -0.0252079 25.5642 0.00163234 24.1989C0.0284725 22.8336 0.385862 21.4948 1.04359 20.2956C1.49915 19.2601 2.26502 18.3892 3.23694 17.8016C4.20886 17.214 5.33955 16.9381 6.47502 17.0116ZM3.28813 24.3112C3.28813 26.6593 4.35046 28.9733 6.14953 29.4157C7.22743 29.6538 8.35625 29.4711 9.30217 28.9053C10.7586 27.9014 11.0155 25.0768 10.1246 23.035C9.85061 22.1547 9.30058 21.3844 8.55465 20.8365C7.80872 20.2886 6.90598 19.9918 5.97818 19.9893C4.33332 20.3296 3.33953 21.929 3.28813 24.3112Z" fill="#FF7596"/>
<path d="M3.28808 24.3111C3.28808 21.9289 4.33327 20.3295 5.97813 20.0403C6.90593 20.0427 7.80867 20.3395 8.5546 20.8875C9.30053 21.4354 9.85056 22.2057 10.1245 23.086C10.9812 25.1278 10.7585 27.9524 9.30212 28.9563C8.3562 29.522 7.22738 29.7048 6.14948 29.4667C4.35041 28.9732 3.23668 26.7272 3.28808 24.3111Z" fill="#FFDCE9"/>
<path d="M51.0713 18.0031C51.8585 17.9773 52.6426 18.1117 53.3755 18.398C54.1084 18.6843 54.7746 19.1164 55.3331 19.6678C55.8916 20.2193 56.3306 20.8783 56.6231 21.6045C56.9156 22.3306 57.0554 23.1086 57.034 23.8904C56.9861 26.0484 56.1348 28.1123 54.6444 29.6836C53.154 31.2548 51.1302 32.2218 48.9639 32.398C48.1756 32.4119 47.3925 32.2677 46.6616 31.974C45.9307 31.6803 45.2671 31.2431 44.7104 30.6886C44.1536 30.1342 43.7153 29.4739 43.4216 28.7472C43.128 28.0206 42.985 27.2425 43.0012 26.4597C43.0425 24.3047 43.893 22.2427 45.386 20.6783C46.8789 19.1138 48.9066 18.1597 51.0713 18.0031ZM48.8611 29.3523C50.3331 29.1773 51.6759 28.4318 52.597 27.2781C53.518 26.1244 53.9427 24.656 53.7785 23.1928C53.6887 22.5453 53.3489 21.9578 52.8309 21.5546C52.3129 21.1513 51.6574 20.9639 51.0028 21.0318C49.6407 21.2123 48.3943 21.8881 47.505 22.9285C46.6156 23.9689 46.1464 25.2998 46.1881 26.6639C46.1835 27.3756 46.4615 28.0605 46.9618 28.57C47.4621 29.0796 48.1445 29.3729 48.8611 29.3863V29.3523Z" fill="#FF7596"/>
<path d="M48.8611 29.3863C48.1505 29.3729 47.4732 29.0844 46.9739 28.5821C46.4745 28.0799 46.1925 27.4036 46.1882 26.6978C46.1464 25.3337 46.6156 24.0028 47.505 22.9624C48.3944 21.9221 49.6407 21.2463 51.0029 21.0658C51.6575 20.9978 52.313 21.1853 52.8309 21.5886C53.3489 21.9918 53.6887 22.5793 53.7786 23.2267C53.9427 24.69 53.518 26.1584 52.597 27.3121C51.6759 28.4657 50.3332 29.2113 48.8611 29.3863Z" fill="#FFDCE9"/>
<path d="M21.8677 34.4353C23.2476 31.6559 22.5991 30.2125 23.9237 28.1702C25.5934 25.575 30.5057 24.5001 33.0033 26.9724C36.4253 30.3661 33.776 32.8537 36.3149 34.9114C38.0536 36.3241 39.5301 35.2646 41.6413 38.1361C42.1528 38.886 42.5025 39.7568 42.6635 40.6811C42.8245 41.6054 42.7924 42.5585 42.5697 43.4668C42.3469 44.3751 41.9396 45.2143 41.379 45.9195C40.8185 46.6247 40.1198 47.177 39.3369 47.5339C33.8864 49.5762 31.6096 44.9387 28.8775 45.123C26.1453 45.3073 24.5447 48.056 22.2817 48.7009C21.4386 48.9833 20.5448 49.0229 19.6842 48.816C18.8236 48.6092 18.0242 48.1626 17.361 47.5181C16.6978 46.8736 16.1924 46.0523 15.8921 45.1312C15.5919 44.2101 15.5068 43.2192 15.6445 42.2515C16.2931 36.3855 20.75 36.7387 21.8677 34.4353Z" fill="#FFDCE9"/>
<path fill-rule="evenodd" clip-rule="evenodd" d="M28.4067 27.2294C26.9719 27.4625 25.7834 28.1999 25.2533 29.0238L25.2501 29.0287L25.2501 29.0287C24.7703 29.7685 24.6427 30.3709 24.4712 31.3096C24.4665 31.3354 24.4618 31.3613 24.4571 31.3874C24.2807 32.3553 24.0587 33.5738 23.2865 35.1311C22.816 36.0957 22.034 36.6974 21.3803 37.1247C21.1063 37.3038 20.8114 37.4787 20.5436 37.6376C20.4905 37.6691 20.4385 37.6999 20.388 37.73C20.0664 37.9216 19.7702 38.1027 19.4861 38.3012C18.929 38.6905 18.4483 39.1271 18.0673 39.7262C17.6875 40.3233 17.3549 41.1636 17.2155 42.4248L17.2127 42.4493L17.2093 42.4737C17.1051 43.2051 17.1702 43.9526 17.395 44.6423C17.6197 45.3319 17.9925 45.929 18.463 46.3862C18.9324 46.8423 19.482 47.1433 20.054 47.2808C20.6247 47.418 21.2162 47.3924 21.7794 47.2038L21.8135 47.1924L21.8482 47.1825C22.5044 46.9955 23.0845 46.5433 23.9895 45.8377C24.1304 45.7278 24.2792 45.6118 24.4374 45.4897C25.4749 44.6889 26.8895 43.6745 28.771 43.5476C29.9181 43.4702 30.9039 43.9085 31.6623 44.3271C32.0311 44.5307 32.4009 44.7621 32.7397 44.9741L32.7891 45.005C33.1545 45.2336 33.4976 45.4469 33.8536 45.644C35.1759 46.3757 36.6012 46.8555 38.7282 46.0754C39.2549 45.8261 39.7404 45.4419 40.1414 44.9375C40.5547 44.4175 40.864 43.787 41.0346 43.091C41.2053 42.3951 41.2302 41.6621 41.1065 40.9517C40.9844 40.2508 40.7227 39.6004 40.3503 39.0475C39.5112 37.9138 38.9032 37.6544 38.3586 37.4811C38.2582 37.4491 38.1352 37.4163 37.9943 37.3787C37.336 37.2032 36.2864 36.9234 35.3177 36.1362C33.5804 34.7273 33.491 33.015 33.4293 31.8342C33.424 31.733 33.4189 31.6357 33.413 31.5428C33.374 30.9283 33.3151 30.4208 33.1235 29.8987C32.9375 29.3919 32.5959 28.7932 31.8904 28.0934C31.1074 27.3188 29.8257 26.9989 28.4067 27.2294ZM27.8994 24.1125C29.978 23.7748 32.401 24.1535 34.1157 25.8507L34.1167 25.8518C35.1219 26.8486 35.7322 27.8333 36.0912 28.8116C36.4447 29.7747 36.5238 30.654 36.5676 31.3428C36.5708 31.3944 36.574 31.4446 36.5771 31.4936C36.6593 32.8007 36.683 33.1764 37.3106 33.6851L37.3122 33.6864C37.7164 34.0148 37.9914 34.0911 38.5337 34.2416C38.7462 34.3005 38.9997 34.3708 39.3181 34.4722C40.4706 34.839 41.6518 35.4832 42.915 37.2013L42.9316 37.2238L42.9473 37.2469C43.59 38.1891 44.0223 39.2721 44.2206 40.4104C44.4188 41.5486 44.3795 42.7218 44.1047 43.8424C43.8299 44.9631 43.3245 46.0109 42.6167 46.9013C41.9085 47.7923 41.0137 48.505 39.9929 48.9703L39.9431 48.993L39.8919 49.0122C36.5981 50.2464 34.1726 49.4305 32.322 48.4064C31.882 48.1628 31.4716 47.9067 31.1117 47.6816L31.0948 47.671C30.7292 47.4423 30.425 47.252 30.1335 47.0911C29.5263 46.7559 29.2029 46.6835 28.9839 46.6983C28.1333 46.7557 27.3816 47.2078 26.3699 47.9886C26.2542 48.078 26.1314 48.1752 26.002 48.2777C25.1612 48.9438 24.0412 49.831 22.7507 50.209C21.6373 50.5751 20.4536 50.6249 19.3145 50.3511C18.1652 50.0749 17.1161 49.4827 16.2591 48.6499C15.4031 47.8181 14.765 46.7727 14.3894 45.62C14.0163 44.4754 13.9099 43.2503 14.0763 42.0541C14.263 40.3936 14.7294 39.0859 15.3994 38.0325C16.0714 36.976 16.8964 36.2571 17.6744 35.7135C18.0577 35.4456 18.4364 35.216 18.769 35.0178C18.8309 34.9809 18.8905 34.9455 18.948 34.9114C19.2147 34.7531 19.4385 34.6202 19.6498 34.4821C20.1648 34.1455 20.3568 33.9294 20.4456 33.7465L20.4487 33.7401L20.4519 33.7337C21.0274 32.5744 21.1842 31.7153 21.3537 30.7863C21.3564 30.7719 21.359 30.7574 21.3616 30.7429C21.542 29.7551 21.7523 28.6154 22.5959 27.3138C23.7358 25.5441 25.8372 24.4474 27.8994 24.1125Z" fill="#FF7596"/>
</svg>
