<svg width="42" height="45" viewBox="0 0 42 45" fill="none" xmlns="http://www.w3.org/2000/svg">
<g clip-path="url(#clip0_317_2)">
<path d="M13.0923 7.50653e-05C17.1819 7.50653e-05 20.5061 2.3499 22.0076 6.41517C22.3873 7.43149 22.7788 7.87803 23.9765 7.80166C26.6289 7.63129 28.586 9.11172 29.9473 11.1855C32.1851 14.4815 34.9486 17.3834 38.1264 19.7742C41.7954 22.647 42.8003 26.0249 41.4157 30.2782C41.2637 30.8398 41.2637 31.4319 41.4157 31.9935C41.7487 33.7207 42.0641 35.442 41.7369 37.222C41.5264 38.5587 41.0266 39.8327 40.2729 40.9539C39.5192 42.0752 38.5299 43.0164 37.3749 43.7111C36.2199 44.4058 34.9273 44.8372 33.5884 44.9746C32.2495 45.1121 30.8967 44.9523 29.6259 44.5066C29.3969 44.4573 29.1764 44.3741 28.9716 44.2599C25.4079 41.581 21.3767 41.581 17.1703 41.91C13.443 42.192 10.1596 40.9348 7.8227 37.7977C7.50109 37.3819 7.04732 37.0895 6.53729 36.9694C2.19649 35.7298 0.373781 33.5738 0.0466148 29.3323C-0.144601 27.3858 0.281356 25.4284 1.26356 23.7401C2.24577 22.0518 3.73381 20.7191 5.51489 19.9328C6.59571 19.4805 6.68344 19.1457 6.05247 18.2233C3.996 15.3154 3.40593 12.0079 3.71557 8.52423C3.91632 6.17421 4.9954 3.98802 6.7354 2.40624C8.47541 0.824459 10.7469 -0.0353314 13.0923 7.50653e-05Z" fill="#FF7596"/>
<path d="M16.3522 11.2383C16.3522 14.3048 14.7866 16.5255 12.6249 16.5255C10.4633 16.5255 8.77481 14.2754 8.62292 11.344C8.51107 9.92897 8.86184 8.51597 9.62192 7.31984C11.0357 5.14033 13.3142 4.96999 14.9968 6.97325C15.9669 8.17236 16.4511 9.69564 16.3522 11.2383Z" fill="#FFDCE9"/>
<path d="M21.9084 33.4328C21.1303 33.4843 20.3496 33.4843 19.5715 33.4328C19.1822 33.3833 18.8116 33.2362 18.4938 33.0048C18.1759 32.7734 17.9213 32.4653 17.7531 32.1088C17.5848 31.7524 17.5085 31.3591 17.5313 30.9652C17.554 30.5713 17.675 30.1895 17.8831 29.855C18.3388 29.0972 18.9347 28.7624 19.7643 29.2676C20.7344 29.8687 21.8249 30.2458 22.9575 30.3718C24.09 30.4978 25.2362 30.3694 26.3135 29.996C26.6049 29.8633 26.9339 29.8395 27.2413 29.9288C27.5487 30.0182 27.8142 30.215 27.9901 30.4837C28.4755 31.1439 29.0874 31.6998 29.7897 32.1185C30.4921 32.5372 31.2707 32.8103 32.0797 32.9217C33.0437 33.0862 34.0253 33.327 33.7507 34.6429C33.4936 35.859 32.5822 36.3348 31.4138 36.2643C30.6076 36.1261 29.8427 35.8068 29.1761 35.3303C26.9806 34.0198 24.4606 33.3619 21.9084 33.4328Z" fill="#FFDCE9"/>
<path d="M37.9222 23.2578C36.7537 21.842 35.188 20.9079 33.8735 19.639C31.6717 17.6275 29.7252 15.3506 28.0781 12.8597C26.489 10.3688 25.2913 10.034 22.5338 10.8153C21.301 11.1678 20.6467 10.4804 20.2378 9.47586C19.9048 8.66515 19.7352 7.78983 19.3964 6.97912C18.7799 5.37663 17.588 4.06501 16.0562 3.30358C14.5244 2.54214 12.7643 2.38631 11.1238 2.86685C6.95243 4.04178 5.01274 8.32438 6.53173 12.9595C6.53173 12.1723 6.53173 11.3851 6.53173 10.6096C6.70115 5.90989 9.21338 3.4719 13.8872 3.56002C15.6749 4.42947 17.1004 5.62795 17.8307 7.57247C18.6823 9.77597 18.7546 12.2069 18.0352 14.4576C17.8775 14.9628 17.34 15.5561 18.1638 15.9732C19.3322 16.5607 19.1452 17.4066 18.6778 18.3231C18.1502 19.3459 17.8961 20.489 17.9401 21.6404C17.9841 22.7918 18.325 23.9119 18.9291 24.891C19.4005 25.8092 20.1223 26.5732 21.0101 27.0934C21.898 27.6137 22.9149 27.8686 23.9417 27.8283C26.0566 27.8283 27.2134 26.5888 27.8327 24.6678C27.9811 24.2244 28.1957 23.8064 28.4694 23.4282C28.6111 23.2004 28.8298 23.0317 29.0852 22.9529C29.3406 22.8741 29.6157 22.8906 29.86 22.9994C30.1112 23.0904 30.3189 23.2735 30.4413 23.5122C30.5638 23.7508 30.5919 24.0272 30.5201 24.2859C30.4368 24.6896 30.3115 25.0835 30.1462 25.4608C29.0245 28.1867 29.8716 29.6436 32.7577 30.3486C34.3526 30.7363 35.9008 30.2252 37.4315 30.4425C38.2027 30.5542 38.4188 30.378 38.7226 29.7611C39.8911 27.376 39.6573 25.3962 37.9222 23.2578Z" fill="white"/>
<path d="M39.0668 33.7794C38.9967 33.192 39.0141 32.0758 38.3715 32.252C37.7288 32.4283 36.4436 32.7573 36.5253 34.0144C36.8175 38.3558 31.7522 40.13 28.3462 37.8858C26.1562 36.4099 23.529 35.7339 20.9032 35.9707C18.6188 36.1645 16.7259 35.5124 15.6042 33.3741C14.4825 31.2357 15.1018 29.391 16.4163 27.6404C16.6279 27.4424 16.7695 27.1805 16.8201 26.8944C16.8707 26.6083 16.8275 26.3134 16.6968 26.0542C15.975 24.6708 15.5945 23.1332 15.5874 21.571C15.5802 20.0088 15.9467 18.4677 16.6558 17.0777C13.6587 19.4276 11.0765 19.175 8.61102 16.9779L6.56623 13.1123C6.57849 14.6789 7.18207 16.1824 8.25472 17.3186C8.56436 17.6711 8.86806 18.0295 9.17185 18.3819C9.75608 19.0517 10.8779 19.41 10.4573 20.626C10.0366 21.8421 8.93817 21.8538 7.86319 21.9302C5.60224 22.0888 3.52833 24.0098 2.85063 26.4654C2.06193 29.3146 2.798 32.111 4.69673 33.515C5.45159 34.085 6.39266 34.3473 7.3316 34.2494C7.76416 34.1509 8.2178 34.2251 8.59704 34.4563C8.97629 34.6876 9.25152 35.0578 9.36469 35.489C9.91387 37.1163 11.2283 37.9798 12.6889 38.6554C14.9072 39.6214 17.3689 39.8719 19.7347 39.3721C21.2167 39.0629 22.7449 39.0521 24.2311 39.3405C25.7172 39.6289 27.1318 40.2107 28.393 41.0523C30.9986 42.7207 33.7561 42.9263 36.461 41.1287C39.166 39.331 39.3823 36.6404 39.0668 33.7794Z" fill="white"/>
<path d="M6.53125 13.0594V13.1122C6.53445 13.0908 6.53445 13.069 6.53125 13.0476V13.0594Z" fill="white"/>
<path d="M2.99077 28.6508C3.02719 27.0288 3.69043 25.4848 4.84001 24.3464C5.9896 23.208 7.53498 22.5647 9.14839 22.5529C9.83409 22.5391 10.5155 22.6655 11.1511 22.9247C11.7867 23.1838 12.3632 23.5701 12.8457 24.0602C13.3282 24.5503 13.7066 25.134 13.9578 25.7757C14.2091 26.4174 14.3279 27.1037 14.3072 27.7931C14.3011 28.5982 14.137 29.3942 13.8242 30.1353C13.5114 30.8765 13.0562 31.5483 12.4846 32.1121C11.913 32.6759 11.2364 33.1208 10.4934 33.421C9.75049 33.7212 8.95587 33.871 8.15524 33.8617C7.47158 33.8762 6.79207 33.7511 6.1578 33.4941C5.52354 33.2372 4.94774 32.8536 4.46503 32.3666C3.98232 31.8796 3.60275 31.2992 3.34935 30.6606C3.09596 30.0219 2.97404 29.3382 2.99077 28.6508Z" fill="#FF7596"/>
<path d="M9.1078 25.2611C9.44099 25.2404 9.7748 25.2878 10.0893 25.4004C10.4037 25.513 10.6922 25.6886 10.9374 25.9164C11.1825 26.1443 11.3792 26.4197 11.5156 26.7261C11.652 27.0325 11.7253 27.3635 11.731 27.6991C11.695 28.6396 11.3006 29.5302 10.6296 30.1863C9.95851 30.8425 9.06217 31.214 8.1262 31.2239C7.45154 31.2076 6.80887 30.9316 6.33059 30.4528C5.85231 29.9741 5.57492 29.3291 5.55566 28.6508C5.55566 26.9119 7.28502 25.2552 9.1078 25.2611Z" fill="#FFDCE9"/>
</g>
<defs>
<clipPath id="clip0_317_2">
<rect width="42" height="45" fill="white"/>
</clipPath>
</defs>
</svg>
