<svg width="456" height="512" viewBox="0 0 456 512" fill="none" xmlns="http://www.w3.org/2000/svg">
<path fill-rule="evenodd" clip-rule="evenodd" d="M213.5 1.09918C183.478 2.85018 155.118 10.4062 127.5 24.0102C61.5369 56.5022 15.8319 117.429 2.98391 190C-0.152093 207.712 -0.867093 238.7 1.44191 256.84C8.88891 315.346 37.4639 367.17 83.4999 405.662C114.523 431.6 161.069 451.589 199.899 455.647C203.255 455.998 206 456.545 206 456.862C206 457.179 196.775 466.702 185.5 478.024C167.232 496.368 165 498.964 165 501.87C165 503.664 165.485 506.039 166.079 507.147C167.47 509.747 172.429 511.82 175.834 511.225C179.459 510.591 235.58 454.672 236.547 450.731C236.921 449.207 236.705 446.701 236.066 445.16C235.428 443.62 222.197 429.679 206.663 414.18C178.528 386.109 178.403 386 174.162 386C168.713 386 165 389.562 165 394.79C165 397.993 166.605 399.908 184 417.449C194.45 427.986 203 436.91 203 437.279C203 438.06 200.761 437.717 184.405 434.432C140.593 425.633 99.4559 401.38 69.4279 366.646C25.8469 316.235 8.85591 250.233 22.6049 184.76C38.8229 107.524 99.9059 44.5612 177.506 25.0912C195.294 20.6282 204.648 19.5972 227.5 19.5812C252.301 19.5642 265.554 21.3312 287.091 27.5282C344.824 44.1382 394.128 87.1142 419.296 142.763C432.791 172.603 438.839 203.294 437.669 236C436.53 267.847 429.93 294.194 416.002 322.5C402.663 349.61 381.197 376.14 358.553 393.5C345.126 403.794 343.948 405.053 343.804 409.263C343.59 415.521 349.668 420.217 355.24 418.099C363.199 415.073 392.85 388.35 405.282 373C429.577 343.001 446.149 306.351 453.151 267.133C455.765 252.495 456.774 220.028 455.085 204.898C449.004 150.403 425.316 102.326 385.66 63.9892C340.293 20.1312 277.906 -2.65882 213.5 1.09918Z" fill="#FF7596"/>
</svg>
