<svg width="1410" height="679" viewBox="0 0 1410 679" fill="none" xmlns="http://www.w3.org/2000/svg">
<path fill-rule="evenodd" clip-rule="evenodd" d="M1080.78 44.7749C1107.94 54.4132 1135.21 64.091 1164.62 64.8848C1171.61 64.9947 1178.32 64.9494 1184.74 64.7487C1225.79 63.7341 1264.03 53.1022 1302.68 42.357C1313.72 39.2876 1324.79 36.209 1335.97 33.3426C1346.83 30.6062 1358.09 29.8288 1369.37 29.05L1370.98 28.9385C1376.72 28.5335 1382.8 28.2182 1389.29 28.0032C1395.77 27.7882 1402.66 27.6736 1410 27.6736V209V679H0V209V27.6736C58.7499 27.6736 88.1204 35.0164 117.497 42.3608C122.546 43.6231 127.596 44.8855 132.795 46.1107C139.884 47.7806 147.249 49.3861 155.27 50.8195C161.749 51.6867 168.287 52.4786 174.883 53.1953C181.479 53.912 188.107 54.5202 194.768 55.0195C203.739 55.8341 212.705 56.2915 221.667 56.3918C230.618 56.4962 239.57 56.2271 248.488 55.5855C261.506 54.8832 274.013 52.7689 286.205 49.7551C292.296 48.2465 298.309 46.5157 304.26 44.6057C319.172 39.9913 333.154 33.9262 347.144 27.8574C359.697 22.4124 372.256 16.9644 385.501 12.5582C413.459 3.59937 442.905 -0.281594 472.557 0.0158389C479.966 0.0875094 487.405 0.42434 494.844 1.06937C518.969 2.86114 541.724 8.59478 563.604 16.8369C572.386 20.1995 581.139 23.7116 589.906 27.2285C626.681 41.9827 663.672 56.8232 703.79 61.0828C712.166 61.9804 720.611 62.378 729.057 62.2724C765.77 62.0195 799.022 49.9807 832.216 37.9624C836.179 36.5278 840.14 35.0934 844.107 33.6795C869.816 24.3623 895.91 19.435 922.131 17.7364C930.883 17.1703 939.635 16.966 948.388 17.0735C982.827 16.8369 1016.52 24.0039 1048.9 34.0378C1059.59 37.2571 1070.18 41.013 1080.78 44.7749Z" fill="#F05A7E" fill-opacity="0.74"/>
</svg>
